<?xml version="1.0" encoding="UTF-8"?>
<svg xmlns="http://www.w3.org/2000/svg"
     viewBox="0 0 412 300"
     width="412" height="300"
     style="background:#fff">
<rect x="110.0" y="42.0" width="224.0" height="136.0" rx="8" fill="#00000015"/>
<rect x="108.0" y="40.0" width="224.0" height="136.0" rx="8" fill="#e8dcc8" stroke="#b8a88a" stroke-width="1.2"/>
<rect x="213.0" y="44.0" width="14.0" height="128.0" rx="2" fill="#d4c8b0" stroke="#c4b898" stroke-width="0.4"/>
<line x1="120.0" y1="44.0" x2="120.0" y2="172.0" stroke="#d32f2f" stroke-width="1.2" opacity="0.2" stroke-dasharray="3,5"/>
<line x1="130.0" y1="44.0" x2="130.0" y2="172.0" stroke="#1565c0" stroke-width="1.2" opacity="0.2" stroke-dasharray="3,5"/>
<line x1="310.0" y1="44.0" x2="310.0" y2="172.0" stroke="#d32f2f" stroke-width="1.2" opacity="0.2" stroke-dasharray="3,5"/>
<line x1="320.0" y1="44.0" x2="320.0" y2="172.0" stroke="#1565c0" stroke-width="1.2" opacity="0.2" stroke-dasharray="3,5"/>
<rect x="145.0" y="89.0" width="66.0" height="10.0" rx="3" fill="#ffeaa7" opacity="0.25"/>
<rect x="229.0" y="89.0" width="66.0" height="10.0" rx="3" fill="#ffeaa7" opacity="0.25"/>
<rect x="145.0" y="103.0" width="66.0" height="10.0" rx="3" fill="#ffeaa7" opacity="0.25"/>
<rect x="229.0" y="103.0" width="66.0" height="10.0" rx="3" fill="#ffeaa7" opacity="0.25"/>
<rect x="145.0" y="117.0" width="66.0" height="10.0" rx="3" fill="#ffeaa7" opacity="0.25"/>
<rect x="229.0" y="117.0" width="66.0" height="10.0" rx="3" fill="#ffeaa7" opacity="0.25"/>
<circle cx="150.0" cy="52.0" r="3.0" fill="#2a2a2a"/>
<circle cx="150.0" cy="66.0" r="3.0" fill="#2a2a2a"/>
<circle cx="150.0" cy="80.0" r="3.0" fill="#2a2a2a"/>
<circle cx="150.0" cy="94.0" r="3.0" fill="#666"/>
<circle cx="150.0" cy="108.0" r="3.0" fill="#666"/>
<circle cx="150.0" cy="122.0" r="3.0" fill="#666"/>
<circle cx="150.0" cy="136.0" r="3.0" fill="#2a2a2a"/>
<circle cx="150.0" cy="150.0" r="3.0" fill="#2a2a2a"/>
<circle cx="150.0" cy="164.0" r="3.0" fill="#2a2a2a"/>
<circle cx="164.0" cy="52.0" r="3.0" fill="#2a2a2a"/>
<circle cx="164.0" cy="66.0" r="3.0" fill="#2a2a2a"/>
<circle cx="164.0" cy="80.0" r="3.0" fill="#2a2a2a"/>
<circle cx="164.0" cy="94.0" r="3.0" fill="#2a2a2a"/>
<circle cx="164.0" cy="108.0" r="3.0" fill="#2a2a2a"/>
<circle cx="164.0" cy="122.0" r="3.0" fill="#2a2a2a"/>
<circle cx="164.0" cy="136.0" r="3.0" fill="#2a2a2a"/>
<circle cx="164.0" cy="150.0" r="3.0" fill="#2a2a2a"/>
<circle cx="164.0" cy="164.0" r="3.0" fill="#2a2a2a"/>
<circle cx="178.0" cy="52.0" r="3.0" fill="#2a2a2a"/>
<circle cx="178.0" cy="66.0" r="3.0" fill="#2a2a2a"/>
<circle cx="178.0" cy="80.0" r="3.0" fill="#2a2a2a"/>
<circle cx="178.0" cy="94.0" r="3.0" fill="#2a2a2a"/>
<circle cx="178.0" cy="108.0" r="3.0" fill="#2a2a2a"/>
<circle cx="178.0" cy="122.0" r="3.0" fill="#2a2a2a"/>
<circle cx="178.0" cy="136.0" r="3.0" fill="#2a2a2a"/>
<circle cx="178.0" cy="150.0" r="3.0" fill="#2a2a2a"/>
<circle cx="178.0" cy="164.0" r="3.0" fill="#2a2a2a"/>
<circle cx="192.0" cy="52.0" r="3.0" fill="#2a2a2a"/>
<circle cx="192.0" cy="66.0" r="3.0" fill="#2a2a2a"/>
<circle cx="192.0" cy="80.0" r="3.0" fill="#2a2a2a"/>
<circle cx="192.0" cy="94.0" r="3.0" fill="#2a2a2a"/>
<circle cx="192.0" cy="108.0" r="3.0" fill="#2a2a2a"/>
<circle cx="192.0" cy="122.0" r="3.0" fill="#2a2a2a"/>
<circle cx="192.0" cy="136.0" r="3.0" fill="#2a2a2a"/>
<circle cx="192.0" cy="150.0" r="3.0" fill="#2a2a2a"/>
<circle cx="192.0" cy="164.0" r="3.0" fill="#2a2a2a"/>
<circle cx="206.0" cy="52.0" r="3.0" fill="#2a2a2a"/>
<circle cx="206.0" cy="66.0" r="3.0" fill="#2a2a2a"/>
<circle cx="206.0" cy="80.0" r="3.0" fill="#2a2a2a"/>
<circle cx="206.0" cy="94.0" r="3.0" fill="#2a2a2a"/>
<circle cx="206.0" cy="108.0" r="3.0" fill="#2a2a2a"/>
<circle cx="206.0" cy="122.0" r="3.0" fill="#2a2a2a"/>
<circle cx="206.0" cy="136.0" r="3.0" fill="#2a2a2a"/>
<circle cx="206.0" cy="150.0" r="3.0" fill="#2a2a2a"/>
<circle cx="206.0" cy="164.0" r="3.0" fill="#2a2a2a"/>
<circle cx="234.0" cy="52.0" r="3.0" fill="#2a2a2a"/>
<circle cx="234.0" cy="66.0" r="3.0" fill="#2a2a2a"/>
<circle cx="234.0" cy="80.0" r="3.0" fill="#2a2a2a"/>
<circle cx="234.0" cy="94.0" r="3.0" fill="#2a2a2a"/>
<circle cx="234.0" cy="108.0" r="3.0" fill="#2a2a2a"/>
<circle cx="234.0" cy="122.0" r="3.0" fill="#2a2a2a"/>
<circle cx="234.0" cy="136.0" r="3.0" fill="#2a2a2a"/>
<circle cx="234.0" cy="150.0" r="3.0" fill="#2a2a2a"/>
<circle cx="234.0" cy="164.0" r="3.0" fill="#2a2a2a"/>
<circle cx="248.0" cy="52.0" r="3.0" fill="#2a2a2a"/>
<circle cx="248.0" cy="66.0" r="3.0" fill="#2a2a2a"/>
<circle cx="248.0" cy="80.0" r="3.0" fill="#2a2a2a"/>
<circle cx="248.0" cy="94.0" r="3.0" fill="#2a2a2a"/>
<circle cx="248.0" cy="108.0" r="3.0" fill="#2a2a2a"/>
<circle cx="248.0" cy="122.0" r="3.0" fill="#2a2a2a"/>
<circle cx="248.0" cy="136.0" r="3.0" fill="#2a2a2a"/>
<circle cx="248.0" cy="150.0" r="3.0" fill="#2a2a2a"/>
<circle cx="248.0" cy="164.0" r="3.0" fill="#2a2a2a"/>
<circle cx="262.0" cy="52.0" r="3.0" fill="#2a2a2a"/>
<circle cx="262.0" cy="66.0" r="3.0" fill="#2a2a2a"/>
<circle cx="262.0" cy="80.0" r="3.0" fill="#2a2a2a"/>
<circle cx="262.0" cy="94.0" r="3.0" fill="#2a2a2a"/>
<circle cx="262.0" cy="108.0" r="3.0" fill="#2a2a2a"/>
<circle cx="262.0" cy="122.0" r="3.0" fill="#2a2a2a"/>
<circle cx="262.0" cy="136.0" r="3.0" fill="#2a2a2a"/>
<circle cx="262.0" cy="150.0" r="3.0" fill="#2a2a2a"/>
<circle cx="262.0" cy="164.0" r="3.0" fill="#2a2a2a"/>
<circle cx="276.0" cy="52.0" r="3.0" fill="#2a2a2a"/>
<circle cx="276.0" cy="66.0" r="3.0" fill="#2a2a2a"/>
<circle cx="276.0" cy="80.0" r="3.0" fill="#2a2a2a"/>
<circle cx="276.0" cy="94.0" r="3.0" fill="#2a2a2a"/>
<circle cx="276.0" cy="108.0" r="3.0" fill="#2a2a2a"/>
<circle cx="276.0" cy="122.0" r="3.0" fill="#2a2a2a"/>
<circle cx="276.0" cy="136.0" r="3.0" fill="#2a2a2a"/>
<circle cx="276.0" cy="150.0" r="3.0" fill="#2a2a2a"/>
<circle cx="276.0" cy="164.0" r="3.0" fill="#2a2a2a"/>
<circle cx="290.0" cy="52.0" r="3.0" fill="#2a2a2a"/>
<circle cx="290.0" cy="66.0" r="3.0" fill="#2a2a2a"/>
<circle cx="290.0" cy="80.0" r="3.0" fill="#2a2a2a"/>
<circle cx="290.0" cy="94.0" r="3.0" fill="#2a2a2a"/>
<circle cx="290.0" cy="108.0" r="3.0" fill="#2a2a2a"/>
<circle cx="290.0" cy="122.0" r="3.0" fill="#2a2a2a"/>
<circle cx="290.0" cy="136.0" r="3.0" fill="#2a2a2a"/>
<circle cx="290.0" cy="150.0" r="3.0" fill="#2a2a2a"/>
<circle cx="290.0" cy="164.0" r="3.0" fill="#2a2a2a"/>
<circle cx="120.0" cy="52.0" r="2.5" fill="#2a2a2a"/>
<circle cx="120.0" cy="80.0" r="2.5" fill="#2a2a2a"/>
<circle cx="120.0" cy="94.0" r="2.5" fill="#2a2a2a"/>
<circle cx="120.0" cy="108.0" r="2.5" fill="#2a2a2a"/>
<circle cx="120.0" cy="122.0" r="2.5" fill="#2a2a2a"/>
<circle cx="120.0" cy="136.0" r="2.5" fill="#2a2a2a"/>
<circle cx="120.0" cy="164.0" r="2.5" fill="#2a2a2a"/>
<circle cx="130.0" cy="52.0" r="2.5" fill="#2a2a2a"/>
<circle cx="130.0" cy="80.0" r="2.5" fill="#2a2a2a"/>
<circle cx="130.0" cy="94.0" r="2.5" fill="#2a2a2a"/>
<circle cx="130.0" cy="108.0" r="2.5" fill="#2a2a2a"/>
<circle cx="130.0" cy="122.0" r="2.5" fill="#2a2a2a"/>
<circle cx="130.0" cy="136.0" r="2.5" fill="#2a2a2a"/>
<circle cx="130.0" cy="164.0" r="2.5" fill="#2a2a2a"/>
<circle cx="310.0" cy="52.0" r="2.5" fill="#2a2a2a"/>
<circle cx="310.0" cy="80.0" r="2.5" fill="#2a2a2a"/>
<circle cx="310.0" cy="94.0" r="2.5" fill="#2a2a2a"/>
<circle cx="310.0" cy="108.0" r="2.5" fill="#2a2a2a"/>
<circle cx="310.0" cy="122.0" r="2.5" fill="#2a2a2a"/>
<circle cx="310.0" cy="136.0" r="2.5" fill="#2a2a2a"/>
<circle cx="310.0" cy="164.0" r="2.5" fill="#2a2a2a"/>
<circle cx="320.0" cy="52.0" r="2.5" fill="#2a2a2a"/>
<circle cx="320.0" cy="80.0" r="2.5" fill="#2a2a2a"/>
<circle cx="320.0" cy="94.0" r="2.5" fill="#2a2a2a"/>
<circle cx="320.0" cy="108.0" r="2.5" fill="#2a2a2a"/>
<circle cx="320.0" cy="122.0" r="2.5" fill="#2a2a2a"/>
<circle cx="320.0" cy="136.0" r="2.5" fill="#2a2a2a"/>
<circle cx="320.0" cy="164.0" r="2.5" fill="#2a2a2a"/>
<text x="150.0" y="36.0" font-size="9" fill="#666" text-anchor="middle" font-family="'SF Mono', 'Cascadia Code', 'Fira Code', monospace">a</text>
<text x="164.0" y="36.0" font-size="9" fill="#666" text-anchor="middle" font-family="'SF Mono', 'Cascadia Code', 'Fira Code', monospace">b</text>
<text x="178.0" y="36.0" font-size="9" fill="#666" text-anchor="middle" font-family="'SF Mono', 'Cascadia Code', 'Fira Code', monospace">c</text>
<text x="192.0" y="36.0" font-size="9" fill="#666" text-anchor="middle" font-family="'SF Mono', 'Cascadia Code', 'Fira Code', monospace">d</text>
<text x="206.0" y="36.0" font-size="9" fill="#666" text-anchor="middle" font-family="'SF Mono', 'Cascadia Code', 'Fira Code', monospace">e</text>
<text x="234.0" y="36.0" font-size="9" fill="#666" text-anchor="middle" font-family="'SF Mono', 'Cascadia Code', 'Fira Code', monospace">f</text>
<text x="248.0" y="36.0" font-size="9" fill="#666" text-anchor="middle" font-family="'SF Mono', 'Cascadia Code', 'Fira Code', monospace">g</text>
<text x="262.0" y="36.0" font-size="9" fill="#666" text-anchor="middle" font-family="'SF Mono', 'Cascadia Code', 'Fira Code', monospace">h</text>
<text x="276.0" y="36.0" font-size="9" fill="#666" text-anchor="middle" font-family="'SF Mono', 'Cascadia Code', 'Fira Code', monospace">i</text>
<text x="290.0" y="36.0" font-size="9" fill="#666" text-anchor="middle" font-family="'SF Mono', 'Cascadia Code', 'Fira Code', monospace">j</text>
<text x="120.0" y="36.0" font-size="10" fill="#d32f2f" font-weight="bold" text-anchor="middle" font-family="system-ui, -apple-system, 'Segoe UI', sans-serif">+</text>
<text x="130.0" y="36.0" font-size="10" fill="#1565c0" font-weight="bold" text-anchor="middle" font-family="system-ui, -apple-system, 'Segoe UI', sans-serif">–</text>
<text x="310.0" y="36.0" font-size="10" fill="#d32f2f" font-weight="bold" text-anchor="middle" font-family="system-ui, -apple-system, 'Segoe UI', sans-serif">+</text>
<text x="320.0" y="36.0" font-size="10" fill="#1565c0" font-weight="bold" text-anchor="middle" font-family="system-ui, -apple-system, 'Segoe UI', sans-serif">–</text>
<text x="140.0" y="55.5" font-size="8" fill="#666" text-anchor="middle" font-family="'SF Mono', 'Cascadia Code', 'Fira Code', monospace">7</text>
<text x="300.0" y="55.5" font-size="8" fill="#666" text-anchor="middle" font-family="'SF Mono', 'Cascadia Code', 'Fira Code', monospace">7</text>
<text x="140.0" y="69.5" font-size="8" fill="#666" text-anchor="middle" font-family="'SF Mono', 'Cascadia Code', 'Fira Code', monospace">8</text>
<text x="300.0" y="69.5" font-size="8" fill="#666" text-anchor="middle" font-family="'SF Mono', 'Cascadia Code', 'Fira Code', monospace">8</text>
<text x="140.0" y="83.5" font-size="8" fill="#666" text-anchor="middle" font-family="'SF Mono', 'Cascadia Code', 'Fira Code', monospace">9</text>
<text x="300.0" y="83.5" font-size="8" fill="#666" text-anchor="middle" font-family="'SF Mono', 'Cascadia Code', 'Fira Code', monospace">9</text>
<text x="140.0" y="97.5" font-size="8" fill="#666" text-anchor="middle" font-family="'SF Mono', 'Cascadia Code', 'Fira Code', monospace">10</text>
<text x="300.0" y="97.5" font-size="8" fill="#666" text-anchor="middle" font-family="'SF Mono', 'Cascadia Code', 'Fira Code', monospace">10</text>
<text x="140.0" y="111.5" font-size="8" fill="#666" text-anchor="middle" font-family="'SF Mono', 'Cascadia Code', 'Fira Code', monospace">11</text>
<text x="300.0" y="111.5" font-size="8" fill="#666" text-anchor="middle" font-family="'SF Mono', 'Cascadia Code', 'Fira Code', monospace">11</text>
<text x="140.0" y="125.5" font-size="8" fill="#666" text-anchor="middle" font-family="'SF Mono', 'Cascadia Code', 'Fira Code', monospace">12</text>
<text x="300.0" y="125.5" font-size="8" fill="#666" text-anchor="middle" font-family="'SF Mono', 'Cascadia Code', 'Fira Code', monospace">12</text>
<text x="140.0" y="139.5" font-size="8" fill="#666" text-anchor="middle" font-family="'SF Mono', 'Cascadia Code', 'Fira Code', monospace">13</text>
<text x="300.0" y="139.5" font-size="8" fill="#666" text-anchor="middle" font-family="'SF Mono', 'Cascadia Code', 'Fira Code', monospace">13</text>
<text x="140.0" y="153.5" font-size="8" fill="#666" text-anchor="middle" font-family="'SF Mono', 'Cascadia Code', 'Fira Code', monospace">14</text>
<text x="300.0" y="153.5" font-size="8" fill="#666" text-anchor="middle" font-family="'SF Mono', 'Cascadia Code', 'Fira Code', monospace">14</text>
<text x="140.0" y="167.5" font-size="8" fill="#666" text-anchor="middle" font-family="'SF Mono', 'Cascadia Code', 'Fira Code', monospace">15</text>
<text x="300.0" y="167.5" font-size="8" fill="#666" text-anchor="middle" font-family="'SF Mono', 'Cascadia Code', 'Fira Code', monospace">15</text>
<rect x="4.0" y="79.0" width="88.0" height="58.0" rx="5" fill="#1565c0" stroke="#263238" stroke-width="1" opacity="0.95"/>
<text x="48.0" y="92.0" font-size="8" fill="white" font-weight="700" text-anchor="middle" font-family="system-ui, -apple-system, 'Segoe UI', sans-serif">HC-SR501 PIR</text>
<circle cx="92.0" cy="99.0" r="2.5" fill="white" stroke="#1565c0" stroke-width="0.8"/>
<text x="84.0" y="102.0" font-size="6" fill="#ddd" font-weight="600" text-anchor="end" font-family="'SF Mono', 'Cascadia Code', 'Fira Code', monospace">VCC</text>
<line x1="92.0" y1="99.0" x2="150.0" y2="99.0" stroke="#e53935" stroke-width="2" stroke-linecap="round" opacity="0.8"/>
<line x1="150.0" y1="99.0" x2="150.0" y2="94.0" stroke="#e53935" stroke-width="2" stroke-linecap="round" opacity="0.8"/>
<circle cx="92.0" cy="113.0" r="2.5" fill="white" stroke="#1565c0" stroke-width="0.8"/>
<text x="84.0" y="116.0" font-size="6" fill="#ddd" font-weight="600" text-anchor="end" font-family="'SF Mono', 'Cascadia Code', 'Fira Code', monospace">OUT</text>
<line x1="92.0" y1="113.0" x2="150.0" y2="113.0" stroke="#1565c0" stroke-width="2" stroke-linecap="round" opacity="0.8"/>
<line x1="150.0" y1="113.0" x2="150.0" y2="108.0" stroke="#1565c0" stroke-width="2" stroke-linecap="round" opacity="0.8"/>
<circle cx="92.0" cy="127.0" r="2.5" fill="white" stroke="#1565c0" stroke-width="0.8"/>
<text x="84.0" y="130.0" font-size="6" fill="#ddd" font-weight="600" text-anchor="end" font-family="'SF Mono', 'Cascadia Code', 'Fira Code', monospace">GND</text>
<line x1="92.0" y1="127.0" x2="150.0" y2="127.0" stroke="#333333" stroke-width="2" stroke-linecap="round" opacity="0.8"/>
<line x1="150.0" y1="127.0" x2="150.0" y2="122.0" stroke="#333333" stroke-width="2" stroke-linecap="round" opacity="0.8"/>
<line x1="36.0" y1="94.0" x2="150.0" y2="94.0" stroke="#e53935" stroke-width="2" stroke-linecap="round" opacity="0.8"/>
<rect x="4.0" y="88.0" width="32.0" height="12.0" rx="4" fill="#e53935" opacity="0.92"/>
<text x="8.0" y="97.0" font-size="8" fill="white" font-weight="600" font-family="system-ui, -apple-system, 'Segoe UI', sans-serif">5V</text>
<line x1="39.5" y1="108.0" x2="150.0" y2="108.0" stroke="#ff6f00" stroke-width="2" stroke-linecap="round" opacity="0.8"/>
<rect x="4.0" y="102.0" width="35.5" height="12.0" rx="4" fill="#ff6f00" opacity="0.92"/>
<text x="8.0" y="111.0" font-size="8" fill="white" font-weight="600" font-family="system-ui, -apple-system, 'Segoe UI', sans-serif">Pin 2</text>
<line x1="36.0" y1="122.0" x2="150.0" y2="122.0" stroke="#333333" stroke-width="2" stroke-linecap="round" opacity="0.8"/>
<rect x="4.0" y="116.0" width="32.0" height="12.0" rx="4" fill="#333333" opacity="0.92"/>
<text x="8.0" y="125.0" font-size="8" fill="white" font-weight="600" font-family="system-ui, -apple-system, 'Segoe UI', sans-serif">GND</text>
<text x="108.0" y="196.0" font-size="8" fill="#999" font-weight="600" letter-spacing="0.5" font-family="system-ui, -apple-system, 'Segoe UI', sans-serif">COMPONENTS</text>
<circle cx="113.0" cy="207.0" r="4.0" fill="#1565c0" stroke="#0002" stroke-width="0.5"/>
<text x="122.0" y="210.0" font-size="9" fill="#444" font-family="system-ui, -apple-system, 'Segoe UI', sans-serif">HC-SR501 PIR</text>
<text x="108.0" y="231.0" font-size="8" fill="#999" font-weight="600" letter-spacing="0.5" font-family="system-ui, -apple-system, 'Segoe UI', sans-serif">WIRES</text>
<line x1="109.0" y1="242.0" x2="118.0" y2="242.0" stroke="#e53935" stroke-width="3" stroke-linecap="round"/>
<text x="124.0" y="245.0" font-size="9" fill="#444" font-family="system-ui, -apple-system, 'Segoe UI', sans-serif">power — HERO XL 5V</text>
<line x1="109.0" y1="257.0" x2="118.0" y2="257.0" stroke="#ff6f00" stroke-width="3" stroke-linecap="round"/>
<text x="124.0" y="260.0" font-size="9" fill="#444" font-family="system-ui, -apple-system, 'Segoe UI', sans-serif">signal — HERO XL Pin 2</text>
<line x1="109.0" y1="272.0" x2="118.0" y2="272.0" stroke="#333333" stroke-width="3" stroke-linecap="round"/>
<text x="124.0" y="275.0" font-size="9" fill="#444" font-family="system-ui, -apple-system, 'Segoe UI', sans-serif">ground — HERO XL GND</text>
<text x="220.0" y="18.0" font-size="13" fill="#222" font-weight="700" text-anchor="middle" font-family="system-ui, -apple-system, 'Segoe UI', sans-serif">PIR Motion Sensor — Motion Detection</text>
<text x="220.0" y="30.0" font-size="9" fill="#999" text-anchor="middle" font-family="system-ui, -apple-system, 'Segoe UI', sans-serif">rows 7–15 of 63</text>
</svg>