<?xml version="1.0" encoding="UTF-8"?>
<svg xmlns="http://www.w3.org/2000/svg"
     viewBox="0 0 312 415"
     width="312" height="415"
     style="background:#fff">
<rect x="70.0" y="42.0" width="224.0" height="206.0" rx="8" fill="#00000015"/>
<rect x="68.0" y="40.0" width="224.0" height="206.0" rx="8" fill="#e8dcc8" stroke="#b8a88a" stroke-width="1.2"/>
<rect x="173.0" y="44.0" width="14.0" height="198.0" rx="2" fill="#d4c8b0" stroke="#c4b898" stroke-width="0.4"/>
<line x1="80.0" y1="44.0" x2="80.0" y2="242.0" stroke="#d32f2f" stroke-width="1.2" opacity="0.2" stroke-dasharray="3,5"/>
<line x1="90.0" y1="44.0" x2="90.0" y2="242.0" stroke="#1565c0" stroke-width="1.2" opacity="0.2" stroke-dasharray="3,5"/>
<line x1="270.0" y1="44.0" x2="270.0" y2="242.0" stroke="#d32f2f" stroke-width="1.2" opacity="0.2" stroke-dasharray="3,5"/>
<line x1="280.0" y1="44.0" x2="280.0" y2="242.0" stroke="#1565c0" stroke-width="1.2" opacity="0.2" stroke-dasharray="3,5"/>
<rect x="105.0" y="89.0" width="66.0" height="10.0" rx="3" fill="#ffeaa7" opacity="0.25"/>
<rect x="189.0" y="89.0" width="66.0" height="10.0" rx="3" fill="#ffeaa7" opacity="0.25"/>
<rect x="105.0" y="103.0" width="66.0" height="10.0" rx="3" fill="#ffeaa7" opacity="0.25"/>
<rect x="189.0" y="103.0" width="66.0" height="10.0" rx="3" fill="#ffeaa7" opacity="0.25"/>
<rect x="105.0" y="117.0" width="66.0" height="10.0" rx="3" fill="#ffeaa7" opacity="0.25"/>
<rect x="189.0" y="117.0" width="66.0" height="10.0" rx="3" fill="#ffeaa7" opacity="0.25"/>
<rect x="105.0" y="131.0" width="66.0" height="10.0" rx="3" fill="#ffeaa7" opacity="0.25"/>
<rect x="189.0" y="131.0" width="66.0" height="10.0" rx="3" fill="#ffeaa7" opacity="0.25"/>
<rect x="105.0" y="145.0" width="66.0" height="10.0" rx="3" fill="#ffeaa7" opacity="0.25"/>
<rect x="189.0" y="145.0" width="66.0" height="10.0" rx="3" fill="#ffeaa7" opacity="0.25"/>
<rect x="105.0" y="159.0" width="66.0" height="10.0" rx="3" fill="#ffeaa7" opacity="0.25"/>
<rect x="189.0" y="159.0" width="66.0" height="10.0" rx="3" fill="#ffeaa7" opacity="0.25"/>
<rect x="105.0" y="187.0" width="66.0" height="10.0" rx="3" fill="#ffeaa7" opacity="0.25"/>
<rect x="189.0" y="187.0" width="66.0" height="10.0" rx="3" fill="#ffeaa7" opacity="0.25"/>
<circle cx="110.0" cy="52.0" r="3.0" fill="#2a2a2a"/>
<circle cx="110.0" cy="66.0" r="3.0" fill="#2a2a2a"/>
<circle cx="110.0" cy="80.0" r="3.0" fill="#2a2a2a"/>
<circle cx="110.0" cy="94.0" r="3.0" fill="#666"/>
<circle cx="110.0" cy="108.0" r="3.0" fill="#666"/>
<circle cx="110.0" cy="122.0" r="3.0" fill="#666"/>
<circle cx="110.0" cy="136.0" r="3.0" fill="#2a2a2a"/>
<circle cx="110.0" cy="150.0" r="3.0" fill="#666"/>
<circle cx="110.0" cy="164.0" r="3.0" fill="#2a2a2a"/>
<circle cx="110.0" cy="178.0" r="3.0" fill="#2a2a2a"/>
<circle cx="110.0" cy="192.0" r="3.0" fill="#2a2a2a"/>
<circle cx="110.0" cy="206.0" r="3.0" fill="#2a2a2a"/>
<circle cx="110.0" cy="220.0" r="3.0" fill="#2a2a2a"/>
<circle cx="110.0" cy="234.0" r="3.0" fill="#2a2a2a"/>
<circle cx="124.0" cy="52.0" r="3.0" fill="#2a2a2a"/>
<circle cx="124.0" cy="66.0" r="3.0" fill="#2a2a2a"/>
<circle cx="124.0" cy="80.0" r="3.0" fill="#2a2a2a"/>
<circle cx="124.0" cy="94.0" r="3.0" fill="#2a2a2a"/>
<circle cx="124.0" cy="108.0" r="3.0" fill="#2a2a2a"/>
<circle cx="124.0" cy="122.0" r="3.0" fill="#2a2a2a"/>
<circle cx="124.0" cy="136.0" r="3.0" fill="#2a2a2a"/>
<circle cx="124.0" cy="150.0" r="3.0" fill="#2a2a2a"/>
<circle cx="124.0" cy="164.0" r="3.0" fill="#2a2a2a"/>
<circle cx="124.0" cy="178.0" r="3.0" fill="#2a2a2a"/>
<circle cx="124.0" cy="192.0" r="3.0" fill="#2a2a2a"/>
<circle cx="124.0" cy="206.0" r="3.0" fill="#2a2a2a"/>
<circle cx="124.0" cy="220.0" r="3.0" fill="#2a2a2a"/>
<circle cx="124.0" cy="234.0" r="3.0" fill="#2a2a2a"/>
<circle cx="138.0" cy="52.0" r="3.0" fill="#2a2a2a"/>
<circle cx="138.0" cy="66.0" r="3.0" fill="#2a2a2a"/>
<circle cx="138.0" cy="80.0" r="3.0" fill="#2a2a2a"/>
<circle cx="138.0" cy="94.0" r="3.0" fill="#2a2a2a"/>
<circle cx="138.0" cy="108.0" r="3.0" fill="#2a2a2a"/>
<circle cx="138.0" cy="122.0" r="3.0" fill="#2a2a2a"/>
<circle cx="138.0" cy="136.0" r="3.0" fill="#2a2a2a"/>
<circle cx="138.0" cy="150.0" r="3.0" fill="#2a2a2a"/>
<circle cx="138.0" cy="164.0" r="3.0" fill="#2a2a2a"/>
<circle cx="138.0" cy="178.0" r="3.0" fill="#2a2a2a"/>
<circle cx="138.0" cy="192.0" r="3.0" fill="#2a2a2a"/>
<circle cx="138.0" cy="206.0" r="3.0" fill="#2a2a2a"/>
<circle cx="138.0" cy="220.0" r="3.0" fill="#2a2a2a"/>
<circle cx="138.0" cy="234.0" r="3.0" fill="#2a2a2a"/>
<circle cx="152.0" cy="52.0" r="3.0" fill="#2a2a2a"/>
<circle cx="152.0" cy="66.0" r="3.0" fill="#2a2a2a"/>
<circle cx="152.0" cy="80.0" r="3.0" fill="#2a2a2a"/>
<circle cx="152.0" cy="94.0" r="3.0" fill="#666"/>
<circle cx="152.0" cy="108.0" r="3.0" fill="#666"/>
<circle cx="152.0" cy="122.0" r="3.0" fill="#666"/>
<circle cx="152.0" cy="136.0" r="3.0" fill="#666"/>
<circle cx="152.0" cy="150.0" r="3.0" fill="#2a2a2a"/>
<circle cx="152.0" cy="164.0" r="3.0" fill="#666"/>
<circle cx="152.0" cy="178.0" r="3.0" fill="#2a2a2a"/>
<circle cx="152.0" cy="192.0" r="3.0" fill="#666"/>
<circle cx="152.0" cy="206.0" r="3.0" fill="#2a2a2a"/>
<circle cx="152.0" cy="220.0" r="3.0" fill="#2a2a2a"/>
<circle cx="152.0" cy="234.0" r="3.0" fill="#2a2a2a"/>
<circle cx="166.0" cy="52.0" r="3.0" fill="#2a2a2a"/>
<circle cx="166.0" cy="66.0" r="3.0" fill="#2a2a2a"/>
<circle cx="166.0" cy="80.0" r="3.0" fill="#2a2a2a"/>
<circle cx="166.0" cy="94.0" r="3.0" fill="#2a2a2a"/>
<circle cx="166.0" cy="108.0" r="3.0" fill="#2a2a2a"/>
<circle cx="166.0" cy="122.0" r="3.0" fill="#2a2a2a"/>
<circle cx="166.0" cy="136.0" r="3.0" fill="#2a2a2a"/>
<circle cx="166.0" cy="150.0" r="3.0" fill="#2a2a2a"/>
<circle cx="166.0" cy="164.0" r="3.0" fill="#2a2a2a"/>
<circle cx="166.0" cy="178.0" r="3.0" fill="#2a2a2a"/>
<circle cx="166.0" cy="192.0" r="3.0" fill="#2a2a2a"/>
<circle cx="166.0" cy="206.0" r="3.0" fill="#2a2a2a"/>
<circle cx="166.0" cy="220.0" r="3.0" fill="#2a2a2a"/>
<circle cx="166.0" cy="234.0" r="3.0" fill="#2a2a2a"/>
<circle cx="194.0" cy="52.0" r="3.0" fill="#2a2a2a"/>
<circle cx="194.0" cy="66.0" r="3.0" fill="#2a2a2a"/>
<circle cx="194.0" cy="80.0" r="3.0" fill="#2a2a2a"/>
<circle cx="194.0" cy="94.0" r="3.0" fill="#2a2a2a"/>
<circle cx="194.0" cy="108.0" r="3.0" fill="#2a2a2a"/>
<circle cx="194.0" cy="122.0" r="3.0" fill="#2a2a2a"/>
<circle cx="194.0" cy="136.0" r="3.0" fill="#2a2a2a"/>
<circle cx="194.0" cy="150.0" r="3.0" fill="#2a2a2a"/>
<circle cx="194.0" cy="164.0" r="3.0" fill="#2a2a2a"/>
<circle cx="194.0" cy="178.0" r="3.0" fill="#2a2a2a"/>
<circle cx="194.0" cy="192.0" r="3.0" fill="#2a2a2a"/>
<circle cx="194.0" cy="206.0" r="3.0" fill="#2a2a2a"/>
<circle cx="194.0" cy="220.0" r="3.0" fill="#2a2a2a"/>
<circle cx="194.0" cy="234.0" r="3.0" fill="#2a2a2a"/>
<circle cx="208.0" cy="52.0" r="3.0" fill="#2a2a2a"/>
<circle cx="208.0" cy="66.0" r="3.0" fill="#2a2a2a"/>
<circle cx="208.0" cy="80.0" r="3.0" fill="#2a2a2a"/>
<circle cx="208.0" cy="94.0" r="3.0" fill="#2a2a2a"/>
<circle cx="208.0" cy="108.0" r="3.0" fill="#2a2a2a"/>
<circle cx="208.0" cy="122.0" r="3.0" fill="#2a2a2a"/>
<circle cx="208.0" cy="136.0" r="3.0" fill="#2a2a2a"/>
<circle cx="208.0" cy="150.0" r="3.0" fill="#2a2a2a"/>
<circle cx="208.0" cy="164.0" r="3.0" fill="#2a2a2a"/>
<circle cx="208.0" cy="178.0" r="3.0" fill="#2a2a2a"/>
<circle cx="208.0" cy="192.0" r="3.0" fill="#2a2a2a"/>
<circle cx="208.0" cy="206.0" r="3.0" fill="#2a2a2a"/>
<circle cx="208.0" cy="220.0" r="3.0" fill="#2a2a2a"/>
<circle cx="208.0" cy="234.0" r="3.0" fill="#2a2a2a"/>
<circle cx="222.0" cy="52.0" r="3.0" fill="#2a2a2a"/>
<circle cx="222.0" cy="66.0" r="3.0" fill="#2a2a2a"/>
<circle cx="222.0" cy="80.0" r="3.0" fill="#2a2a2a"/>
<circle cx="222.0" cy="94.0" r="3.0" fill="#2a2a2a"/>
<circle cx="222.0" cy="108.0" r="3.0" fill="#2a2a2a"/>
<circle cx="222.0" cy="122.0" r="3.0" fill="#2a2a2a"/>
<circle cx="222.0" cy="136.0" r="3.0" fill="#2a2a2a"/>
<circle cx="222.0" cy="150.0" r="3.0" fill="#2a2a2a"/>
<circle cx="222.0" cy="164.0" r="3.0" fill="#2a2a2a"/>
<circle cx="222.0" cy="178.0" r="3.0" fill="#2a2a2a"/>
<circle cx="222.0" cy="192.0" r="3.0" fill="#2a2a2a"/>
<circle cx="222.0" cy="206.0" r="3.0" fill="#2a2a2a"/>
<circle cx="222.0" cy="220.0" r="3.0" fill="#2a2a2a"/>
<circle cx="222.0" cy="234.0" r="3.0" fill="#2a2a2a"/>
<circle cx="236.0" cy="52.0" r="3.0" fill="#2a2a2a"/>
<circle cx="236.0" cy="66.0" r="3.0" fill="#2a2a2a"/>
<circle cx="236.0" cy="80.0" r="3.0" fill="#2a2a2a"/>
<circle cx="236.0" cy="94.0" r="3.0" fill="#2a2a2a"/>
<circle cx="236.0" cy="108.0" r="3.0" fill="#2a2a2a"/>
<circle cx="236.0" cy="122.0" r="3.0" fill="#2a2a2a"/>
<circle cx="236.0" cy="136.0" r="3.0" fill="#2a2a2a"/>
<circle cx="236.0" cy="150.0" r="3.0" fill="#2a2a2a"/>
<circle cx="236.0" cy="164.0" r="3.0" fill="#2a2a2a"/>
<circle cx="236.0" cy="178.0" r="3.0" fill="#2a2a2a"/>
<circle cx="236.0" cy="192.0" r="3.0" fill="#2a2a2a"/>
<circle cx="236.0" cy="206.0" r="3.0" fill="#2a2a2a"/>
<circle cx="236.0" cy="220.0" r="3.0" fill="#2a2a2a"/>
<circle cx="236.0" cy="234.0" r="3.0" fill="#2a2a2a"/>
<circle cx="250.0" cy="52.0" r="3.0" fill="#2a2a2a"/>
<circle cx="250.0" cy="66.0" r="3.0" fill="#2a2a2a"/>
<circle cx="250.0" cy="80.0" r="3.0" fill="#2a2a2a"/>
<circle cx="250.0" cy="94.0" r="3.0" fill="#2a2a2a"/>
<circle cx="250.0" cy="108.0" r="3.0" fill="#2a2a2a"/>
<circle cx="250.0" cy="122.0" r="3.0" fill="#2a2a2a"/>
<circle cx="250.0" cy="136.0" r="3.0" fill="#2a2a2a"/>
<circle cx="250.0" cy="150.0" r="3.0" fill="#2a2a2a"/>
<circle cx="250.0" cy="164.0" r="3.0" fill="#2a2a2a"/>
<circle cx="250.0" cy="178.0" r="3.0" fill="#2a2a2a"/>
<circle cx="250.0" cy="192.0" r="3.0" fill="#2a2a2a"/>
<circle cx="250.0" cy="206.0" r="3.0" fill="#2a2a2a"/>
<circle cx="250.0" cy="220.0" r="3.0" fill="#2a2a2a"/>
<circle cx="250.0" cy="234.0" r="3.0" fill="#2a2a2a"/>
<circle cx="80.0" cy="52.0" r="2.5" fill="#2a2a2a"/>
<circle cx="80.0" cy="66.0" r="2.5" fill="#2a2a2a"/>
<circle cx="80.0" cy="80.0" r="2.5" fill="#2a2a2a"/>
<circle cx="80.0" cy="94.0" r="2.5" fill="#2a2a2a"/>
<circle cx="80.0" cy="122.0" r="2.5" fill="#2a2a2a"/>
<circle cx="80.0" cy="136.0" r="2.5" fill="#2a2a2a"/>
<circle cx="80.0" cy="150.0" r="2.5" fill="#2a2a2a"/>
<circle cx="80.0" cy="164.0" r="2.5" fill="#2a2a2a"/>
<circle cx="80.0" cy="178.0" r="2.5" fill="#2a2a2a"/>
<circle cx="80.0" cy="206.0" r="2.5" fill="#2a2a2a"/>
<circle cx="80.0" cy="220.0" r="2.5" fill="#2a2a2a"/>
<circle cx="80.0" cy="234.0" r="2.5" fill="#2a2a2a"/>
<circle cx="90.0" cy="52.0" r="2.5" fill="#2a2a2a"/>
<circle cx="90.0" cy="66.0" r="2.5" fill="#2a2a2a"/>
<circle cx="90.0" cy="80.0" r="2.5" fill="#2a2a2a"/>
<circle cx="90.0" cy="94.0" r="2.5" fill="#2a2a2a"/>
<circle cx="90.0" cy="122.0" r="2.5" fill="#2a2a2a"/>
<circle cx="90.0" cy="136.0" r="2.5" fill="#2a2a2a"/>
<circle cx="90.0" cy="150.0" r="2.5" fill="#2a2a2a"/>
<circle cx="90.0" cy="164.0" r="2.5" fill="#2a2a2a"/>
<circle cx="90.0" cy="178.0" r="2.5" fill="#2a2a2a"/>
<circle cx="90.0" cy="206.0" r="2.5" fill="#2a2a2a"/>
<circle cx="90.0" cy="220.0" r="2.5" fill="#2a2a2a"/>
<circle cx="90.0" cy="234.0" r="2.5" fill="#2a2a2a"/>
<circle cx="270.0" cy="52.0" r="2.5" fill="#2a2a2a"/>
<circle cx="270.0" cy="66.0" r="2.5" fill="#2a2a2a"/>
<circle cx="270.0" cy="80.0" r="2.5" fill="#2a2a2a"/>
<circle cx="270.0" cy="94.0" r="2.5" fill="#2a2a2a"/>
<circle cx="270.0" cy="122.0" r="2.5" fill="#2a2a2a"/>
<circle cx="270.0" cy="136.0" r="2.5" fill="#2a2a2a"/>
<circle cx="270.0" cy="150.0" r="2.5" fill="#2a2a2a"/>
<circle cx="270.0" cy="164.0" r="2.5" fill="#2a2a2a"/>
<circle cx="270.0" cy="178.0" r="2.5" fill="#2a2a2a"/>
<circle cx="270.0" cy="206.0" r="2.5" fill="#2a2a2a"/>
<circle cx="270.0" cy="220.0" r="2.5" fill="#2a2a2a"/>
<circle cx="270.0" cy="234.0" r="2.5" fill="#2a2a2a"/>
<circle cx="280.0" cy="52.0" r="2.5" fill="#2a2a2a"/>
<circle cx="280.0" cy="66.0" r="2.5" fill="#2a2a2a"/>
<circle cx="280.0" cy="80.0" r="2.5" fill="#2a2a2a"/>
<circle cx="280.0" cy="94.0" r="2.5" fill="#2a2a2a"/>
<circle cx="280.0" cy="122.0" r="2.5" fill="#2a2a2a"/>
<circle cx="280.0" cy="136.0" r="2.5" fill="#2a2a2a"/>
<circle cx="280.0" cy="150.0" r="2.5" fill="#2a2a2a"/>
<circle cx="280.0" cy="164.0" r="2.5" fill="#2a2a2a"/>
<circle cx="280.0" cy="178.0" r="2.5" fill="#2a2a2a"/>
<circle cx="280.0" cy="206.0" r="2.5" fill="#2a2a2a"/>
<circle cx="280.0" cy="220.0" r="2.5" fill="#2a2a2a"/>
<circle cx="280.0" cy="234.0" r="2.5" fill="#2a2a2a"/>
<text x="110.0" y="36.0" font-size="9" fill="#666" text-anchor="middle" font-family="'SF Mono', 'Cascadia Code', 'Fira Code', monospace">a</text>
<text x="124.0" y="36.0" font-size="9" fill="#666" text-anchor="middle" font-family="'SF Mono', 'Cascadia Code', 'Fira Code', monospace">b</text>
<text x="138.0" y="36.0" font-size="9" fill="#666" text-anchor="middle" font-family="'SF Mono', 'Cascadia Code', 'Fira Code', monospace">c</text>
<text x="152.0" y="36.0" font-size="9" fill="#666" text-anchor="middle" font-family="'SF Mono', 'Cascadia Code', 'Fira Code', monospace">d</text>
<text x="166.0" y="36.0" font-size="9" fill="#666" text-anchor="middle" font-family="'SF Mono', 'Cascadia Code', 'Fira Code', monospace">e</text>
<text x="194.0" y="36.0" font-size="9" fill="#666" text-anchor="middle" font-family="'SF Mono', 'Cascadia Code', 'Fira Code', monospace">f</text>
<text x="208.0" y="36.0" font-size="9" fill="#666" text-anchor="middle" font-family="'SF Mono', 'Cascadia Code', 'Fira Code', monospace">g</text>
<text x="222.0" y="36.0" font-size="9" fill="#666" text-anchor="middle" font-family="'SF Mono', 'Cascadia Code', 'Fira Code', monospace">h</text>
<text x="236.0" y="36.0" font-size="9" fill="#666" text-anchor="middle" font-family="'SF Mono', 'Cascadia Code', 'Fira Code', monospace">i</text>
<text x="250.0" y="36.0" font-size="9" fill="#666" text-anchor="middle" font-family="'SF Mono', 'Cascadia Code', 'Fira Code', monospace">j</text>
<text x="80.0" y="36.0" font-size="10" fill="#d32f2f" font-weight="bold" text-anchor="middle" font-family="system-ui, -apple-system, 'Segoe UI', sans-serif">+</text>
<text x="90.0" y="36.0" font-size="10" fill="#1565c0" font-weight="bold" text-anchor="middle" font-family="system-ui, -apple-system, 'Segoe UI', sans-serif">–</text>
<text x="270.0" y="36.0" font-size="10" fill="#d32f2f" font-weight="bold" text-anchor="middle" font-family="system-ui, -apple-system, 'Segoe UI', sans-serif">+</text>
<text x="280.0" y="36.0" font-size="10" fill="#1565c0" font-weight="bold" text-anchor="middle" font-family="system-ui, -apple-system, 'Segoe UI', sans-serif">–</text>
<text x="100.0" y="55.5" font-size="8" fill="#666" text-anchor="middle" font-family="'SF Mono', 'Cascadia Code', 'Fira Code', monospace">4</text>
<text x="260.0" y="55.5" font-size="8" fill="#666" text-anchor="middle" font-family="'SF Mono', 'Cascadia Code', 'Fira Code', monospace">4</text>
<text x="100.0" y="69.5" font-size="8" fill="#666" text-anchor="middle" font-family="'SF Mono', 'Cascadia Code', 'Fira Code', monospace">5</text>
<text x="260.0" y="69.5" font-size="8" fill="#666" text-anchor="middle" font-family="'SF Mono', 'Cascadia Code', 'Fira Code', monospace">5</text>
<text x="100.0" y="83.5" font-size="8" fill="#666" text-anchor="middle" font-family="'SF Mono', 'Cascadia Code', 'Fira Code', monospace">6</text>
<text x="260.0" y="83.5" font-size="8" fill="#666" text-anchor="middle" font-family="'SF Mono', 'Cascadia Code', 'Fira Code', monospace">6</text>
<text x="100.0" y="97.5" font-size="8" fill="#666" text-anchor="middle" font-family="'SF Mono', 'Cascadia Code', 'Fira Code', monospace">7</text>
<text x="260.0" y="97.5" font-size="8" fill="#666" text-anchor="middle" font-family="'SF Mono', 'Cascadia Code', 'Fira Code', monospace">7</text>
<text x="100.0" y="111.5" font-size="8" fill="#666" text-anchor="middle" font-family="'SF Mono', 'Cascadia Code', 'Fira Code', monospace">8</text>
<text x="260.0" y="111.5" font-size="8" fill="#666" text-anchor="middle" font-family="'SF Mono', 'Cascadia Code', 'Fira Code', monospace">8</text>
<text x="100.0" y="125.5" font-size="8" fill="#666" text-anchor="middle" font-family="'SF Mono', 'Cascadia Code', 'Fira Code', monospace">9</text>
<text x="260.0" y="125.5" font-size="8" fill="#666" text-anchor="middle" font-family="'SF Mono', 'Cascadia Code', 'Fira Code', monospace">9</text>
<text x="100.0" y="139.5" font-size="8" fill="#666" text-anchor="middle" font-family="'SF Mono', 'Cascadia Code', 'Fira Code', monospace">10</text>
<text x="260.0" y="139.5" font-size="8" fill="#666" text-anchor="middle" font-family="'SF Mono', 'Cascadia Code', 'Fira Code', monospace">10</text>
<text x="100.0" y="153.5" font-size="8" fill="#666" text-anchor="middle" font-family="'SF Mono', 'Cascadia Code', 'Fira Code', monospace">11</text>
<text x="260.0" y="153.5" font-size="8" fill="#666" text-anchor="middle" font-family="'SF Mono', 'Cascadia Code', 'Fira Code', monospace">11</text>
<text x="100.0" y="167.5" font-size="8" fill="#666" text-anchor="middle" font-family="'SF Mono', 'Cascadia Code', 'Fira Code', monospace">12</text>
<text x="260.0" y="167.5" font-size="8" fill="#666" text-anchor="middle" font-family="'SF Mono', 'Cascadia Code', 'Fira Code', monospace">12</text>
<text x="100.0" y="181.5" font-size="8" fill="#666" text-anchor="middle" font-family="'SF Mono', 'Cascadia Code', 'Fira Code', monospace">13</text>
<text x="260.0" y="181.5" font-size="8" fill="#666" text-anchor="middle" font-family="'SF Mono', 'Cascadia Code', 'Fira Code', monospace">13</text>
<text x="100.0" y="195.5" font-size="8" fill="#666" text-anchor="middle" font-family="'SF Mono', 'Cascadia Code', 'Fira Code', monospace">14</text>
<text x="260.0" y="195.5" font-size="8" fill="#666" text-anchor="middle" font-family="'SF Mono', 'Cascadia Code', 'Fira Code', monospace">14</text>
<text x="100.0" y="209.5" font-size="8" fill="#666" text-anchor="middle" font-family="'SF Mono', 'Cascadia Code', 'Fira Code', monospace">15</text>
<text x="260.0" y="209.5" font-size="8" fill="#666" text-anchor="middle" font-family="'SF Mono', 'Cascadia Code', 'Fira Code', monospace">15</text>
<text x="100.0" y="223.5" font-size="8" fill="#666" text-anchor="middle" font-family="'SF Mono', 'Cascadia Code', 'Fira Code', monospace">16</text>
<text x="260.0" y="223.5" font-size="8" fill="#666" text-anchor="middle" font-family="'SF Mono', 'Cascadia Code', 'Fira Code', monospace">16</text>
<text x="100.0" y="237.5" font-size="8" fill="#666" text-anchor="middle" font-family="'SF Mono', 'Cascadia Code', 'Fira Code', monospace">17</text>
<text x="260.0" y="237.5" font-size="8" fill="#666" text-anchor="middle" font-family="'SF Mono', 'Cascadia Code', 'Fira Code', monospace">17</text>
<line x1="152.0" y1="94.0" x2="152.0" y2="103.5" stroke="#999" stroke-width="1.5"/>
<line x1="152.0" y1="126.5" x2="152.0" y2="136.0" stroke="#999" stroke-width="1.5"/>
<rect x="-11.6" y="-4.5" width="23.1" height="9.0" rx="2.5" fill="#c8aa78" stroke="#9a7e50" stroke-width="0.8" transform="translate(152.0,115.0) rotate(90.0)"/>
<rect x="-8.2" y="-3.5" width="2.6" height="7.0" rx="0.3" fill="#FF0000" transform="translate(152.0,115.0) rotate(90.0)"/>
<rect x="-3.6" y="-3.5" width="2.6" height="7.0" rx="0.3" fill="#FF0000" transform="translate(152.0,115.0) rotate(90.0)"/>
<rect x="1.0" y="-3.5" width="2.6" height="7.0" rx="0.3" fill="#8B4513" transform="translate(152.0,115.0) rotate(90.0)"/>
<rect x="5.6" y="-3.5" width="2.6" height="7.0" rx="0.3" fill="#CFB53B" transform="translate(152.0,115.0) rotate(90.0)"/>
<line x1="152.0" y1="108.0" x2="152.0" y2="120.6" stroke="#999" stroke-width="1.5"/>
<line x1="152.0" y1="151.4" x2="152.0" y2="164.0" stroke="#999" stroke-width="1.5"/>
<rect x="-15.4" y="-4.5" width="30.8" height="9.0" rx="2.5" fill="#c8aa78" stroke="#9a7e50" stroke-width="0.8" transform="translate(152.0,136.0) rotate(90.0)"/>
<rect x="-10.5" y="-3.5" width="2.6" height="7.0" rx="0.3" fill="#FF0000" transform="translate(152.0,136.0) rotate(90.0)"/>
<rect x="-4.4" y="-3.5" width="2.6" height="7.0" rx="0.3" fill="#FF0000" transform="translate(152.0,136.0) rotate(90.0)"/>
<rect x="1.8" y="-3.5" width="2.6" height="7.0" rx="0.3" fill="#8B4513" transform="translate(152.0,136.0) rotate(90.0)"/>
<rect x="7.9" y="-3.5" width="2.6" height="7.0" rx="0.3" fill="#CFB53B" transform="translate(152.0,136.0) rotate(90.0)"/>
<line x1="152.0" y1="122.0" x2="152.0" y2="139.0" stroke="#999" stroke-width="1.5"/>
<line x1="152.0" y1="175.0" x2="152.0" y2="192.0" stroke="#999" stroke-width="1.5"/>
<rect x="-18.0" y="-4.5" width="36.0" height="9.0" rx="2.5" fill="#c8aa78" stroke="#9a7e50" stroke-width="0.8" transform="translate(152.0,157.0) rotate(90.0)"/>
<rect x="-12.1" y="-3.5" width="2.6" height="7.0" rx="0.3" fill="#FF0000" transform="translate(152.0,157.0) rotate(90.0)"/>
<rect x="-4.9" y="-3.5" width="2.6" height="7.0" rx="0.3" fill="#FF0000" transform="translate(152.0,157.0) rotate(90.0)"/>
<rect x="2.3" y="-3.5" width="2.6" height="7.0" rx="0.3" fill="#8B4513" transform="translate(152.0,157.0) rotate(90.0)"/>
<rect x="9.5" y="-3.5" width="2.6" height="7.0" rx="0.3" fill="#CFB53B" transform="translate(152.0,157.0) rotate(90.0)"/>
<line x1="51.0" y1="94.0" x2="110.0" y2="94.0" stroke="#e53935" stroke-width="2.8" stroke-linecap="round" opacity="0.8"/>
<rect x="4.0" y="85.0" width="47.0" height="18.0" rx="5" fill="#e53935" opacity="0.92"/>
<text x="10.0" y="98.0" font-size="10" fill="white" font-weight="600" font-family="system-ui, -apple-system, 'Segoe UI', sans-serif">Pin 7</text>
<line x1="51.0" y1="108.0" x2="110.0" y2="108.0" stroke="#43a047" stroke-width="2.8" stroke-linecap="round" opacity="0.8"/>
<rect x="4.0" y="99.0" width="47.0" height="18.0" rx="5" fill="#43a047" opacity="0.92"/>
<text x="10.0" y="112.0" font-size="10" fill="white" font-weight="600" font-family="system-ui, -apple-system, 'Segoe UI', sans-serif">Pin 6</text>
<line x1="51.0" y1="122.0" x2="110.0" y2="122.0" stroke="#1565c0" stroke-width="2.8" stroke-linecap="round" opacity="0.8"/>
<rect x="4.0" y="113.0" width="47.0" height="18.0" rx="5" fill="#1565c0" opacity="0.92"/>
<text x="10.0" y="126.0" font-size="10" fill="white" font-weight="600" font-family="system-ui, -apple-system, 'Segoe UI', sans-serif">Pin 5</text>
<line x1="44.0" y1="150.0" x2="110.0" y2="150.0" stroke="#333333" stroke-width="2.8" stroke-linecap="round" opacity="0.8"/>
<rect x="4.0" y="141.0" width="40.0" height="18.0" rx="5" fill="#333333" opacity="0.92"/>
<text x="10.0" y="154.0" font-size="10" fill="white" font-weight="600" font-family="system-ui, -apple-system, 'Segoe UI', sans-serif">GND</text>
<text x="68.0" y="266.0" font-size="8" fill="#999" font-weight="600" letter-spacing="0.5" font-family="system-ui, -apple-system, 'Segoe UI', sans-serif">COMPONENTS</text>
<circle cx="73.0" cy="277.0" r="4.0" fill="#c8aa78" stroke="#0002" stroke-width="0.5"/>
<text x="82.0" y="280.0" font-size="9" fill="#444" font-family="system-ui, -apple-system, 'Segoe UI', sans-serif">220Ω resistor  d7 → d10</text>
<circle cx="73.0" cy="292.0" r="4.0" fill="#c8aa78" stroke="#0002" stroke-width="0.5"/>
<text x="82.0" y="295.0" font-size="9" fill="#444" font-family="system-ui, -apple-system, 'Segoe UI', sans-serif">220Ω resistor  d8 → d12</text>
<circle cx="73.0" cy="307.0" r="4.0" fill="#c8aa78" stroke="#0002" stroke-width="0.5"/>
<text x="82.0" y="310.0" font-size="9" fill="#444" font-family="system-ui, -apple-system, 'Segoe UI', sans-serif">220Ω resistor  d9 → d14</text>
<text x="68.0" y="331.0" font-size="8" fill="#999" font-weight="600" letter-spacing="0.5" font-family="system-ui, -apple-system, 'Segoe UI', sans-serif">WIRES</text>
<line x1="69.0" y1="342.0" x2="78.0" y2="342.0" stroke="#e53935" stroke-width="3" stroke-linecap="round"/>
<text x="84.0" y="345.0" font-size="9" fill="#444" font-family="system-ui, -apple-system, 'Segoe UI', sans-serif">red — HERO XL Pin 7</text>
<line x1="69.0" y1="357.0" x2="78.0" y2="357.0" stroke="#43a047" stroke-width="3" stroke-linecap="round"/>
<text x="84.0" y="360.0" font-size="9" fill="#444" font-family="system-ui, -apple-system, 'Segoe UI', sans-serif">green — HERO XL Pin 6</text>
<line x1="69.0" y1="372.0" x2="78.0" y2="372.0" stroke="#1565c0" stroke-width="3" stroke-linecap="round"/>
<text x="84.0" y="375.0" font-size="9" fill="#444" font-family="system-ui, -apple-system, 'Segoe UI', sans-serif">blue — HERO XL Pin 5</text>
<line x1="69.0" y1="387.0" x2="78.0" y2="387.0" stroke="#333333" stroke-width="3" stroke-linecap="round"/>
<text x="84.0" y="390.0" font-size="9" fill="#444" font-family="system-ui, -apple-system, 'Segoe UI', sans-serif">common cathode — HERO XL GND</text>
<text x="180.0" y="18.0" font-size="13" fill="#222" font-weight="700" text-anchor="middle" font-family="system-ui, -apple-system, 'Segoe UI', sans-serif">RGB LED — Color Cycling</text>
<text x="180.0" y="30.0" font-size="9" fill="#999" text-anchor="middle" font-family="system-ui, -apple-system, 'Segoe UI', sans-serif">rows 4–17 of 63</text>
</svg>