<?xml version="1.0" encoding="UTF-8"?>
<svg xmlns="http://www.w3.org/2000/svg"
     viewBox="0 0 454 401"
     width="454" height="401"
     style="background:#fff">
<rect x="152.0" y="42.0" width="224.0" height="192.0" rx="8" fill="#00000015"/>
<rect x="150.0" y="40.0" width="224.0" height="192.0" rx="8" fill="#e8dcc8" stroke="#b8a88a" stroke-width="1.2"/>
<rect x="255.0" y="44.0" width="14.0" height="184.0" rx="2" fill="#d4c8b0" stroke="#c4b898" stroke-width="0.4"/>
<line x1="162.0" y1="44.0" x2="162.0" y2="228.0" stroke="#d32f2f" stroke-width="1.2" opacity="0.2" stroke-dasharray="3,5"/>
<line x1="172.0" y1="44.0" x2="172.0" y2="228.0" stroke="#1565c0" stroke-width="1.2" opacity="0.2" stroke-dasharray="3,5"/>
<line x1="352.0" y1="44.0" x2="352.0" y2="228.0" stroke="#d32f2f" stroke-width="1.2" opacity="0.2" stroke-dasharray="3,5"/>
<line x1="362.0" y1="44.0" x2="362.0" y2="228.0" stroke="#1565c0" stroke-width="1.2" opacity="0.2" stroke-dasharray="3,5"/>
<rect x="187.0" y="89.0" width="66.0" height="10.0" rx="3" fill="#ffeaa7" opacity="0.25"/>
<rect x="271.0" y="89.0" width="66.0" height="10.0" rx="3" fill="#ffeaa7" opacity="0.25"/>
<rect x="187.0" y="103.0" width="66.0" height="10.0" rx="3" fill="#ffeaa7" opacity="0.25"/>
<rect x="271.0" y="103.0" width="66.0" height="10.0" rx="3" fill="#ffeaa7" opacity="0.25"/>
<rect x="187.0" y="145.0" width="66.0" height="10.0" rx="3" fill="#ffeaa7" opacity="0.25"/>
<rect x="271.0" y="145.0" width="66.0" height="10.0" rx="3" fill="#ffeaa7" opacity="0.25"/>
<rect x="187.0" y="159.0" width="66.0" height="10.0" rx="3" fill="#ffeaa7" opacity="0.25"/>
<rect x="271.0" y="159.0" width="66.0" height="10.0" rx="3" fill="#ffeaa7" opacity="0.25"/>
<rect x="187.0" y="173.0" width="66.0" height="10.0" rx="3" fill="#ffeaa7" opacity="0.25"/>
<rect x="271.0" y="173.0" width="66.0" height="10.0" rx="3" fill="#ffeaa7" opacity="0.25"/>
<circle cx="192.0" cy="52.0" r="3.0" fill="#2a2a2a"/>
<circle cx="192.0" cy="66.0" r="3.0" fill="#2a2a2a"/>
<circle cx="192.0" cy="80.0" r="3.0" fill="#2a2a2a"/>
<circle cx="192.0" cy="94.0" r="3.0" fill="#666"/>
<circle cx="192.0" cy="108.0" r="3.0" fill="#666"/>
<circle cx="192.0" cy="122.0" r="3.0" fill="#2a2a2a"/>
<circle cx="192.0" cy="136.0" r="3.0" fill="#2a2a2a"/>
<circle cx="192.0" cy="150.0" r="3.0" fill="#666"/>
<circle cx="192.0" cy="164.0" r="3.0" fill="#666"/>
<circle cx="192.0" cy="178.0" r="3.0" fill="#666"/>
<circle cx="192.0" cy="192.0" r="3.0" fill="#2a2a2a"/>
<circle cx="192.0" cy="206.0" r="3.0" fill="#2a2a2a"/>
<circle cx="192.0" cy="220.0" r="3.0" fill="#2a2a2a"/>
<circle cx="206.0" cy="52.0" r="3.0" fill="#2a2a2a"/>
<circle cx="206.0" cy="66.0" r="3.0" fill="#2a2a2a"/>
<circle cx="206.0" cy="80.0" r="3.0" fill="#2a2a2a"/>
<circle cx="206.0" cy="94.0" r="3.0" fill="#2a2a2a"/>
<circle cx="206.0" cy="108.0" r="3.0" fill="#2a2a2a"/>
<circle cx="206.0" cy="122.0" r="3.0" fill="#2a2a2a"/>
<circle cx="206.0" cy="136.0" r="3.0" fill="#2a2a2a"/>
<circle cx="206.0" cy="150.0" r="3.0" fill="#2a2a2a"/>
<circle cx="206.0" cy="164.0" r="3.0" fill="#2a2a2a"/>
<circle cx="206.0" cy="178.0" r="3.0" fill="#2a2a2a"/>
<circle cx="206.0" cy="192.0" r="3.0" fill="#2a2a2a"/>
<circle cx="206.0" cy="206.0" r="3.0" fill="#2a2a2a"/>
<circle cx="206.0" cy="220.0" r="3.0" fill="#2a2a2a"/>
<circle cx="220.0" cy="52.0" r="3.0" fill="#2a2a2a"/>
<circle cx="220.0" cy="66.0" r="3.0" fill="#2a2a2a"/>
<circle cx="220.0" cy="80.0" r="3.0" fill="#2a2a2a"/>
<circle cx="220.0" cy="94.0" r="3.0" fill="#2a2a2a"/>
<circle cx="220.0" cy="108.0" r="3.0" fill="#2a2a2a"/>
<circle cx="220.0" cy="122.0" r="3.0" fill="#2a2a2a"/>
<circle cx="220.0" cy="136.0" r="3.0" fill="#2a2a2a"/>
<circle cx="220.0" cy="150.0" r="3.0" fill="#2a2a2a"/>
<circle cx="220.0" cy="164.0" r="3.0" fill="#2a2a2a"/>
<circle cx="220.0" cy="178.0" r="3.0" fill="#2a2a2a"/>
<circle cx="220.0" cy="192.0" r="3.0" fill="#2a2a2a"/>
<circle cx="220.0" cy="206.0" r="3.0" fill="#2a2a2a"/>
<circle cx="220.0" cy="220.0" r="3.0" fill="#2a2a2a"/>
<circle cx="234.0" cy="52.0" r="3.0" fill="#2a2a2a"/>
<circle cx="234.0" cy="66.0" r="3.0" fill="#2a2a2a"/>
<circle cx="234.0" cy="80.0" r="3.0" fill="#2a2a2a"/>
<circle cx="234.0" cy="94.0" r="3.0" fill="#2a2a2a"/>
<circle cx="234.0" cy="108.0" r="3.0" fill="#2a2a2a"/>
<circle cx="234.0" cy="122.0" r="3.0" fill="#2a2a2a"/>
<circle cx="234.0" cy="136.0" r="3.0" fill="#2a2a2a"/>
<circle cx="234.0" cy="150.0" r="3.0" fill="#2a2a2a"/>
<circle cx="234.0" cy="164.0" r="3.0" fill="#2a2a2a"/>
<circle cx="234.0" cy="178.0" r="3.0" fill="#2a2a2a"/>
<circle cx="234.0" cy="192.0" r="3.0" fill="#2a2a2a"/>
<circle cx="234.0" cy="206.0" r="3.0" fill="#2a2a2a"/>
<circle cx="234.0" cy="220.0" r="3.0" fill="#2a2a2a"/>
<circle cx="248.0" cy="52.0" r="3.0" fill="#2a2a2a"/>
<circle cx="248.0" cy="66.0" r="3.0" fill="#2a2a2a"/>
<circle cx="248.0" cy="80.0" r="3.0" fill="#2a2a2a"/>
<circle cx="248.0" cy="94.0" r="3.0" fill="#666"/>
<circle cx="248.0" cy="108.0" r="3.0" fill="#666"/>
<circle cx="248.0" cy="122.0" r="3.0" fill="#2a2a2a"/>
<circle cx="248.0" cy="136.0" r="3.0" fill="#2a2a2a"/>
<circle cx="248.0" cy="150.0" r="3.0" fill="#666"/>
<circle cx="248.0" cy="164.0" r="3.0" fill="#666"/>
<circle cx="248.0" cy="178.0" r="3.0" fill="#666"/>
<circle cx="248.0" cy="192.0" r="3.0" fill="#2a2a2a"/>
<circle cx="248.0" cy="206.0" r="3.0" fill="#2a2a2a"/>
<circle cx="248.0" cy="220.0" r="3.0" fill="#2a2a2a"/>
<circle cx="276.0" cy="52.0" r="3.0" fill="#2a2a2a"/>
<circle cx="276.0" cy="66.0" r="3.0" fill="#2a2a2a"/>
<circle cx="276.0" cy="80.0" r="3.0" fill="#2a2a2a"/>
<circle cx="276.0" cy="94.0" r="3.0" fill="#2a2a2a"/>
<circle cx="276.0" cy="108.0" r="3.0" fill="#2a2a2a"/>
<circle cx="276.0" cy="122.0" r="3.0" fill="#2a2a2a"/>
<circle cx="276.0" cy="136.0" r="3.0" fill="#2a2a2a"/>
<circle cx="276.0" cy="150.0" r="3.0" fill="#2a2a2a"/>
<circle cx="276.0" cy="164.0" r="3.0" fill="#2a2a2a"/>
<circle cx="276.0" cy="178.0" r="3.0" fill="#2a2a2a"/>
<circle cx="276.0" cy="192.0" r="3.0" fill="#2a2a2a"/>
<circle cx="276.0" cy="206.0" r="3.0" fill="#2a2a2a"/>
<circle cx="276.0" cy="220.0" r="3.0" fill="#2a2a2a"/>
<circle cx="290.0" cy="52.0" r="3.0" fill="#2a2a2a"/>
<circle cx="290.0" cy="66.0" r="3.0" fill="#2a2a2a"/>
<circle cx="290.0" cy="80.0" r="3.0" fill="#2a2a2a"/>
<circle cx="290.0" cy="94.0" r="3.0" fill="#2a2a2a"/>
<circle cx="290.0" cy="108.0" r="3.0" fill="#2a2a2a"/>
<circle cx="290.0" cy="122.0" r="3.0" fill="#2a2a2a"/>
<circle cx="290.0" cy="136.0" r="3.0" fill="#2a2a2a"/>
<circle cx="290.0" cy="150.0" r="3.0" fill="#2a2a2a"/>
<circle cx="290.0" cy="164.0" r="3.0" fill="#2a2a2a"/>
<circle cx="290.0" cy="178.0" r="3.0" fill="#2a2a2a"/>
<circle cx="290.0" cy="192.0" r="3.0" fill="#2a2a2a"/>
<circle cx="290.0" cy="206.0" r="3.0" fill="#2a2a2a"/>
<circle cx="290.0" cy="220.0" r="3.0" fill="#2a2a2a"/>
<circle cx="304.0" cy="52.0" r="3.0" fill="#2a2a2a"/>
<circle cx="304.0" cy="66.0" r="3.0" fill="#2a2a2a"/>
<circle cx="304.0" cy="80.0" r="3.0" fill="#2a2a2a"/>
<circle cx="304.0" cy="94.0" r="3.0" fill="#2a2a2a"/>
<circle cx="304.0" cy="108.0" r="3.0" fill="#2a2a2a"/>
<circle cx="304.0" cy="122.0" r="3.0" fill="#2a2a2a"/>
<circle cx="304.0" cy="136.0" r="3.0" fill="#2a2a2a"/>
<circle cx="304.0" cy="150.0" r="3.0" fill="#2a2a2a"/>
<circle cx="304.0" cy="164.0" r="3.0" fill="#2a2a2a"/>
<circle cx="304.0" cy="178.0" r="3.0" fill="#2a2a2a"/>
<circle cx="304.0" cy="192.0" r="3.0" fill="#2a2a2a"/>
<circle cx="304.0" cy="206.0" r="3.0" fill="#2a2a2a"/>
<circle cx="304.0" cy="220.0" r="3.0" fill="#2a2a2a"/>
<circle cx="318.0" cy="52.0" r="3.0" fill="#2a2a2a"/>
<circle cx="318.0" cy="66.0" r="3.0" fill="#2a2a2a"/>
<circle cx="318.0" cy="80.0" r="3.0" fill="#2a2a2a"/>
<circle cx="318.0" cy="94.0" r="3.0" fill="#2a2a2a"/>
<circle cx="318.0" cy="108.0" r="3.0" fill="#2a2a2a"/>
<circle cx="318.0" cy="122.0" r="3.0" fill="#2a2a2a"/>
<circle cx="318.0" cy="136.0" r="3.0" fill="#2a2a2a"/>
<circle cx="318.0" cy="150.0" r="3.0" fill="#2a2a2a"/>
<circle cx="318.0" cy="164.0" r="3.0" fill="#2a2a2a"/>
<circle cx="318.0" cy="178.0" r="3.0" fill="#2a2a2a"/>
<circle cx="318.0" cy="192.0" r="3.0" fill="#2a2a2a"/>
<circle cx="318.0" cy="206.0" r="3.0" fill="#2a2a2a"/>
<circle cx="318.0" cy="220.0" r="3.0" fill="#2a2a2a"/>
<circle cx="332.0" cy="52.0" r="3.0" fill="#2a2a2a"/>
<circle cx="332.0" cy="66.0" r="3.0" fill="#2a2a2a"/>
<circle cx="332.0" cy="80.0" r="3.0" fill="#2a2a2a"/>
<circle cx="332.0" cy="94.0" r="3.0" fill="#2a2a2a"/>
<circle cx="332.0" cy="108.0" r="3.0" fill="#2a2a2a"/>
<circle cx="332.0" cy="122.0" r="3.0" fill="#2a2a2a"/>
<circle cx="332.0" cy="136.0" r="3.0" fill="#2a2a2a"/>
<circle cx="332.0" cy="150.0" r="3.0" fill="#2a2a2a"/>
<circle cx="332.0" cy="164.0" r="3.0" fill="#2a2a2a"/>
<circle cx="332.0" cy="178.0" r="3.0" fill="#2a2a2a"/>
<circle cx="332.0" cy="192.0" r="3.0" fill="#2a2a2a"/>
<circle cx="332.0" cy="206.0" r="3.0" fill="#2a2a2a"/>
<circle cx="332.0" cy="220.0" r="3.0" fill="#2a2a2a"/>
<circle cx="162.0" cy="52.0" r="2.5" fill="#2a2a2a"/>
<circle cx="162.0" cy="80.0" r="2.5" fill="#2a2a2a"/>
<circle cx="162.0" cy="94.0" r="2.5" fill="#2a2a2a"/>
<circle cx="162.0" cy="108.0" r="2.5" fill="#2a2a2a"/>
<circle cx="162.0" cy="122.0" r="2.5" fill="#2a2a2a"/>
<circle cx="162.0" cy="136.0" r="2.5" fill="#2a2a2a"/>
<circle cx="162.0" cy="164.0" r="2.5" fill="#2a2a2a"/>
<circle cx="162.0" cy="178.0" r="2.5" fill="#2a2a2a"/>
<circle cx="162.0" cy="192.0" r="2.5" fill="#2a2a2a"/>
<circle cx="162.0" cy="206.0" r="2.5" fill="#2a2a2a"/>
<circle cx="162.0" cy="220.0" r="2.5" fill="#2a2a2a"/>
<circle cx="172.0" cy="52.0" r="2.5" fill="#2a2a2a"/>
<circle cx="172.0" cy="80.0" r="2.5" fill="#2a2a2a"/>
<circle cx="172.0" cy="94.0" r="2.5" fill="#2a2a2a"/>
<circle cx="172.0" cy="108.0" r="2.5" fill="#2a2a2a"/>
<circle cx="172.0" cy="122.0" r="2.5" fill="#2a2a2a"/>
<circle cx="172.0" cy="136.0" r="2.5" fill="#2a2a2a"/>
<circle cx="172.0" cy="164.0" r="2.5" fill="#2a2a2a"/>
<circle cx="172.0" cy="178.0" r="2.5" fill="#2a2a2a"/>
<circle cx="172.0" cy="192.0" r="2.5" fill="#2a2a2a"/>
<circle cx="172.0" cy="206.0" r="2.5" fill="#2a2a2a"/>
<circle cx="172.0" cy="220.0" r="2.5" fill="#2a2a2a"/>
<circle cx="352.0" cy="52.0" r="2.5" fill="#2a2a2a"/>
<circle cx="352.0" cy="80.0" r="2.5" fill="#2a2a2a"/>
<circle cx="352.0" cy="94.0" r="2.5" fill="#2a2a2a"/>
<circle cx="352.0" cy="108.0" r="2.5" fill="#2a2a2a"/>
<circle cx="352.0" cy="122.0" r="2.5" fill="#2a2a2a"/>
<circle cx="352.0" cy="136.0" r="2.5" fill="#2a2a2a"/>
<circle cx="352.0" cy="164.0" r="2.5" fill="#2a2a2a"/>
<circle cx="352.0" cy="178.0" r="2.5" fill="#2a2a2a"/>
<circle cx="352.0" cy="192.0" r="2.5" fill="#2a2a2a"/>
<circle cx="352.0" cy="206.0" r="2.5" fill="#2a2a2a"/>
<circle cx="352.0" cy="220.0" r="2.5" fill="#2a2a2a"/>
<circle cx="362.0" cy="52.0" r="2.5" fill="#2a2a2a"/>
<circle cx="362.0" cy="80.0" r="2.5" fill="#2a2a2a"/>
<circle cx="362.0" cy="94.0" r="2.5" fill="#2a2a2a"/>
<circle cx="362.0" cy="108.0" r="2.5" fill="#2a2a2a"/>
<circle cx="362.0" cy="122.0" r="2.5" fill="#2a2a2a"/>
<circle cx="362.0" cy="136.0" r="2.5" fill="#2a2a2a"/>
<circle cx="362.0" cy="164.0" r="2.5" fill="#2a2a2a"/>
<circle cx="362.0" cy="178.0" r="2.5" fill="#2a2a2a"/>
<circle cx="362.0" cy="192.0" r="2.5" fill="#2a2a2a"/>
<circle cx="362.0" cy="206.0" r="2.5" fill="#2a2a2a"/>
<circle cx="362.0" cy="220.0" r="2.5" fill="#2a2a2a"/>
<text x="192.0" y="36.0" font-size="9" fill="#666" text-anchor="middle" font-family="'SF Mono', 'Cascadia Code', 'Fira Code', monospace">a</text>
<text x="206.0" y="36.0" font-size="9" fill="#666" text-anchor="middle" font-family="'SF Mono', 'Cascadia Code', 'Fira Code', monospace">b</text>
<text x="220.0" y="36.0" font-size="9" fill="#666" text-anchor="middle" font-family="'SF Mono', 'Cascadia Code', 'Fira Code', monospace">c</text>
<text x="234.0" y="36.0" font-size="9" fill="#666" text-anchor="middle" font-family="'SF Mono', 'Cascadia Code', 'Fira Code', monospace">d</text>
<text x="248.0" y="36.0" font-size="9" fill="#666" text-anchor="middle" font-family="'SF Mono', 'Cascadia Code', 'Fira Code', monospace">e</text>
<text x="276.0" y="36.0" font-size="9" fill="#666" text-anchor="middle" font-family="'SF Mono', 'Cascadia Code', 'Fira Code', monospace">f</text>
<text x="290.0" y="36.0" font-size="9" fill="#666" text-anchor="middle" font-family="'SF Mono', 'Cascadia Code', 'Fira Code', monospace">g</text>
<text x="304.0" y="36.0" font-size="9" fill="#666" text-anchor="middle" font-family="'SF Mono', 'Cascadia Code', 'Fira Code', monospace">h</text>
<text x="318.0" y="36.0" font-size="9" fill="#666" text-anchor="middle" font-family="'SF Mono', 'Cascadia Code', 'Fira Code', monospace">i</text>
<text x="332.0" y="36.0" font-size="9" fill="#666" text-anchor="middle" font-family="'SF Mono', 'Cascadia Code', 'Fira Code', monospace">j</text>
<text x="162.0" y="36.0" font-size="10" fill="#d32f2f" font-weight="bold" text-anchor="middle" font-family="system-ui, -apple-system, 'Segoe UI', sans-serif">+</text>
<text x="172.0" y="36.0" font-size="10" fill="#1565c0" font-weight="bold" text-anchor="middle" font-family="system-ui, -apple-system, 'Segoe UI', sans-serif">–</text>
<text x="352.0" y="36.0" font-size="10" fill="#d32f2f" font-weight="bold" text-anchor="middle" font-family="system-ui, -apple-system, 'Segoe UI', sans-serif">+</text>
<text x="362.0" y="36.0" font-size="10" fill="#1565c0" font-weight="bold" text-anchor="middle" font-family="system-ui, -apple-system, 'Segoe UI', sans-serif">–</text>
<text x="182.0" y="55.5" font-size="8" fill="#666" text-anchor="middle" font-family="'SF Mono', 'Cascadia Code', 'Fira Code', monospace">7</text>
<text x="342.0" y="55.5" font-size="8" fill="#666" text-anchor="middle" font-family="'SF Mono', 'Cascadia Code', 'Fira Code', monospace">7</text>
<text x="182.0" y="69.5" font-size="8" fill="#666" text-anchor="middle" font-family="'SF Mono', 'Cascadia Code', 'Fira Code', monospace">8</text>
<text x="342.0" y="69.5" font-size="8" fill="#666" text-anchor="middle" font-family="'SF Mono', 'Cascadia Code', 'Fira Code', monospace">8</text>
<text x="182.0" y="83.5" font-size="8" fill="#666" text-anchor="middle" font-family="'SF Mono', 'Cascadia Code', 'Fira Code', monospace">9</text>
<text x="342.0" y="83.5" font-size="8" fill="#666" text-anchor="middle" font-family="'SF Mono', 'Cascadia Code', 'Fira Code', monospace">9</text>
<text x="182.0" y="97.5" font-size="8" fill="#666" text-anchor="middle" font-family="'SF Mono', 'Cascadia Code', 'Fira Code', monospace">10</text>
<text x="342.0" y="97.5" font-size="8" fill="#666" text-anchor="middle" font-family="'SF Mono', 'Cascadia Code', 'Fira Code', monospace">10</text>
<text x="182.0" y="111.5" font-size="8" fill="#666" text-anchor="middle" font-family="'SF Mono', 'Cascadia Code', 'Fira Code', monospace">11</text>
<text x="342.0" y="111.5" font-size="8" fill="#666" text-anchor="middle" font-family="'SF Mono', 'Cascadia Code', 'Fira Code', monospace">11</text>
<text x="182.0" y="125.5" font-size="8" fill="#666" text-anchor="middle" font-family="'SF Mono', 'Cascadia Code', 'Fira Code', monospace">12</text>
<text x="342.0" y="125.5" font-size="8" fill="#666" text-anchor="middle" font-family="'SF Mono', 'Cascadia Code', 'Fira Code', monospace">12</text>
<text x="182.0" y="139.5" font-size="8" fill="#666" text-anchor="middle" font-family="'SF Mono', 'Cascadia Code', 'Fira Code', monospace">13</text>
<text x="342.0" y="139.5" font-size="8" fill="#666" text-anchor="middle" font-family="'SF Mono', 'Cascadia Code', 'Fira Code', monospace">13</text>
<text x="182.0" y="153.5" font-size="8" fill="#666" text-anchor="middle" font-family="'SF Mono', 'Cascadia Code', 'Fira Code', monospace">14</text>
<text x="342.0" y="153.5" font-size="8" fill="#666" text-anchor="middle" font-family="'SF Mono', 'Cascadia Code', 'Fira Code', monospace">14</text>
<text x="182.0" y="167.5" font-size="8" fill="#666" text-anchor="middle" font-family="'SF Mono', 'Cascadia Code', 'Fira Code', monospace">15</text>
<text x="342.0" y="167.5" font-size="8" fill="#666" text-anchor="middle" font-family="'SF Mono', 'Cascadia Code', 'Fira Code', monospace">15</text>
<text x="182.0" y="181.5" font-size="8" fill="#666" text-anchor="middle" font-family="'SF Mono', 'Cascadia Code', 'Fira Code', monospace">16</text>
<text x="342.0" y="181.5" font-size="8" fill="#666" text-anchor="middle" font-family="'SF Mono', 'Cascadia Code', 'Fira Code', monospace">16</text>
<text x="182.0" y="195.5" font-size="8" fill="#666" text-anchor="middle" font-family="'SF Mono', 'Cascadia Code', 'Fira Code', monospace">17</text>
<text x="342.0" y="195.5" font-size="8" fill="#666" text-anchor="middle" font-family="'SF Mono', 'Cascadia Code', 'Fira Code', monospace">17</text>
<text x="182.0" y="209.5" font-size="8" fill="#666" text-anchor="middle" font-family="'SF Mono', 'Cascadia Code', 'Fira Code', monospace">18</text>
<text x="342.0" y="209.5" font-size="8" fill="#666" text-anchor="middle" font-family="'SF Mono', 'Cascadia Code', 'Fira Code', monospace">18</text>
<text x="182.0" y="223.5" font-size="8" fill="#666" text-anchor="middle" font-family="'SF Mono', 'Cascadia Code', 'Fira Code', monospace">19</text>
<text x="342.0" y="223.5" font-size="8" fill="#666" text-anchor="middle" font-family="'SF Mono', 'Cascadia Code', 'Fira Code', monospace">19</text>
<circle cx="248.0" cy="101.0" r="9.0" fill="#69f0ae" opacity="0.25"/>
<circle cx="248.0" cy="101.0" r="5.5" fill="#00c853" stroke="#888" stroke-width="0.6" opacity="0.92"/>
<circle cx="246.5" cy="99.5" r="2.0" fill="white" opacity="0.25"/>
<line x1="253.0" y1="106.0" x2="243.0" y2="106.0" stroke="#666" stroke-width="1.8"/>
<text x="245.0" y="90.0" font-size="8" fill="#00c853" font-weight="bold" font-family="system-ui, -apple-system, 'Segoe UI', sans-serif">+</text>
<line x1="248.0" y1="94.0" x2="248.0" y2="95.5" stroke="#999" stroke-width="1.2"/>
<line x1="248.0" y1="106.5" x2="248.0" y2="108.0" stroke="#999" stroke-width="1.2"/>
<rect x="4.0" y="135.0" width="130.0" height="58.0" rx="5" fill="#1565c0" stroke="#263238" stroke-width="1" opacity="0.95"/>
<text x="69.0" y="148.0" font-size="8" fill="white" font-weight="700" text-anchor="middle" font-family="system-ui, -apple-system, 'Segoe UI', sans-serif">HW-038 Water Sensor</text>
<circle cx="134.0" cy="155.0" r="2.5" fill="white" stroke="#1565c0" stroke-width="0.8"/>
<text x="126.0" y="158.0" font-size="6" fill="#ddd" font-weight="600" text-anchor="end" font-family="'SF Mono', 'Cascadia Code', 'Fira Code', monospace">SIG</text>
<line x1="134.0" y1="155.0" x2="248.0" y2="155.0" stroke="#1565c0" stroke-width="2" stroke-linecap="round" opacity="0.8"/>
<line x1="248.0" y1="155.0" x2="248.0" y2="150.0" stroke="#1565c0" stroke-width="2" stroke-linecap="round" opacity="0.8"/>
<circle cx="134.0" cy="169.0" r="2.5" fill="white" stroke="#1565c0" stroke-width="0.8"/>
<text x="126.0" y="172.0" font-size="6" fill="#ddd" font-weight="600" text-anchor="end" font-family="'SF Mono', 'Cascadia Code', 'Fira Code', monospace">VCC</text>
<line x1="134.0" y1="169.0" x2="248.0" y2="169.0" stroke="#e53935" stroke-width="2" stroke-linecap="round" opacity="0.8"/>
<line x1="248.0" y1="169.0" x2="248.0" y2="164.0" stroke="#e53935" stroke-width="2" stroke-linecap="round" opacity="0.8"/>
<circle cx="134.0" cy="183.0" r="2.5" fill="white" stroke="#1565c0" stroke-width="0.8"/>
<text x="126.0" y="186.0" font-size="6" fill="#ddd" font-weight="600" text-anchor="end" font-family="'SF Mono', 'Cascadia Code', 'Fira Code', monospace">GND</text>
<line x1="134.0" y1="183.0" x2="248.0" y2="183.0" stroke="#333333" stroke-width="2" stroke-linecap="round" opacity="0.8"/>
<line x1="248.0" y1="183.0" x2="248.0" y2="178.0" stroke="#333333" stroke-width="2" stroke-linecap="round" opacity="0.8"/>
<line x1="45.0" y1="94.0" x2="192.0" y2="94.0" stroke="#43a047" stroke-width="2" stroke-linecap="round" opacity="0.8"/>
<rect x="4.0" y="88.0" width="41.0" height="12.0" rx="4" fill="#43a047" opacity="0.92"/>
<text x="8.0" y="97.0" font-size="8" fill="white" font-weight="600" font-family="system-ui, -apple-system, 'Segoe UI', sans-serif">Pin 22</text>
<line x1="36.0" y1="108.0" x2="192.0" y2="108.0" stroke="#333333" stroke-width="2" stroke-linecap="round" opacity="0.8"/>
<rect x="4.0" y="102.0" width="32.0" height="12.0" rx="4" fill="#333333" opacity="0.92"/>
<text x="8.0" y="111.0" font-size="8" fill="white" font-weight="600" font-family="system-ui, -apple-system, 'Segoe UI', sans-serif">GND</text>
<line x1="45.0" y1="150.0" x2="192.0" y2="150.0" stroke="#1565c0" stroke-width="2" stroke-linecap="round" opacity="0.8"/>
<rect x="4.0" y="144.0" width="41.0" height="12.0" rx="4" fill="#1565c0" opacity="0.92"/>
<text x="8.0" y="153.0" font-size="8" fill="white" font-weight="600" font-family="system-ui, -apple-system, 'Segoe UI', sans-serif">Pin A8</text>
<line x1="36.0" y1="164.0" x2="192.0" y2="164.0" stroke="#e53935" stroke-width="2" stroke-linecap="round" opacity="0.8"/>
<rect x="4.0" y="158.0" width="32.0" height="12.0" rx="4" fill="#e53935" opacity="0.92"/>
<text x="8.0" y="167.0" font-size="8" fill="white" font-weight="600" font-family="system-ui, -apple-system, 'Segoe UI', sans-serif">5V</text>
<line x1="36.0" y1="178.0" x2="192.0" y2="178.0" stroke="#333333" stroke-width="2" stroke-linecap="round" opacity="0.8"/>
<rect x="4.0" y="172.0" width="32.0" height="12.0" rx="4" fill="#333333" opacity="0.92"/>
<text x="8.0" y="181.0" font-size="8" fill="white" font-weight="600" font-family="system-ui, -apple-system, 'Segoe UI', sans-serif">GND</text>
<text x="150.0" y="252.0" font-size="8" fill="#999" font-weight="600" letter-spacing="0.5" font-family="system-ui, -apple-system, 'Segoe UI', sans-serif">COMPONENTS</text>
<circle cx="155.0" cy="263.0" r="4.0" fill="#00c853" stroke="#0002" stroke-width="0.5"/>
<text x="164.0" y="266.0" font-size="9" fill="#444" font-family="system-ui, -apple-system, 'Segoe UI', sans-serif">green LED  e10(+) → e11(–)</text>
<circle cx="155.0" cy="278.0" r="4.0" fill="#1565c0" stroke="#0002" stroke-width="0.5"/>
<text x="164.0" y="281.0" font-size="9" fill="#444" font-family="system-ui, -apple-system, 'Segoe UI', sans-serif">HW-038 Water Sensor</text>
<text x="150.0" y="302.0" font-size="8" fill="#999" font-weight="600" letter-spacing="0.5" font-family="system-ui, -apple-system, 'Segoe UI', sans-serif">WIRES</text>
<line x1="151.0" y1="313.0" x2="160.0" y2="313.0" stroke="#43a047" stroke-width="3" stroke-linecap="round"/>
<text x="166.0" y="316.0" font-size="9" fill="#444" font-family="system-ui, -apple-system, 'Segoe UI', sans-serif">LED signal — HERO XL Pin 22 (PWM)</text>
<line x1="151.0" y1="328.0" x2="160.0" y2="328.0" stroke="#333333" stroke-width="3" stroke-linecap="round"/>
<text x="166.0" y="331.0" font-size="9" fill="#444" font-family="system-ui, -apple-system, 'Segoe UI', sans-serif">LED ground — HERO XL GND</text>
<line x1="151.0" y1="343.0" x2="160.0" y2="343.0" stroke="#1565c0" stroke-width="3" stroke-linecap="round"/>
<text x="166.0" y="346.0" font-size="9" fill="#444" font-family="system-ui, -apple-system, 'Segoe UI', sans-serif">water sensor signal — HERO XL A8</text>
<line x1="151.0" y1="358.0" x2="160.0" y2="358.0" stroke="#e53935" stroke-width="3" stroke-linecap="round"/>
<text x="166.0" y="361.0" font-size="9" fill="#444" font-family="system-ui, -apple-system, 'Segoe UI', sans-serif">sensor power — HERO XL 5V</text>
<line x1="151.0" y1="373.0" x2="160.0" y2="373.0" stroke="#333333" stroke-width="3" stroke-linecap="round"/>
<text x="166.0" y="376.0" font-size="9" fill="#444" font-family="system-ui, -apple-system, 'Segoe UI', sans-serif">sensor ground — HERO XL GND</text>
<text x="262.0" y="18.0" font-size="13" fill="#222" font-weight="700" text-anchor="middle" font-family="system-ui, -apple-system, 'Segoe UI', sans-serif">Plant Monitor — Water Sensor + LED</text>
<text x="262.0" y="30.0" font-size="9" fill="#999" text-anchor="middle" font-family="system-ui, -apple-system, 'Segoe UI', sans-serif">rows 7–19 of 63</text>
</svg>