<?xml version="1.0" encoding="UTF-8"?>
<svg xmlns="http://www.w3.org/2000/svg"
     viewBox="0 0 372 751"
     width="372" height="751"
     style="background:#fff">
<rect x="70.0" y="42.0" width="224.0" height="332.0" rx="8" fill="#00000015"/>
<rect x="68.0" y="40.0" width="224.0" height="332.0" rx="8" fill="#e8dcc8" stroke="#b8a88a" stroke-width="1.2"/>
<rect x="173.0" y="44.0" width="14.0" height="324.0" rx="2" fill="#d4c8b0" stroke="#c4b898" stroke-width="0.4"/>
<line x1="80.0" y1="44.0" x2="80.0" y2="368.0" stroke="#d32f2f" stroke-width="1.2" opacity="0.2" stroke-dasharray="3,5"/>
<line x1="90.0" y1="44.0" x2="90.0" y2="368.0" stroke="#1565c0" stroke-width="1.2" opacity="0.2" stroke-dasharray="3,5"/>
<line x1="270.0" y1="44.0" x2="270.0" y2="368.0" stroke="#d32f2f" stroke-width="1.2" opacity="0.2" stroke-dasharray="3,5"/>
<line x1="280.0" y1="44.0" x2="280.0" y2="368.0" stroke="#1565c0" stroke-width="1.2" opacity="0.2" stroke-dasharray="3,5"/>
<rect x="105.0" y="89.0" width="66.0" height="10.0" rx="3" fill="#ffeaa7" opacity="0.25"/>
<rect x="189.0" y="89.0" width="66.0" height="10.0" rx="3" fill="#ffeaa7" opacity="0.25"/>
<rect x="105.0" y="103.0" width="66.0" height="10.0" rx="3" fill="#ffeaa7" opacity="0.25"/>
<rect x="189.0" y="103.0" width="66.0" height="10.0" rx="3" fill="#ffeaa7" opacity="0.25"/>
<rect x="105.0" y="117.0" width="66.0" height="10.0" rx="3" fill="#ffeaa7" opacity="0.25"/>
<rect x="189.0" y="117.0" width="66.0" height="10.0" rx="3" fill="#ffeaa7" opacity="0.25"/>
<rect x="105.0" y="131.0" width="66.0" height="10.0" rx="3" fill="#ffeaa7" opacity="0.25"/>
<rect x="189.0" y="131.0" width="66.0" height="10.0" rx="3" fill="#ffeaa7" opacity="0.25"/>
<rect x="105.0" y="145.0" width="66.0" height="10.0" rx="3" fill="#ffeaa7" opacity="0.25"/>
<rect x="189.0" y="145.0" width="66.0" height="10.0" rx="3" fill="#ffeaa7" opacity="0.25"/>
<rect x="105.0" y="159.0" width="66.0" height="10.0" rx="3" fill="#ffeaa7" opacity="0.25"/>
<rect x="189.0" y="159.0" width="66.0" height="10.0" rx="3" fill="#ffeaa7" opacity="0.25"/>
<rect x="105.0" y="229.0" width="66.0" height="10.0" rx="3" fill="#ffeaa7" opacity="0.25"/>
<rect x="189.0" y="229.0" width="66.0" height="10.0" rx="3" fill="#ffeaa7" opacity="0.25"/>
<rect x="105.0" y="243.0" width="66.0" height="10.0" rx="3" fill="#ffeaa7" opacity="0.25"/>
<rect x="189.0" y="243.0" width="66.0" height="10.0" rx="3" fill="#ffeaa7" opacity="0.25"/>
<rect x="105.0" y="257.0" width="66.0" height="10.0" rx="3" fill="#ffeaa7" opacity="0.25"/>
<rect x="189.0" y="257.0" width="66.0" height="10.0" rx="3" fill="#ffeaa7" opacity="0.25"/>
<rect x="105.0" y="271.0" width="66.0" height="10.0" rx="3" fill="#ffeaa7" opacity="0.25"/>
<rect x="189.0" y="271.0" width="66.0" height="10.0" rx="3" fill="#ffeaa7" opacity="0.25"/>
<rect x="105.0" y="299.0" width="66.0" height="10.0" rx="3" fill="#ffeaa7" opacity="0.25"/>
<rect x="189.0" y="299.0" width="66.0" height="10.0" rx="3" fill="#ffeaa7" opacity="0.25"/>
<rect x="105.0" y="313.0" width="66.0" height="10.0" rx="3" fill="#ffeaa7" opacity="0.25"/>
<rect x="189.0" y="313.0" width="66.0" height="10.0" rx="3" fill="#ffeaa7" opacity="0.25"/>
<circle cx="110.0" cy="52.0" r="3.0" fill="#2a2a2a"/>
<circle cx="110.0" cy="66.0" r="3.0" fill="#2a2a2a"/>
<circle cx="110.0" cy="80.0" r="3.0" fill="#2a2a2a"/>
<circle cx="110.0" cy="94.0" r="3.0" fill="#666"/>
<circle cx="110.0" cy="108.0" r="3.0" fill="#666"/>
<circle cx="110.0" cy="122.0" r="3.0" fill="#666"/>
<circle cx="110.0" cy="136.0" r="3.0" fill="#666"/>
<circle cx="110.0" cy="150.0" r="3.0" fill="#666"/>
<circle cx="110.0" cy="164.0" r="3.0" fill="#666"/>
<circle cx="110.0" cy="178.0" r="3.0" fill="#2a2a2a"/>
<circle cx="110.0" cy="192.0" r="3.0" fill="#2a2a2a"/>
<circle cx="110.0" cy="206.0" r="3.0" fill="#2a2a2a"/>
<circle cx="110.0" cy="220.0" r="3.0" fill="#2a2a2a"/>
<circle cx="110.0" cy="234.0" r="3.0" fill="#666"/>
<circle cx="110.0" cy="248.0" r="3.0" fill="#666"/>
<circle cx="110.0" cy="262.0" r="3.0" fill="#666"/>
<circle cx="110.0" cy="276.0" r="3.0" fill="#666"/>
<circle cx="110.0" cy="290.0" r="3.0" fill="#2a2a2a"/>
<circle cx="110.0" cy="304.0" r="3.0" fill="#666"/>
<circle cx="110.0" cy="318.0" r="3.0" fill="#666"/>
<circle cx="110.0" cy="332.0" r="3.0" fill="#2a2a2a"/>
<circle cx="110.0" cy="346.0" r="3.0" fill="#2a2a2a"/>
<circle cx="110.0" cy="360.0" r="3.0" fill="#2a2a2a"/>
<circle cx="124.0" cy="52.0" r="3.0" fill="#2a2a2a"/>
<circle cx="124.0" cy="66.0" r="3.0" fill="#2a2a2a"/>
<circle cx="124.0" cy="80.0" r="3.0" fill="#2a2a2a"/>
<circle cx="124.0" cy="94.0" r="3.0" fill="#2a2a2a"/>
<circle cx="124.0" cy="108.0" r="3.0" fill="#2a2a2a"/>
<circle cx="124.0" cy="122.0" r="3.0" fill="#2a2a2a"/>
<circle cx="124.0" cy="136.0" r="3.0" fill="#2a2a2a"/>
<circle cx="124.0" cy="150.0" r="3.0" fill="#2a2a2a"/>
<circle cx="124.0" cy="164.0" r="3.0" fill="#2a2a2a"/>
<circle cx="124.0" cy="178.0" r="3.0" fill="#2a2a2a"/>
<circle cx="124.0" cy="192.0" r="3.0" fill="#2a2a2a"/>
<circle cx="124.0" cy="206.0" r="3.0" fill="#2a2a2a"/>
<circle cx="124.0" cy="220.0" r="3.0" fill="#2a2a2a"/>
<circle cx="124.0" cy="234.0" r="3.0" fill="#2a2a2a"/>
<circle cx="124.0" cy="248.0" r="3.0" fill="#2a2a2a"/>
<circle cx="124.0" cy="262.0" r="3.0" fill="#2a2a2a"/>
<circle cx="124.0" cy="276.0" r="3.0" fill="#2a2a2a"/>
<circle cx="124.0" cy="290.0" r="3.0" fill="#2a2a2a"/>
<circle cx="124.0" cy="304.0" r="3.0" fill="#2a2a2a"/>
<circle cx="124.0" cy="318.0" r="3.0" fill="#2a2a2a"/>
<circle cx="124.0" cy="332.0" r="3.0" fill="#2a2a2a"/>
<circle cx="124.0" cy="346.0" r="3.0" fill="#2a2a2a"/>
<circle cx="124.0" cy="360.0" r="3.0" fill="#2a2a2a"/>
<circle cx="138.0" cy="52.0" r="3.0" fill="#2a2a2a"/>
<circle cx="138.0" cy="66.0" r="3.0" fill="#2a2a2a"/>
<circle cx="138.0" cy="80.0" r="3.0" fill="#2a2a2a"/>
<circle cx="138.0" cy="94.0" r="3.0" fill="#2a2a2a"/>
<circle cx="138.0" cy="108.0" r="3.0" fill="#2a2a2a"/>
<circle cx="138.0" cy="122.0" r="3.0" fill="#2a2a2a"/>
<circle cx="138.0" cy="136.0" r="3.0" fill="#2a2a2a"/>
<circle cx="138.0" cy="150.0" r="3.0" fill="#2a2a2a"/>
<circle cx="138.0" cy="164.0" r="3.0" fill="#2a2a2a"/>
<circle cx="138.0" cy="178.0" r="3.0" fill="#2a2a2a"/>
<circle cx="138.0" cy="192.0" r="3.0" fill="#2a2a2a"/>
<circle cx="138.0" cy="206.0" r="3.0" fill="#2a2a2a"/>
<circle cx="138.0" cy="220.0" r="3.0" fill="#2a2a2a"/>
<circle cx="138.0" cy="234.0" r="3.0" fill="#2a2a2a"/>
<circle cx="138.0" cy="248.0" r="3.0" fill="#2a2a2a"/>
<circle cx="138.0" cy="262.0" r="3.0" fill="#2a2a2a"/>
<circle cx="138.0" cy="276.0" r="3.0" fill="#2a2a2a"/>
<circle cx="138.0" cy="290.0" r="3.0" fill="#2a2a2a"/>
<circle cx="138.0" cy="304.0" r="3.0" fill="#2a2a2a"/>
<circle cx="138.0" cy="318.0" r="3.0" fill="#2a2a2a"/>
<circle cx="138.0" cy="332.0" r="3.0" fill="#2a2a2a"/>
<circle cx="138.0" cy="346.0" r="3.0" fill="#2a2a2a"/>
<circle cx="138.0" cy="360.0" r="3.0" fill="#2a2a2a"/>
<circle cx="152.0" cy="52.0" r="3.0" fill="#2a2a2a"/>
<circle cx="152.0" cy="66.0" r="3.0" fill="#2a2a2a"/>
<circle cx="152.0" cy="80.0" r="3.0" fill="#2a2a2a"/>
<circle cx="152.0" cy="94.0" r="3.0" fill="#2a2a2a"/>
<circle cx="152.0" cy="108.0" r="3.0" fill="#2a2a2a"/>
<circle cx="152.0" cy="122.0" r="3.0" fill="#2a2a2a"/>
<circle cx="152.0" cy="136.0" r="3.0" fill="#2a2a2a"/>
<circle cx="152.0" cy="150.0" r="3.0" fill="#2a2a2a"/>
<circle cx="152.0" cy="164.0" r="3.0" fill="#2a2a2a"/>
<circle cx="152.0" cy="178.0" r="3.0" fill="#2a2a2a"/>
<circle cx="152.0" cy="192.0" r="3.0" fill="#2a2a2a"/>
<circle cx="152.0" cy="206.0" r="3.0" fill="#2a2a2a"/>
<circle cx="152.0" cy="220.0" r="3.0" fill="#2a2a2a"/>
<circle cx="152.0" cy="234.0" r="3.0" fill="#2a2a2a"/>
<circle cx="152.0" cy="248.0" r="3.0" fill="#2a2a2a"/>
<circle cx="152.0" cy="262.0" r="3.0" fill="#2a2a2a"/>
<circle cx="152.0" cy="276.0" r="3.0" fill="#2a2a2a"/>
<circle cx="152.0" cy="290.0" r="3.0" fill="#2a2a2a"/>
<circle cx="152.0" cy="304.0" r="3.0" fill="#2a2a2a"/>
<circle cx="152.0" cy="318.0" r="3.0" fill="#2a2a2a"/>
<circle cx="152.0" cy="332.0" r="3.0" fill="#2a2a2a"/>
<circle cx="152.0" cy="346.0" r="3.0" fill="#2a2a2a"/>
<circle cx="152.0" cy="360.0" r="3.0" fill="#2a2a2a"/>
<circle cx="166.0" cy="52.0" r="3.0" fill="#2a2a2a"/>
<circle cx="166.0" cy="66.0" r="3.0" fill="#2a2a2a"/>
<circle cx="166.0" cy="80.0" r="3.0" fill="#2a2a2a"/>
<circle cx="166.0" cy="94.0" r="3.0" fill="#2a2a2a"/>
<circle cx="166.0" cy="108.0" r="3.0" fill="#2a2a2a"/>
<circle cx="166.0" cy="122.0" r="3.0" fill="#2a2a2a"/>
<circle cx="166.0" cy="136.0" r="3.0" fill="#2a2a2a"/>
<circle cx="166.0" cy="150.0" r="3.0" fill="#2a2a2a"/>
<circle cx="166.0" cy="164.0" r="3.0" fill="#2a2a2a"/>
<circle cx="166.0" cy="178.0" r="3.0" fill="#2a2a2a"/>
<circle cx="166.0" cy="192.0" r="3.0" fill="#2a2a2a"/>
<circle cx="166.0" cy="206.0" r="3.0" fill="#2a2a2a"/>
<circle cx="166.0" cy="220.0" r="3.0" fill="#2a2a2a"/>
<circle cx="166.0" cy="234.0" r="3.0" fill="#2a2a2a"/>
<circle cx="166.0" cy="248.0" r="3.0" fill="#2a2a2a"/>
<circle cx="166.0" cy="262.0" r="3.0" fill="#2a2a2a"/>
<circle cx="166.0" cy="276.0" r="3.0" fill="#2a2a2a"/>
<circle cx="166.0" cy="290.0" r="3.0" fill="#2a2a2a"/>
<circle cx="166.0" cy="304.0" r="3.0" fill="#666"/>
<circle cx="166.0" cy="318.0" r="3.0" fill="#666"/>
<circle cx="166.0" cy="332.0" r="3.0" fill="#2a2a2a"/>
<circle cx="166.0" cy="346.0" r="3.0" fill="#2a2a2a"/>
<circle cx="166.0" cy="360.0" r="3.0" fill="#2a2a2a"/>
<circle cx="194.0" cy="52.0" r="3.0" fill="#2a2a2a"/>
<circle cx="194.0" cy="66.0" r="3.0" fill="#2a2a2a"/>
<circle cx="194.0" cy="80.0" r="3.0" fill="#2a2a2a"/>
<circle cx="194.0" cy="94.0" r="3.0" fill="#2a2a2a"/>
<circle cx="194.0" cy="108.0" r="3.0" fill="#2a2a2a"/>
<circle cx="194.0" cy="122.0" r="3.0" fill="#2a2a2a"/>
<circle cx="194.0" cy="136.0" r="3.0" fill="#2a2a2a"/>
<circle cx="194.0" cy="150.0" r="3.0" fill="#2a2a2a"/>
<circle cx="194.0" cy="164.0" r="3.0" fill="#2a2a2a"/>
<circle cx="194.0" cy="178.0" r="3.0" fill="#2a2a2a"/>
<circle cx="194.0" cy="192.0" r="3.0" fill="#2a2a2a"/>
<circle cx="194.0" cy="206.0" r="3.0" fill="#2a2a2a"/>
<circle cx="194.0" cy="220.0" r="3.0" fill="#2a2a2a"/>
<circle cx="194.0" cy="234.0" r="3.0" fill="#2a2a2a"/>
<circle cx="194.0" cy="248.0" r="3.0" fill="#2a2a2a"/>
<circle cx="194.0" cy="262.0" r="3.0" fill="#2a2a2a"/>
<circle cx="194.0" cy="276.0" r="3.0" fill="#2a2a2a"/>
<circle cx="194.0" cy="290.0" r="3.0" fill="#2a2a2a"/>
<circle cx="194.0" cy="304.0" r="3.0" fill="#2a2a2a"/>
<circle cx="194.0" cy="318.0" r="3.0" fill="#2a2a2a"/>
<circle cx="194.0" cy="332.0" r="3.0" fill="#2a2a2a"/>
<circle cx="194.0" cy="346.0" r="3.0" fill="#2a2a2a"/>
<circle cx="194.0" cy="360.0" r="3.0" fill="#2a2a2a"/>
<circle cx="208.0" cy="52.0" r="3.0" fill="#2a2a2a"/>
<circle cx="208.0" cy="66.0" r="3.0" fill="#2a2a2a"/>
<circle cx="208.0" cy="80.0" r="3.0" fill="#2a2a2a"/>
<circle cx="208.0" cy="94.0" r="3.0" fill="#2a2a2a"/>
<circle cx="208.0" cy="108.0" r="3.0" fill="#2a2a2a"/>
<circle cx="208.0" cy="122.0" r="3.0" fill="#2a2a2a"/>
<circle cx="208.0" cy="136.0" r="3.0" fill="#2a2a2a"/>
<circle cx="208.0" cy="150.0" r="3.0" fill="#2a2a2a"/>
<circle cx="208.0" cy="164.0" r="3.0" fill="#2a2a2a"/>
<circle cx="208.0" cy="178.0" r="3.0" fill="#2a2a2a"/>
<circle cx="208.0" cy="192.0" r="3.0" fill="#2a2a2a"/>
<circle cx="208.0" cy="206.0" r="3.0" fill="#2a2a2a"/>
<circle cx="208.0" cy="220.0" r="3.0" fill="#2a2a2a"/>
<circle cx="208.0" cy="234.0" r="3.0" fill="#2a2a2a"/>
<circle cx="208.0" cy="248.0" r="3.0" fill="#2a2a2a"/>
<circle cx="208.0" cy="262.0" r="3.0" fill="#2a2a2a"/>
<circle cx="208.0" cy="276.0" r="3.0" fill="#2a2a2a"/>
<circle cx="208.0" cy="290.0" r="3.0" fill="#2a2a2a"/>
<circle cx="208.0" cy="304.0" r="3.0" fill="#2a2a2a"/>
<circle cx="208.0" cy="318.0" r="3.0" fill="#2a2a2a"/>
<circle cx="208.0" cy="332.0" r="3.0" fill="#2a2a2a"/>
<circle cx="208.0" cy="346.0" r="3.0" fill="#2a2a2a"/>
<circle cx="208.0" cy="360.0" r="3.0" fill="#2a2a2a"/>
<circle cx="222.0" cy="52.0" r="3.0" fill="#2a2a2a"/>
<circle cx="222.0" cy="66.0" r="3.0" fill="#2a2a2a"/>
<circle cx="222.0" cy="80.0" r="3.0" fill="#2a2a2a"/>
<circle cx="222.0" cy="94.0" r="3.0" fill="#2a2a2a"/>
<circle cx="222.0" cy="108.0" r="3.0" fill="#2a2a2a"/>
<circle cx="222.0" cy="122.0" r="3.0" fill="#2a2a2a"/>
<circle cx="222.0" cy="136.0" r="3.0" fill="#2a2a2a"/>
<circle cx="222.0" cy="150.0" r="3.0" fill="#2a2a2a"/>
<circle cx="222.0" cy="164.0" r="3.0" fill="#2a2a2a"/>
<circle cx="222.0" cy="178.0" r="3.0" fill="#2a2a2a"/>
<circle cx="222.0" cy="192.0" r="3.0" fill="#2a2a2a"/>
<circle cx="222.0" cy="206.0" r="3.0" fill="#2a2a2a"/>
<circle cx="222.0" cy="220.0" r="3.0" fill="#2a2a2a"/>
<circle cx="222.0" cy="234.0" r="3.0" fill="#2a2a2a"/>
<circle cx="222.0" cy="248.0" r="3.0" fill="#2a2a2a"/>
<circle cx="222.0" cy="262.0" r="3.0" fill="#2a2a2a"/>
<circle cx="222.0" cy="276.0" r="3.0" fill="#2a2a2a"/>
<circle cx="222.0" cy="290.0" r="3.0" fill="#2a2a2a"/>
<circle cx="222.0" cy="304.0" r="3.0" fill="#2a2a2a"/>
<circle cx="222.0" cy="318.0" r="3.0" fill="#2a2a2a"/>
<circle cx="222.0" cy="332.0" r="3.0" fill="#2a2a2a"/>
<circle cx="222.0" cy="346.0" r="3.0" fill="#2a2a2a"/>
<circle cx="222.0" cy="360.0" r="3.0" fill="#2a2a2a"/>
<circle cx="236.0" cy="52.0" r="3.0" fill="#2a2a2a"/>
<circle cx="236.0" cy="66.0" r="3.0" fill="#2a2a2a"/>
<circle cx="236.0" cy="80.0" r="3.0" fill="#2a2a2a"/>
<circle cx="236.0" cy="94.0" r="3.0" fill="#2a2a2a"/>
<circle cx="236.0" cy="108.0" r="3.0" fill="#2a2a2a"/>
<circle cx="236.0" cy="122.0" r="3.0" fill="#2a2a2a"/>
<circle cx="236.0" cy="136.0" r="3.0" fill="#2a2a2a"/>
<circle cx="236.0" cy="150.0" r="3.0" fill="#2a2a2a"/>
<circle cx="236.0" cy="164.0" r="3.0" fill="#2a2a2a"/>
<circle cx="236.0" cy="178.0" r="3.0" fill="#2a2a2a"/>
<circle cx="236.0" cy="192.0" r="3.0" fill="#2a2a2a"/>
<circle cx="236.0" cy="206.0" r="3.0" fill="#2a2a2a"/>
<circle cx="236.0" cy="220.0" r="3.0" fill="#2a2a2a"/>
<circle cx="236.0" cy="234.0" r="3.0" fill="#2a2a2a"/>
<circle cx="236.0" cy="248.0" r="3.0" fill="#2a2a2a"/>
<circle cx="236.0" cy="262.0" r="3.0" fill="#2a2a2a"/>
<circle cx="236.0" cy="276.0" r="3.0" fill="#2a2a2a"/>
<circle cx="236.0" cy="290.0" r="3.0" fill="#2a2a2a"/>
<circle cx="236.0" cy="304.0" r="3.0" fill="#2a2a2a"/>
<circle cx="236.0" cy="318.0" r="3.0" fill="#2a2a2a"/>
<circle cx="236.0" cy="332.0" r="3.0" fill="#2a2a2a"/>
<circle cx="236.0" cy="346.0" r="3.0" fill="#2a2a2a"/>
<circle cx="236.0" cy="360.0" r="3.0" fill="#2a2a2a"/>
<circle cx="250.0" cy="52.0" r="3.0" fill="#2a2a2a"/>
<circle cx="250.0" cy="66.0" r="3.0" fill="#2a2a2a"/>
<circle cx="250.0" cy="80.0" r="3.0" fill="#2a2a2a"/>
<circle cx="250.0" cy="94.0" r="3.0" fill="#666"/>
<circle cx="250.0" cy="108.0" r="3.0" fill="#666"/>
<circle cx="250.0" cy="122.0" r="3.0" fill="#666"/>
<circle cx="250.0" cy="136.0" r="3.0" fill="#666"/>
<circle cx="250.0" cy="150.0" r="3.0" fill="#666"/>
<circle cx="250.0" cy="164.0" r="3.0" fill="#666"/>
<circle cx="250.0" cy="178.0" r="3.0" fill="#2a2a2a"/>
<circle cx="250.0" cy="192.0" r="3.0" fill="#2a2a2a"/>
<circle cx="250.0" cy="206.0" r="3.0" fill="#2a2a2a"/>
<circle cx="250.0" cy="220.0" r="3.0" fill="#2a2a2a"/>
<circle cx="250.0" cy="234.0" r="3.0" fill="#2a2a2a"/>
<circle cx="250.0" cy="248.0" r="3.0" fill="#2a2a2a"/>
<circle cx="250.0" cy="262.0" r="3.0" fill="#2a2a2a"/>
<circle cx="250.0" cy="276.0" r="3.0" fill="#2a2a2a"/>
<circle cx="250.0" cy="290.0" r="3.0" fill="#2a2a2a"/>
<circle cx="250.0" cy="304.0" r="3.0" fill="#2a2a2a"/>
<circle cx="250.0" cy="318.0" r="3.0" fill="#2a2a2a"/>
<circle cx="250.0" cy="332.0" r="3.0" fill="#2a2a2a"/>
<circle cx="250.0" cy="346.0" r="3.0" fill="#2a2a2a"/>
<circle cx="250.0" cy="360.0" r="3.0" fill="#2a2a2a"/>
<circle cx="80.0" cy="52.0" r="2.5" fill="#2a2a2a"/>
<circle cx="80.0" cy="80.0" r="2.5" fill="#2a2a2a"/>
<circle cx="80.0" cy="94.0" r="2.5" fill="#2a2a2a"/>
<circle cx="80.0" cy="108.0" r="2.5" fill="#2a2a2a"/>
<circle cx="80.0" cy="122.0" r="2.5" fill="#2a2a2a"/>
<circle cx="80.0" cy="136.0" r="2.5" fill="#2a2a2a"/>
<circle cx="80.0" cy="164.0" r="2.5" fill="#2a2a2a"/>
<circle cx="80.0" cy="178.0" r="2.5" fill="#2a2a2a"/>
<circle cx="80.0" cy="192.0" r="2.5" fill="#2a2a2a"/>
<circle cx="80.0" cy="206.0" r="2.5" fill="#2a2a2a"/>
<circle cx="80.0" cy="220.0" r="2.5" fill="#2a2a2a"/>
<circle cx="80.0" cy="248.0" r="2.5" fill="#2a2a2a"/>
<circle cx="80.0" cy="262.0" r="2.5" fill="#2a2a2a"/>
<circle cx="80.0" cy="276.0" r="2.5" fill="#2a2a2a"/>
<circle cx="80.0" cy="290.0" r="2.5" fill="#2a2a2a"/>
<circle cx="80.0" cy="304.0" r="2.5" fill="#2a2a2a"/>
<circle cx="80.0" cy="332.0" r="2.5" fill="#2a2a2a"/>
<circle cx="80.0" cy="346.0" r="2.5" fill="#2a2a2a"/>
<circle cx="80.0" cy="360.0" r="2.5" fill="#2a2a2a"/>
<circle cx="90.0" cy="52.0" r="2.5" fill="#2a2a2a"/>
<circle cx="90.0" cy="80.0" r="2.5" fill="#2a2a2a"/>
<circle cx="90.0" cy="94.0" r="2.5" fill="#2a2a2a"/>
<circle cx="90.0" cy="108.0" r="2.5" fill="#2a2a2a"/>
<circle cx="90.0" cy="122.0" r="2.5" fill="#2a2a2a"/>
<circle cx="90.0" cy="136.0" r="2.5" fill="#2a2a2a"/>
<circle cx="90.0" cy="164.0" r="2.5" fill="#2a2a2a"/>
<circle cx="90.0" cy="178.0" r="2.5" fill="#2a2a2a"/>
<circle cx="90.0" cy="192.0" r="2.5" fill="#2a2a2a"/>
<circle cx="90.0" cy="206.0" r="2.5" fill="#2a2a2a"/>
<circle cx="90.0" cy="220.0" r="2.5" fill="#2a2a2a"/>
<circle cx="90.0" cy="248.0" r="2.5" fill="#2a2a2a"/>
<circle cx="90.0" cy="262.0" r="2.5" fill="#2a2a2a"/>
<circle cx="90.0" cy="276.0" r="2.5" fill="#2a2a2a"/>
<circle cx="90.0" cy="290.0" r="2.5" fill="#2a2a2a"/>
<circle cx="90.0" cy="304.0" r="2.5" fill="#2a2a2a"/>
<circle cx="90.0" cy="332.0" r="2.5" fill="#2a2a2a"/>
<circle cx="90.0" cy="346.0" r="2.5" fill="#2a2a2a"/>
<circle cx="90.0" cy="360.0" r="2.5" fill="#2a2a2a"/>
<circle cx="270.0" cy="52.0" r="2.5" fill="#2a2a2a"/>
<circle cx="270.0" cy="80.0" r="2.5" fill="#2a2a2a"/>
<circle cx="270.0" cy="94.0" r="2.5" fill="#2a2a2a"/>
<circle cx="270.0" cy="108.0" r="2.5" fill="#2a2a2a"/>
<circle cx="270.0" cy="122.0" r="2.5" fill="#2a2a2a"/>
<circle cx="270.0" cy="136.0" r="2.5" fill="#2a2a2a"/>
<circle cx="270.0" cy="164.0" r="2.5" fill="#2a2a2a"/>
<circle cx="270.0" cy="178.0" r="2.5" fill="#2a2a2a"/>
<circle cx="270.0" cy="192.0" r="2.5" fill="#2a2a2a"/>
<circle cx="270.0" cy="206.0" r="2.5" fill="#2a2a2a"/>
<circle cx="270.0" cy="220.0" r="2.5" fill="#2a2a2a"/>
<circle cx="270.0" cy="248.0" r="2.5" fill="#2a2a2a"/>
<circle cx="270.0" cy="262.0" r="2.5" fill="#2a2a2a"/>
<circle cx="270.0" cy="276.0" r="2.5" fill="#2a2a2a"/>
<circle cx="270.0" cy="290.0" r="2.5" fill="#2a2a2a"/>
<circle cx="270.0" cy="304.0" r="2.5" fill="#2a2a2a"/>
<circle cx="270.0" cy="332.0" r="2.5" fill="#2a2a2a"/>
<circle cx="270.0" cy="346.0" r="2.5" fill="#2a2a2a"/>
<circle cx="270.0" cy="360.0" r="2.5" fill="#2a2a2a"/>
<circle cx="280.0" cy="52.0" r="2.5" fill="#2a2a2a"/>
<circle cx="280.0" cy="80.0" r="2.5" fill="#2a2a2a"/>
<circle cx="280.0" cy="94.0" r="2.5" fill="#2a2a2a"/>
<circle cx="280.0" cy="108.0" r="2.5" fill="#2a2a2a"/>
<circle cx="280.0" cy="122.0" r="2.5" fill="#2a2a2a"/>
<circle cx="280.0" cy="136.0" r="2.5" fill="#2a2a2a"/>
<circle cx="280.0" cy="164.0" r="2.5" fill="#2a2a2a"/>
<circle cx="280.0" cy="178.0" r="2.5" fill="#2a2a2a"/>
<circle cx="280.0" cy="192.0" r="2.5" fill="#2a2a2a"/>
<circle cx="280.0" cy="206.0" r="2.5" fill="#2a2a2a"/>
<circle cx="280.0" cy="220.0" r="2.5" fill="#2a2a2a"/>
<circle cx="280.0" cy="248.0" r="2.5" fill="#2a2a2a"/>
<circle cx="280.0" cy="262.0" r="2.5" fill="#2a2a2a"/>
<circle cx="280.0" cy="276.0" r="2.5" fill="#2a2a2a"/>
<circle cx="280.0" cy="290.0" r="2.5" fill="#2a2a2a"/>
<circle cx="280.0" cy="304.0" r="2.5" fill="#2a2a2a"/>
<circle cx="280.0" cy="332.0" r="2.5" fill="#2a2a2a"/>
<circle cx="280.0" cy="346.0" r="2.5" fill="#2a2a2a"/>
<circle cx="280.0" cy="360.0" r="2.5" fill="#2a2a2a"/>
<text x="110.0" y="36.0" font-size="9" fill="#666" text-anchor="middle" font-family="'SF Mono', 'Cascadia Code', 'Fira Code', monospace">a</text>
<text x="124.0" y="36.0" font-size="9" fill="#666" text-anchor="middle" font-family="'SF Mono', 'Cascadia Code', 'Fira Code', monospace">b</text>
<text x="138.0" y="36.0" font-size="9" fill="#666" text-anchor="middle" font-family="'SF Mono', 'Cascadia Code', 'Fira Code', monospace">c</text>
<text x="152.0" y="36.0" font-size="9" fill="#666" text-anchor="middle" font-family="'SF Mono', 'Cascadia Code', 'Fira Code', monospace">d</text>
<text x="166.0" y="36.0" font-size="9" fill="#666" text-anchor="middle" font-family="'SF Mono', 'Cascadia Code', 'Fira Code', monospace">e</text>
<text x="194.0" y="36.0" font-size="9" fill="#666" text-anchor="middle" font-family="'SF Mono', 'Cascadia Code', 'Fira Code', monospace">f</text>
<text x="208.0" y="36.0" font-size="9" fill="#666" text-anchor="middle" font-family="'SF Mono', 'Cascadia Code', 'Fira Code', monospace">g</text>
<text x="222.0" y="36.0" font-size="9" fill="#666" text-anchor="middle" font-family="'SF Mono', 'Cascadia Code', 'Fira Code', monospace">h</text>
<text x="236.0" y="36.0" font-size="9" fill="#666" text-anchor="middle" font-family="'SF Mono', 'Cascadia Code', 'Fira Code', monospace">i</text>
<text x="250.0" y="36.0" font-size="9" fill="#666" text-anchor="middle" font-family="'SF Mono', 'Cascadia Code', 'Fira Code', monospace">j</text>
<text x="80.0" y="36.0" font-size="10" fill="#d32f2f" font-weight="bold" text-anchor="middle" font-family="system-ui, -apple-system, 'Segoe UI', sans-serif">+</text>
<text x="90.0" y="36.0" font-size="10" fill="#1565c0" font-weight="bold" text-anchor="middle" font-family="system-ui, -apple-system, 'Segoe UI', sans-serif">–</text>
<text x="270.0" y="36.0" font-size="10" fill="#d32f2f" font-weight="bold" text-anchor="middle" font-family="system-ui, -apple-system, 'Segoe UI', sans-serif">+</text>
<text x="280.0" y="36.0" font-size="10" fill="#1565c0" font-weight="bold" text-anchor="middle" font-family="system-ui, -apple-system, 'Segoe UI', sans-serif">–</text>
<text x="100.0" y="55.5" font-size="8" fill="#666" text-anchor="middle" font-family="'SF Mono', 'Cascadia Code', 'Fira Code', monospace">7</text>
<text x="260.0" y="55.5" font-size="8" fill="#666" text-anchor="middle" font-family="'SF Mono', 'Cascadia Code', 'Fira Code', monospace">7</text>
<text x="100.0" y="69.5" font-size="8" fill="#666" text-anchor="middle" font-family="'SF Mono', 'Cascadia Code', 'Fira Code', monospace">8</text>
<text x="260.0" y="69.5" font-size="8" fill="#666" text-anchor="middle" font-family="'SF Mono', 'Cascadia Code', 'Fira Code', monospace">8</text>
<text x="100.0" y="83.5" font-size="8" fill="#666" text-anchor="middle" font-family="'SF Mono', 'Cascadia Code', 'Fira Code', monospace">9</text>
<text x="260.0" y="83.5" font-size="8" fill="#666" text-anchor="middle" font-family="'SF Mono', 'Cascadia Code', 'Fira Code', monospace">9</text>
<text x="100.0" y="97.5" font-size="8" fill="#666" text-anchor="middle" font-family="'SF Mono', 'Cascadia Code', 'Fira Code', monospace">10</text>
<text x="260.0" y="97.5" font-size="8" fill="#666" text-anchor="middle" font-family="'SF Mono', 'Cascadia Code', 'Fira Code', monospace">10</text>
<text x="100.0" y="111.5" font-size="8" fill="#666" text-anchor="middle" font-family="'SF Mono', 'Cascadia Code', 'Fira Code', monospace">11</text>
<text x="260.0" y="111.5" font-size="8" fill="#666" text-anchor="middle" font-family="'SF Mono', 'Cascadia Code', 'Fira Code', monospace">11</text>
<text x="100.0" y="125.5" font-size="8" fill="#666" text-anchor="middle" font-family="'SF Mono', 'Cascadia Code', 'Fira Code', monospace">12</text>
<text x="260.0" y="125.5" font-size="8" fill="#666" text-anchor="middle" font-family="'SF Mono', 'Cascadia Code', 'Fira Code', monospace">12</text>
<text x="100.0" y="139.5" font-size="8" fill="#666" text-anchor="middle" font-family="'SF Mono', 'Cascadia Code', 'Fira Code', monospace">13</text>
<text x="260.0" y="139.5" font-size="8" fill="#666" text-anchor="middle" font-family="'SF Mono', 'Cascadia Code', 'Fira Code', monospace">13</text>
<text x="100.0" y="153.5" font-size="8" fill="#666" text-anchor="middle" font-family="'SF Mono', 'Cascadia Code', 'Fira Code', monospace">14</text>
<text x="260.0" y="153.5" font-size="8" fill="#666" text-anchor="middle" font-family="'SF Mono', 'Cascadia Code', 'Fira Code', monospace">14</text>
<text x="100.0" y="167.5" font-size="8" fill="#666" text-anchor="middle" font-family="'SF Mono', 'Cascadia Code', 'Fira Code', monospace">15</text>
<text x="260.0" y="167.5" font-size="8" fill="#666" text-anchor="middle" font-family="'SF Mono', 'Cascadia Code', 'Fira Code', monospace">15</text>
<text x="100.0" y="181.5" font-size="8" fill="#666" text-anchor="middle" font-family="'SF Mono', 'Cascadia Code', 'Fira Code', monospace">16</text>
<text x="260.0" y="181.5" font-size="8" fill="#666" text-anchor="middle" font-family="'SF Mono', 'Cascadia Code', 'Fira Code', monospace">16</text>
<text x="100.0" y="195.5" font-size="8" fill="#666" text-anchor="middle" font-family="'SF Mono', 'Cascadia Code', 'Fira Code', monospace">17</text>
<text x="260.0" y="195.5" font-size="8" fill="#666" text-anchor="middle" font-family="'SF Mono', 'Cascadia Code', 'Fira Code', monospace">17</text>
<text x="100.0" y="209.5" font-size="8" fill="#666" text-anchor="middle" font-family="'SF Mono', 'Cascadia Code', 'Fira Code', monospace">18</text>
<text x="260.0" y="209.5" font-size="8" fill="#666" text-anchor="middle" font-family="'SF Mono', 'Cascadia Code', 'Fira Code', monospace">18</text>
<text x="100.0" y="223.5" font-size="8" fill="#666" text-anchor="middle" font-family="'SF Mono', 'Cascadia Code', 'Fira Code', monospace">19</text>
<text x="260.0" y="223.5" font-size="8" fill="#666" text-anchor="middle" font-family="'SF Mono', 'Cascadia Code', 'Fira Code', monospace">19</text>
<text x="100.0" y="237.5" font-size="8" fill="#666" text-anchor="middle" font-family="'SF Mono', 'Cascadia Code', 'Fira Code', monospace">20</text>
<text x="260.0" y="237.5" font-size="8" fill="#666" text-anchor="middle" font-family="'SF Mono', 'Cascadia Code', 'Fira Code', monospace">20</text>
<text x="100.0" y="251.5" font-size="8" fill="#666" text-anchor="middle" font-family="'SF Mono', 'Cascadia Code', 'Fira Code', monospace">21</text>
<text x="260.0" y="251.5" font-size="8" fill="#666" text-anchor="middle" font-family="'SF Mono', 'Cascadia Code', 'Fira Code', monospace">21</text>
<text x="100.0" y="265.5" font-size="8" fill="#666" text-anchor="middle" font-family="'SF Mono', 'Cascadia Code', 'Fira Code', monospace">22</text>
<text x="260.0" y="265.5" font-size="8" fill="#666" text-anchor="middle" font-family="'SF Mono', 'Cascadia Code', 'Fira Code', monospace">22</text>
<text x="100.0" y="279.5" font-size="8" fill="#666" text-anchor="middle" font-family="'SF Mono', 'Cascadia Code', 'Fira Code', monospace">23</text>
<text x="260.0" y="279.5" font-size="8" fill="#666" text-anchor="middle" font-family="'SF Mono', 'Cascadia Code', 'Fira Code', monospace">23</text>
<text x="100.0" y="293.5" font-size="8" fill="#666" text-anchor="middle" font-family="'SF Mono', 'Cascadia Code', 'Fira Code', monospace">24</text>
<text x="260.0" y="293.5" font-size="8" fill="#666" text-anchor="middle" font-family="'SF Mono', 'Cascadia Code', 'Fira Code', monospace">24</text>
<text x="100.0" y="307.5" font-size="8" fill="#666" text-anchor="middle" font-family="'SF Mono', 'Cascadia Code', 'Fira Code', monospace">25</text>
<text x="260.0" y="307.5" font-size="8" fill="#666" text-anchor="middle" font-family="'SF Mono', 'Cascadia Code', 'Fira Code', monospace">25</text>
<text x="100.0" y="321.5" font-size="8" fill="#666" text-anchor="middle" font-family="'SF Mono', 'Cascadia Code', 'Fira Code', monospace">26</text>
<text x="260.0" y="321.5" font-size="8" fill="#666" text-anchor="middle" font-family="'SF Mono', 'Cascadia Code', 'Fira Code', monospace">26</text>
<text x="100.0" y="335.5" font-size="8" fill="#666" text-anchor="middle" font-family="'SF Mono', 'Cascadia Code', 'Fira Code', monospace">27</text>
<text x="260.0" y="335.5" font-size="8" fill="#666" text-anchor="middle" font-family="'SF Mono', 'Cascadia Code', 'Fira Code', monospace">27</text>
<text x="100.0" y="349.5" font-size="8" fill="#666" text-anchor="middle" font-family="'SF Mono', 'Cascadia Code', 'Fira Code', monospace">28</text>
<text x="260.0" y="349.5" font-size="8" fill="#666" text-anchor="middle" font-family="'SF Mono', 'Cascadia Code', 'Fira Code', monospace">28</text>
<text x="100.0" y="363.5" font-size="8" fill="#666" text-anchor="middle" font-family="'SF Mono', 'Cascadia Code', 'Fira Code', monospace">29</text>
<text x="260.0" y="363.5" font-size="8" fill="#666" text-anchor="middle" font-family="'SF Mono', 'Cascadia Code', 'Fira Code', monospace">29</text>
<rect x="160.0" y="90.0" width="82.0" height="78.0" rx="2" fill="#1a1a1a" stroke="#444" stroke-width="0.8"/>
<path d="M 197.0 90.0 a 4 4 0 0 1 8 0" fill="#333" stroke="none"/>
<g transform="translate(201.0,98.6) rotate(-90) skewX(-8)">
<line x1="-36.0" y1="-6.7" x2="36.0" y2="-6.7" stroke="#600" stroke-width="1.6" stroke-linecap="round"/>
<line x1="-36.0" y1="0.0" x2="36.0" y2="0.0" stroke="#600" stroke-width="1.6" stroke-linecap="round"/>
<line x1="-36.0" y1="6.7" x2="36.0" y2="6.7" stroke="#600" stroke-width="1.6" stroke-linecap="round"/>
<line x1="-37.0" y1="-5.7" x2="-37.0" y2="-1.0" stroke="#600" stroke-width="1.6" stroke-linecap="round"/>
<line x1="37.0" y1="-5.7" x2="37.0" y2="-1.0" stroke="#600" stroke-width="1.6" stroke-linecap="round"/>
<line x1="-37.0" y1="1.0" x2="-37.0" y2="5.7" stroke="#600" stroke-width="1.6" stroke-linecap="round"/>
<line x1="37.0" y1="1.0" x2="37.0" y2="5.7" stroke="#600" stroke-width="1.6" stroke-linecap="round"/>
</g>
<circle cx="201.0" cy="107.1" r="1.2" fill="#600"/>
<g transform="translate(201.0,117.9) rotate(-90) skewX(-8)">
<line x1="-36.0" y1="-6.7" x2="36.0" y2="-6.7" stroke="#600" stroke-width="1.6" stroke-linecap="round"/>
<line x1="-36.0" y1="0.0" x2="36.0" y2="0.0" stroke="#600" stroke-width="1.6" stroke-linecap="round"/>
<line x1="-36.0" y1="6.7" x2="36.0" y2="6.7" stroke="#600" stroke-width="1.6" stroke-linecap="round"/>
<line x1="-37.0" y1="-5.7" x2="-37.0" y2="-1.0" stroke="#600" stroke-width="1.6" stroke-linecap="round"/>
<line x1="37.0" y1="-5.7" x2="37.0" y2="-1.0" stroke="#600" stroke-width="1.6" stroke-linecap="round"/>
<line x1="-37.0" y1="1.0" x2="-37.0" y2="5.7" stroke="#600" stroke-width="1.6" stroke-linecap="round"/>
<line x1="37.0" y1="1.0" x2="37.0" y2="5.7" stroke="#600" stroke-width="1.6" stroke-linecap="round"/>
</g>
<circle cx="201.0" cy="126.3" r="1.2" fill="#600"/>
<g transform="translate(201.0,137.2) rotate(-90) skewX(-8)">
<line x1="-36.0" y1="-6.7" x2="36.0" y2="-6.7" stroke="#600" stroke-width="1.6" stroke-linecap="round"/>
<line x1="-36.0" y1="0.0" x2="36.0" y2="0.0" stroke="#600" stroke-width="1.6" stroke-linecap="round"/>
<line x1="-36.0" y1="6.7" x2="36.0" y2="6.7" stroke="#600" stroke-width="1.6" stroke-linecap="round"/>
<line x1="-37.0" y1="-5.7" x2="-37.0" y2="-1.0" stroke="#600" stroke-width="1.6" stroke-linecap="round"/>
<line x1="37.0" y1="-5.7" x2="37.0" y2="-1.0" stroke="#600" stroke-width="1.6" stroke-linecap="round"/>
<line x1="-37.0" y1="1.0" x2="-37.0" y2="5.7" stroke="#600" stroke-width="1.6" stroke-linecap="round"/>
<line x1="37.0" y1="1.0" x2="37.0" y2="5.7" stroke="#600" stroke-width="1.6" stroke-linecap="round"/>
</g>
<circle cx="201.0" cy="145.6" r="1.2" fill="#600"/>
<g transform="translate(201.0,156.4) rotate(-90) skewX(-8)">
<line x1="-36.0" y1="-6.7" x2="36.0" y2="-6.7" stroke="#600" stroke-width="1.6" stroke-linecap="round"/>
<line x1="-36.0" y1="0.0" x2="36.0" y2="0.0" stroke="#600" stroke-width="1.6" stroke-linecap="round"/>
<line x1="-36.0" y1="6.7" x2="36.0" y2="6.7" stroke="#600" stroke-width="1.6" stroke-linecap="round"/>
<line x1="-37.0" y1="-5.7" x2="-37.0" y2="-1.0" stroke="#600" stroke-width="1.6" stroke-linecap="round"/>
<line x1="37.0" y1="-5.7" x2="37.0" y2="-1.0" stroke="#600" stroke-width="1.6" stroke-linecap="round"/>
<line x1="-37.0" y1="1.0" x2="-37.0" y2="5.7" stroke="#600" stroke-width="1.6" stroke-linecap="round"/>
<line x1="37.0" y1="1.0" x2="37.0" y2="5.7" stroke="#600" stroke-width="1.6" stroke-linecap="round"/>
</g>
<circle cx="201.0" cy="164.9" r="1.2" fill="#600"/>
<circle cx="166.0" cy="94.0" r="1.5" fill="#999" stroke="#777" stroke-width="0.3"/>
<circle cx="166.0" cy="108.0" r="1.5" fill="#999" stroke="#777" stroke-width="0.3"/>
<circle cx="166.0" cy="122.0" r="1.5" fill="#999" stroke="#777" stroke-width="0.3"/>
<circle cx="166.0" cy="136.0" r="1.5" fill="#999" stroke="#777" stroke-width="0.3"/>
<circle cx="166.0" cy="150.0" r="1.5" fill="#999" stroke="#777" stroke-width="0.3"/>
<circle cx="166.0" cy="164.0" r="1.5" fill="#999" stroke="#777" stroke-width="0.3"/>
<circle cx="236.0" cy="94.0" r="1.5" fill="#999" stroke="#777" stroke-width="0.3"/>
<circle cx="236.0" cy="108.0" r="1.5" fill="#999" stroke="#777" stroke-width="0.3"/>
<circle cx="236.0" cy="122.0" r="1.5" fill="#999" stroke="#777" stroke-width="0.3"/>
<circle cx="236.0" cy="136.0" r="1.5" fill="#999" stroke="#777" stroke-width="0.3"/>
<circle cx="236.0" cy="150.0" r="1.5" fill="#999" stroke="#777" stroke-width="0.3"/>
<circle cx="236.0" cy="164.0" r="1.5" fill="#999" stroke="#777" stroke-width="0.3"/>
<circle cx="166.0" cy="311.0" r="8.0" fill="#333" stroke="#555" stroke-width="0.8"/>
<text x="163.0" y="308.0" font-size="7" fill="#aaa" font-weight="bold" font-family="system-ui, -apple-system, 'Segoe UI', sans-serif">+</text>
<path d="M 171.0 308.0 q 3 3 0 6" fill="none" stroke="#aaa" stroke-width="0.6" opacity="0.5"/>
<line x1="166.0" y1="304.0" x2="162.0" y2="311.0" stroke="#999" stroke-width="1.2"/>
<line x1="170.0" y1="311.0" x2="166.0" y2="318.0" stroke="#999" stroke-width="1.2"/>
<rect x="4.0" y="227.0" width="76.0" height="56.0" rx="4" fill="#1565c0" stroke="#263238" stroke-width="0.8" opacity="0.92"/>
<text x="42.0" y="238.0" font-size="8" fill="white" font-weight="600" text-anchor="middle" font-family="system-ui, -apple-system, 'Segoe UI', sans-serif">DS3231 RTC</text>
<text x="10.0" y="248.0" font-size="6" fill="#ccc" font-family="'SF Mono', 'Cascadia Code', 'Fira Code', monospace">SDA</text>
<line x1="80.0" y1="245.0" x2="110.0" y2="234.0" stroke="#1565c0" stroke-width="1.5" stroke-linecap="round" opacity="0.5" stroke-dasharray="3,3"/>
<text x="10.0" y="260.0" font-size="6" fill="#ccc" font-family="'SF Mono', 'Cascadia Code', 'Fira Code', monospace">SCL</text>
<line x1="80.0" y1="257.0" x2="110.0" y2="248.0" stroke="#1565c0" stroke-width="1.5" stroke-linecap="round" opacity="0.5" stroke-dasharray="3,3"/>
<text x="10.0" y="272.0" font-size="6" fill="#ccc" font-family="'SF Mono', 'Cascadia Code', 'Fira Code', monospace">VCC</text>
<line x1="80.0" y1="269.0" x2="110.0" y2="262.0" stroke="#1565c0" stroke-width="1.5" stroke-linecap="round" opacity="0.5" stroke-dasharray="3,3"/>
<text x="10.0" y="284.0" font-size="6" fill="#ccc" font-family="'SF Mono', 'Cascadia Code', 'Fira Code', monospace">GND</text>
<line x1="80.0" y1="281.0" x2="110.0" y2="276.0" stroke="#1565c0" stroke-width="1.5" stroke-linecap="round" opacity="0.5" stroke-dasharray="3,3"/>
<line x1="45.0" y1="94.0" x2="110.0" y2="94.0" stroke="#1565c0" stroke-width="2" stroke-linecap="round" opacity="0.8"/>
<rect x="4.0" y="88.0" width="41.0" height="12.0" rx="4" fill="#1565c0" opacity="0.92"/>
<text x="8.0" y="97.0" font-size="8" fill="white" font-weight="600" font-family="system-ui, -apple-system, 'Segoe UI', sans-serif">Pin 10</text>
<line x1="39.5" y1="108.0" x2="110.0" y2="108.0" stroke="#607d8b" stroke-width="2" stroke-linecap="round" opacity="0.8"/>
<rect x="4.0" y="102.0" width="35.5" height="12.0" rx="4" fill="#607d8b" opacity="0.92"/>
<text x="8.0" y="111.0" font-size="8" fill="white" font-weight="600" font-family="system-ui, -apple-system, 'Segoe UI', sans-serif">Pin 9</text>
<line x1="45.0" y1="122.0" x2="110.0" y2="122.0" stroke="#795548" stroke-width="2" stroke-linecap="round" opacity="0.8"/>
<rect x="4.0" y="116.0" width="41.0" height="12.0" rx="4" fill="#795548" opacity="0.92"/>
<text x="8.0" y="125.0" font-size="8" fill="white" font-weight="600" font-family="system-ui, -apple-system, 'Segoe UI', sans-serif">Pin 13</text>
<line x1="39.5" y1="136.0" x2="110.0" y2="136.0" stroke="#fdd835" stroke-width="2" stroke-linecap="round" opacity="0.8"/>
<rect x="4.0" y="130.0" width="35.5" height="12.0" rx="4" fill="#fdd835" opacity="0.92"/>
<text x="8.0" y="139.0" font-size="8" fill="white" font-weight="600" font-family="system-ui, -apple-system, 'Segoe UI', sans-serif">Pin 8</text>
<line x1="45.0" y1="150.0" x2="110.0" y2="150.0" stroke="#43a047" stroke-width="2" stroke-linecap="round" opacity="0.8"/>
<rect x="4.0" y="144.0" width="41.0" height="12.0" rx="4" fill="#43a047" opacity="0.92"/>
<text x="8.0" y="153.0" font-size="8" fill="white" font-weight="600" font-family="system-ui, -apple-system, 'Segoe UI', sans-serif">Pin 12</text>
<line x1="39.5" y1="164.0" x2="110.0" y2="164.0" stroke="#e53935" stroke-width="2" stroke-linecap="round" opacity="0.8"/>
<rect x="4.0" y="158.0" width="35.5" height="12.0" rx="4" fill="#e53935" opacity="0.92"/>
<text x="8.0" y="167.0" font-size="8" fill="white" font-weight="600" font-family="system-ui, -apple-system, 'Segoe UI', sans-serif">Pin 5</text>
<line x1="250.0" y1="94.0" x2="332.5" y2="94.0" stroke="#e53935" stroke-width="2" stroke-linecap="round" opacity="0.8"/>
<rect x="332.5" y="88.0" width="35.5" height="12.0" rx="4" fill="#e53935" opacity="0.92"/>
<text x="336.5" y="97.0" font-size="8" fill="white" font-weight="600" font-family="system-ui, -apple-system, 'Segoe UI', sans-serif">Pin 2</text>
<line x1="250.0" y1="108.0" x2="332.5" y2="108.0" stroke="#ff6f00" stroke-width="2" stroke-linecap="round" opacity="0.8"/>
<rect x="332.5" y="102.0" width="35.5" height="12.0" rx="4" fill="#ff6f00" opacity="0.92"/>
<text x="336.5" y="111.0" font-size="8" fill="white" font-weight="600" font-family="system-ui, -apple-system, 'Segoe UI', sans-serif">Pin 6</text>
<line x1="250.0" y1="122.0" x2="327.0" y2="122.0" stroke="#7b1fa2" stroke-width="2" stroke-linecap="round" opacity="0.8"/>
<rect x="327.0" y="116.0" width="41.0" height="12.0" rx="4" fill="#7b1fa2" opacity="0.92"/>
<text x="331.0" y="125.0" font-size="8" fill="white" font-weight="600" font-family="system-ui, -apple-system, 'Segoe UI', sans-serif">Pin 11</text>
<line x1="250.0" y1="136.0" x2="332.5" y2="136.0" stroke="#ff6f00" stroke-width="2" stroke-linecap="round" opacity="0.8"/>
<rect x="332.5" y="130.0" width="35.5" height="12.0" rx="4" fill="#ff6f00" opacity="0.92"/>
<text x="336.5" y="139.0" font-size="8" fill="white" font-weight="600" font-family="system-ui, -apple-system, 'Segoe UI', sans-serif">Pin 4</text>
<line x1="250.0" y1="150.0" x2="332.5" y2="150.0" stroke="#43a047" stroke-width="2" stroke-linecap="round" opacity="0.8"/>
<rect x="332.5" y="144.0" width="35.5" height="12.0" rx="4" fill="#43a047" opacity="0.92"/>
<text x="336.5" y="153.0" font-size="8" fill="white" font-weight="600" font-family="system-ui, -apple-system, 'Segoe UI', sans-serif">Pin 7</text>
<line x1="250.0" y1="164.0" x2="332.5" y2="164.0" stroke="#fdd835" stroke-width="2" stroke-linecap="round" opacity="0.8"/>
<rect x="332.5" y="158.0" width="35.5" height="12.0" rx="4" fill="#fdd835" opacity="0.92"/>
<text x="336.5" y="167.0" font-size="8" fill="white" font-weight="600" font-family="system-ui, -apple-system, 'Segoe UI', sans-serif">Pin 3</text>
<line x1="45.0" y1="234.0" x2="110.0" y2="234.0" stroke="#1565c0" stroke-width="2" stroke-linecap="round" opacity="0.8"/>
<rect x="4.0" y="228.0" width="41.0" height="12.0" rx="4" fill="#1565c0" opacity="0.92"/>
<text x="8.0" y="237.0" font-size="8" fill="white" font-weight="600" font-family="system-ui, -apple-system, 'Segoe UI', sans-serif">Pin 20</text>
<line x1="45.0" y1="248.0" x2="110.0" y2="248.0" stroke="#43a047" stroke-width="2" stroke-linecap="round" opacity="0.8"/>
<rect x="4.0" y="242.0" width="41.0" height="12.0" rx="4" fill="#43a047" opacity="0.92"/>
<text x="8.0" y="251.0" font-size="8" fill="white" font-weight="600" font-family="system-ui, -apple-system, 'Segoe UI', sans-serif">Pin 21</text>
<line x1="36.0" y1="262.0" x2="110.0" y2="262.0" stroke="#e53935" stroke-width="2" stroke-linecap="round" opacity="0.8"/>
<rect x="4.0" y="256.0" width="32.0" height="12.0" rx="4" fill="#e53935" opacity="0.92"/>
<text x="8.0" y="265.0" font-size="8" fill="white" font-weight="600" font-family="system-ui, -apple-system, 'Segoe UI', sans-serif">5V</text>
<line x1="36.0" y1="276.0" x2="110.0" y2="276.0" stroke="#333333" stroke-width="2" stroke-linecap="round" opacity="0.8"/>
<rect x="4.0" y="270.0" width="32.0" height="12.0" rx="4" fill="#333333" opacity="0.92"/>
<text x="8.0" y="279.0" font-size="8" fill="white" font-weight="600" font-family="system-ui, -apple-system, 'Segoe UI', sans-serif">GND</text>
<line x1="45.0" y1="304.0" x2="110.0" y2="304.0" stroke="#7b1fa2" stroke-width="2" stroke-linecap="round" opacity="0.8"/>
<rect x="4.0" y="298.0" width="41.0" height="12.0" rx="4" fill="#7b1fa2" opacity="0.92"/>
<text x="8.0" y="307.0" font-size="8" fill="white" font-weight="600" font-family="system-ui, -apple-system, 'Segoe UI', sans-serif">Pin 45</text>
<line x1="36.0" y1="318.0" x2="110.0" y2="318.0" stroke="#333333" stroke-width="2" stroke-linecap="round" opacity="0.8"/>
<rect x="4.0" y="312.0" width="32.0" height="12.0" rx="4" fill="#333333" opacity="0.92"/>
<text x="8.0" y="321.0" font-size="8" fill="white" font-weight="600" font-family="system-ui, -apple-system, 'Segoe UI', sans-serif">GND</text>
<text x="68.0" y="392.0" font-size="8" fill="#999" font-weight="600" letter-spacing="0.5" font-family="system-ui, -apple-system, 'Segoe UI', sans-serif">COMPONENTS</text>
<circle cx="73.0" cy="403.0" r="4.0" fill="#1a1a1a" stroke="#0002" stroke-width="0.5"/>
<text x="82.0" y="406.0" font-size="9" fill="#444" font-family="system-ui, -apple-system, 'Segoe UI', sans-serif">4-digit 7-segment display (row 10)</text>
<circle cx="73.0" cy="418.0" r="4.0" fill="#333" stroke="#0002" stroke-width="0.5"/>
<text x="82.0" y="421.0" font-size="9" fill="#444" font-family="system-ui, -apple-system, 'Segoe UI', sans-serif">active buzzer  e25(+) → e26(–)</text>
<circle cx="73.0" cy="433.0" r="4.0" fill="#1565c0" stroke="#0002" stroke-width="0.5"/>
<text x="82.0" y="436.0" font-size="9" fill="#444" font-family="system-ui, -apple-system, 'Segoe UI', sans-serif">DS3231 RTC</text>
<text x="68.0" y="457.0" font-size="8" fill="#999" font-weight="600" letter-spacing="0.5" font-family="system-ui, -apple-system, 'Segoe UI', sans-serif">WIRES</text>
<line x1="69.0" y1="468.0" x2="78.0" y2="468.0" stroke="#1565c0" stroke-width="3" stroke-linecap="round"/>
<text x="84.0" y="471.0" font-size="9" fill="#444" font-family="system-ui, -apple-system, 'Segoe UI', sans-serif">seg E (pin 1) — HERO XL Pin 10</text>
<line x1="69.0" y1="483.0" x2="78.0" y2="483.0" stroke="#607d8b" stroke-width="3" stroke-linecap="round"/>
<text x="84.0" y="486.0" font-size="9" fill="#444" font-family="system-ui, -apple-system, 'Segoe UI', sans-serif">seg D (pin 2) — HERO XL Pin 9</text>
<line x1="69.0" y1="498.0" x2="78.0" y2="498.0" stroke="#795548" stroke-width="3" stroke-linecap="round"/>
<text x="84.0" y="501.0" font-size="9" fill="#444" font-family="system-ui, -apple-system, 'Segoe UI', sans-serif">seg DP (pin 3) — HERO XL Pin 13</text>
<line x1="69.0" y1="513.0" x2="78.0" y2="513.0" stroke="#fdd835" stroke-width="3" stroke-linecap="round"/>
<text x="84.0" y="516.0" font-size="9" fill="#444" font-family="system-ui, -apple-system, 'Segoe UI', sans-serif">seg C (pin 4) — HERO XL Pin 8</text>
<line x1="69.0" y1="528.0" x2="78.0" y2="528.0" stroke="#43a047" stroke-width="3" stroke-linecap="round"/>
<text x="84.0" y="531.0" font-size="9" fill="#444" font-family="system-ui, -apple-system, 'Segoe UI', sans-serif">seg G (pin 5) — HERO XL Pin 12</text>
<line x1="69.0" y1="543.0" x2="78.0" y2="543.0" stroke="#e53935" stroke-width="3" stroke-linecap="round"/>
<text x="84.0" y="546.0" font-size="9" fill="#444" font-family="system-ui, -apple-system, 'Segoe UI', sans-serif">digit 4 (pin 6) — HERO XL Pin 5</text>
<line x1="69.0" y1="558.0" x2="78.0" y2="558.0" stroke="#e53935" stroke-width="3" stroke-linecap="round"/>
<text x="84.0" y="561.0" font-size="9" fill="#444" font-family="system-ui, -apple-system, 'Segoe UI', sans-serif">digit 1 (pin 12) — HERO XL Pin 2</text>
<line x1="69.0" y1="573.0" x2="78.0" y2="573.0" stroke="#ff6f00" stroke-width="3" stroke-linecap="round"/>
<text x="84.0" y="576.0" font-size="9" fill="#444" font-family="system-ui, -apple-system, 'Segoe UI', sans-serif">seg A (pin 11) — HERO XL Pin 6</text>
<line x1="69.0" y1="588.0" x2="78.0" y2="588.0" stroke="#7b1fa2" stroke-width="3" stroke-linecap="round"/>
<text x="84.0" y="591.0" font-size="9" fill="#444" font-family="system-ui, -apple-system, 'Segoe UI', sans-serif">seg F (pin 10) — HERO XL Pin 11</text>
<line x1="69.0" y1="603.0" x2="78.0" y2="603.0" stroke="#ff6f00" stroke-width="3" stroke-linecap="round"/>
<text x="84.0" y="606.0" font-size="9" fill="#444" font-family="system-ui, -apple-system, 'Segoe UI', sans-serif">digit 2 (pin 9) — HERO XL Pin 4</text>
<line x1="69.0" y1="618.0" x2="78.0" y2="618.0" stroke="#43a047" stroke-width="3" stroke-linecap="round"/>
<text x="84.0" y="621.0" font-size="9" fill="#444" font-family="system-ui, -apple-system, 'Segoe UI', sans-serif">seg B (pin 8) — HERO XL Pin 7</text>
<line x1="69.0" y1="633.0" x2="78.0" y2="633.0" stroke="#fdd835" stroke-width="3" stroke-linecap="round"/>
<text x="84.0" y="636.0" font-size="9" fill="#444" font-family="system-ui, -apple-system, 'Segoe UI', sans-serif">digit 3 (pin 7) — HERO XL Pin 3</text>
<line x1="69.0" y1="648.0" x2="78.0" y2="648.0" stroke="#1565c0" stroke-width="3" stroke-linecap="round"/>
<text x="84.0" y="651.0" font-size="9" fill="#444" font-family="system-ui, -apple-system, 'Segoe UI', sans-serif">RTC SDA — HERO XL Pin 20</text>
<line x1="69.0" y1="663.0" x2="78.0" y2="663.0" stroke="#43a047" stroke-width="3" stroke-linecap="round"/>
<text x="84.0" y="666.0" font-size="9" fill="#444" font-family="system-ui, -apple-system, 'Segoe UI', sans-serif">RTC SCL — HERO XL Pin 21</text>
<line x1="69.0" y1="678.0" x2="78.0" y2="678.0" stroke="#e53935" stroke-width="3" stroke-linecap="round"/>
<text x="84.0" y="681.0" font-size="9" fill="#444" font-family="system-ui, -apple-system, 'Segoe UI', sans-serif">RTC power — HERO XL 5V</text>
<line x1="69.0" y1="693.0" x2="78.0" y2="693.0" stroke="#333333" stroke-width="3" stroke-linecap="round"/>
<text x="84.0" y="696.0" font-size="9" fill="#444" font-family="system-ui, -apple-system, 'Segoe UI', sans-serif">RTC ground — HERO XL GND</text>
<line x1="69.0" y1="708.0" x2="78.0" y2="708.0" stroke="#7b1fa2" stroke-width="3" stroke-linecap="round"/>
<text x="84.0" y="711.0" font-size="9" fill="#444" font-family="system-ui, -apple-system, 'Segoe UI', sans-serif">buzzer — HERO XL Pin 45</text>
<line x1="69.0" y1="723.0" x2="78.0" y2="723.0" stroke="#333333" stroke-width="3" stroke-linecap="round"/>
<text x="84.0" y="726.0" font-size="9" fill="#444" font-family="system-ui, -apple-system, 'Segoe UI', sans-serif">buzzer ground — HERO XL GND</text>
<text x="180.0" y="18.0" font-size="13" fill="#222" font-weight="700" text-anchor="middle" font-family="system-ui, -apple-system, 'Segoe UI', sans-serif">Alarm Clock — RTC + 7-Segment + Buzzer</text>
<text x="180.0" y="30.0" font-size="9" fill="#999" text-anchor="middle" font-family="system-ui, -apple-system, 'Segoe UI', sans-serif">rows 7–29 of 63</text>
</svg>