<?xml version="1.0" encoding="UTF-8"?>
<svg xmlns="http://www.w3.org/2000/svg"
     viewBox="0 0 312 560"
     width="312" height="560"
     style="background:#fff">
<rect x="70.0" y="42.0" width="224.0" height="276.0" rx="8" fill="#00000015"/>
<rect x="68.0" y="40.0" width="224.0" height="276.0" rx="8" fill="#e8dcc8" stroke="#b8a88a" stroke-width="1.2"/>
<rect x="173.0" y="44.0" width="14.0" height="268.0" rx="2" fill="#d4c8b0" stroke="#c4b898" stroke-width="0.4"/>
<line x1="80.0" y1="44.0" x2="80.0" y2="312.0" stroke="#d32f2f" stroke-width="1.2" opacity="0.2" stroke-dasharray="3,5"/>
<line x1="90.0" y1="44.0" x2="90.0" y2="312.0" stroke="#1565c0" stroke-width="1.2" opacity="0.2" stroke-dasharray="3,5"/>
<line x1="270.0" y1="44.0" x2="270.0" y2="312.0" stroke="#d32f2f" stroke-width="1.2" opacity="0.2" stroke-dasharray="3,5"/>
<line x1="280.0" y1="44.0" x2="280.0" y2="312.0" stroke="#1565c0" stroke-width="1.2" opacity="0.2" stroke-dasharray="3,5"/>
<rect x="105.0" y="89.0" width="66.0" height="10.0" rx="3" fill="#ffeaa7" opacity="0.25"/>
<rect x="189.0" y="89.0" width="66.0" height="10.0" rx="3" fill="#ffeaa7" opacity="0.25"/>
<rect x="105.0" y="103.0" width="66.0" height="10.0" rx="3" fill="#ffeaa7" opacity="0.25"/>
<rect x="189.0" y="103.0" width="66.0" height="10.0" rx="3" fill="#ffeaa7" opacity="0.25"/>
<rect x="105.0" y="117.0" width="66.0" height="10.0" rx="3" fill="#ffeaa7" opacity="0.25"/>
<rect x="189.0" y="117.0" width="66.0" height="10.0" rx="3" fill="#ffeaa7" opacity="0.25"/>
<rect x="105.0" y="131.0" width="66.0" height="10.0" rx="3" fill="#ffeaa7" opacity="0.25"/>
<rect x="189.0" y="131.0" width="66.0" height="10.0" rx="3" fill="#ffeaa7" opacity="0.25"/>
<rect x="105.0" y="159.0" width="66.0" height="10.0" rx="3" fill="#ffeaa7" opacity="0.25"/>
<rect x="189.0" y="159.0" width="66.0" height="10.0" rx="3" fill="#ffeaa7" opacity="0.25"/>
<rect x="105.0" y="173.0" width="66.0" height="10.0" rx="3" fill="#ffeaa7" opacity="0.25"/>
<rect x="189.0" y="173.0" width="66.0" height="10.0" rx="3" fill="#ffeaa7" opacity="0.25"/>
<rect x="105.0" y="187.0" width="66.0" height="10.0" rx="3" fill="#ffeaa7" opacity="0.25"/>
<rect x="189.0" y="187.0" width="66.0" height="10.0" rx="3" fill="#ffeaa7" opacity="0.25"/>
<rect x="105.0" y="201.0" width="66.0" height="10.0" rx="3" fill="#ffeaa7" opacity="0.25"/>
<rect x="189.0" y="201.0" width="66.0" height="10.0" rx="3" fill="#ffeaa7" opacity="0.25"/>
<rect x="105.0" y="215.0" width="66.0" height="10.0" rx="3" fill="#ffeaa7" opacity="0.25"/>
<rect x="189.0" y="215.0" width="66.0" height="10.0" rx="3" fill="#ffeaa7" opacity="0.25"/>
<rect x="105.0" y="229.0" width="66.0" height="10.0" rx="3" fill="#ffeaa7" opacity="0.25"/>
<rect x="189.0" y="229.0" width="66.0" height="10.0" rx="3" fill="#ffeaa7" opacity="0.25"/>
<rect x="105.0" y="243.0" width="66.0" height="10.0" rx="3" fill="#ffeaa7" opacity="0.25"/>
<rect x="189.0" y="243.0" width="66.0" height="10.0" rx="3" fill="#ffeaa7" opacity="0.25"/>
<rect x="105.0" y="257.0" width="66.0" height="10.0" rx="3" fill="#ffeaa7" opacity="0.25"/>
<rect x="189.0" y="257.0" width="66.0" height="10.0" rx="3" fill="#ffeaa7" opacity="0.25"/>
<circle cx="110.0" cy="52.0" r="3.0" fill="#2a2a2a"/>
<circle cx="110.0" cy="66.0" r="3.0" fill="#2a2a2a"/>
<circle cx="110.0" cy="80.0" r="3.0" fill="#2a2a2a"/>
<circle cx="110.0" cy="94.0" r="3.0" fill="#666"/>
<circle cx="110.0" cy="108.0" r="3.0" fill="#666"/>
<circle cx="110.0" cy="122.0" r="3.0" fill="#666"/>
<circle cx="110.0" cy="136.0" r="3.0" fill="#666"/>
<circle cx="110.0" cy="150.0" r="3.0" fill="#2a2a2a"/>
<circle cx="110.0" cy="164.0" r="3.0" fill="#666"/>
<circle cx="110.0" cy="178.0" r="3.0" fill="#666"/>
<circle cx="110.0" cy="192.0" r="3.0" fill="#666"/>
<circle cx="110.0" cy="206.0" r="3.0" fill="#666"/>
<circle cx="110.0" cy="220.0" r="3.0" fill="#666"/>
<circle cx="110.0" cy="234.0" r="3.0" fill="#666"/>
<circle cx="110.0" cy="248.0" r="3.0" fill="#666"/>
<circle cx="110.0" cy="262.0" r="3.0" fill="#666"/>
<circle cx="110.0" cy="276.0" r="3.0" fill="#2a2a2a"/>
<circle cx="110.0" cy="290.0" r="3.0" fill="#2a2a2a"/>
<circle cx="110.0" cy="304.0" r="3.0" fill="#2a2a2a"/>
<circle cx="124.0" cy="52.0" r="3.0" fill="#2a2a2a"/>
<circle cx="124.0" cy="66.0" r="3.0" fill="#2a2a2a"/>
<circle cx="124.0" cy="80.0" r="3.0" fill="#2a2a2a"/>
<circle cx="124.0" cy="94.0" r="3.0" fill="#2a2a2a"/>
<circle cx="124.0" cy="108.0" r="3.0" fill="#2a2a2a"/>
<circle cx="124.0" cy="122.0" r="3.0" fill="#2a2a2a"/>
<circle cx="124.0" cy="136.0" r="3.0" fill="#2a2a2a"/>
<circle cx="124.0" cy="150.0" r="3.0" fill="#2a2a2a"/>
<circle cx="124.0" cy="164.0" r="3.0" fill="#2a2a2a"/>
<circle cx="124.0" cy="178.0" r="3.0" fill="#2a2a2a"/>
<circle cx="124.0" cy="192.0" r="3.0" fill="#2a2a2a"/>
<circle cx="124.0" cy="206.0" r="3.0" fill="#2a2a2a"/>
<circle cx="124.0" cy="220.0" r="3.0" fill="#2a2a2a"/>
<circle cx="124.0" cy="234.0" r="3.0" fill="#2a2a2a"/>
<circle cx="124.0" cy="248.0" r="3.0" fill="#2a2a2a"/>
<circle cx="124.0" cy="262.0" r="3.0" fill="#2a2a2a"/>
<circle cx="124.0" cy="276.0" r="3.0" fill="#2a2a2a"/>
<circle cx="124.0" cy="290.0" r="3.0" fill="#2a2a2a"/>
<circle cx="124.0" cy="304.0" r="3.0" fill="#2a2a2a"/>
<circle cx="138.0" cy="52.0" r="3.0" fill="#2a2a2a"/>
<circle cx="138.0" cy="66.0" r="3.0" fill="#2a2a2a"/>
<circle cx="138.0" cy="80.0" r="3.0" fill="#2a2a2a"/>
<circle cx="138.0" cy="94.0" r="3.0" fill="#2a2a2a"/>
<circle cx="138.0" cy="108.0" r="3.0" fill="#2a2a2a"/>
<circle cx="138.0" cy="122.0" r="3.0" fill="#2a2a2a"/>
<circle cx="138.0" cy="136.0" r="3.0" fill="#2a2a2a"/>
<circle cx="138.0" cy="150.0" r="3.0" fill="#2a2a2a"/>
<circle cx="138.0" cy="164.0" r="3.0" fill="#2a2a2a"/>
<circle cx="138.0" cy="178.0" r="3.0" fill="#2a2a2a"/>
<circle cx="138.0" cy="192.0" r="3.0" fill="#2a2a2a"/>
<circle cx="138.0" cy="206.0" r="3.0" fill="#2a2a2a"/>
<circle cx="138.0" cy="220.0" r="3.0" fill="#2a2a2a"/>
<circle cx="138.0" cy="234.0" r="3.0" fill="#2a2a2a"/>
<circle cx="138.0" cy="248.0" r="3.0" fill="#2a2a2a"/>
<circle cx="138.0" cy="262.0" r="3.0" fill="#2a2a2a"/>
<circle cx="138.0" cy="276.0" r="3.0" fill="#2a2a2a"/>
<circle cx="138.0" cy="290.0" r="3.0" fill="#2a2a2a"/>
<circle cx="138.0" cy="304.0" r="3.0" fill="#2a2a2a"/>
<circle cx="152.0" cy="52.0" r="3.0" fill="#2a2a2a"/>
<circle cx="152.0" cy="66.0" r="3.0" fill="#2a2a2a"/>
<circle cx="152.0" cy="80.0" r="3.0" fill="#2a2a2a"/>
<circle cx="152.0" cy="94.0" r="3.0" fill="#2a2a2a"/>
<circle cx="152.0" cy="108.0" r="3.0" fill="#2a2a2a"/>
<circle cx="152.0" cy="122.0" r="3.0" fill="#2a2a2a"/>
<circle cx="152.0" cy="136.0" r="3.0" fill="#2a2a2a"/>
<circle cx="152.0" cy="150.0" r="3.0" fill="#2a2a2a"/>
<circle cx="152.0" cy="164.0" r="3.0" fill="#2a2a2a"/>
<circle cx="152.0" cy="178.0" r="3.0" fill="#2a2a2a"/>
<circle cx="152.0" cy="192.0" r="3.0" fill="#2a2a2a"/>
<circle cx="152.0" cy="206.0" r="3.0" fill="#2a2a2a"/>
<circle cx="152.0" cy="220.0" r="3.0" fill="#2a2a2a"/>
<circle cx="152.0" cy="234.0" r="3.0" fill="#2a2a2a"/>
<circle cx="152.0" cy="248.0" r="3.0" fill="#2a2a2a"/>
<circle cx="152.0" cy="262.0" r="3.0" fill="#2a2a2a"/>
<circle cx="152.0" cy="276.0" r="3.0" fill="#2a2a2a"/>
<circle cx="152.0" cy="290.0" r="3.0" fill="#2a2a2a"/>
<circle cx="152.0" cy="304.0" r="3.0" fill="#2a2a2a"/>
<circle cx="166.0" cy="52.0" r="3.0" fill="#2a2a2a"/>
<circle cx="166.0" cy="66.0" r="3.0" fill="#2a2a2a"/>
<circle cx="166.0" cy="80.0" r="3.0" fill="#2a2a2a"/>
<circle cx="166.0" cy="94.0" r="3.0" fill="#2a2a2a"/>
<circle cx="166.0" cy="108.0" r="3.0" fill="#2a2a2a"/>
<circle cx="166.0" cy="122.0" r="3.0" fill="#2a2a2a"/>
<circle cx="166.0" cy="136.0" r="3.0" fill="#2a2a2a"/>
<circle cx="166.0" cy="150.0" r="3.0" fill="#2a2a2a"/>
<circle cx="166.0" cy="164.0" r="3.0" fill="#2a2a2a"/>
<circle cx="166.0" cy="178.0" r="3.0" fill="#2a2a2a"/>
<circle cx="166.0" cy="192.0" r="3.0" fill="#2a2a2a"/>
<circle cx="166.0" cy="206.0" r="3.0" fill="#2a2a2a"/>
<circle cx="166.0" cy="220.0" r="3.0" fill="#2a2a2a"/>
<circle cx="166.0" cy="234.0" r="3.0" fill="#2a2a2a"/>
<circle cx="166.0" cy="248.0" r="3.0" fill="#2a2a2a"/>
<circle cx="166.0" cy="262.0" r="3.0" fill="#2a2a2a"/>
<circle cx="166.0" cy="276.0" r="3.0" fill="#2a2a2a"/>
<circle cx="166.0" cy="290.0" r="3.0" fill="#2a2a2a"/>
<circle cx="166.0" cy="304.0" r="3.0" fill="#2a2a2a"/>
<circle cx="194.0" cy="52.0" r="3.0" fill="#2a2a2a"/>
<circle cx="194.0" cy="66.0" r="3.0" fill="#2a2a2a"/>
<circle cx="194.0" cy="80.0" r="3.0" fill="#2a2a2a"/>
<circle cx="194.0" cy="94.0" r="3.0" fill="#2a2a2a"/>
<circle cx="194.0" cy="108.0" r="3.0" fill="#2a2a2a"/>
<circle cx="194.0" cy="122.0" r="3.0" fill="#2a2a2a"/>
<circle cx="194.0" cy="136.0" r="3.0" fill="#2a2a2a"/>
<circle cx="194.0" cy="150.0" r="3.0" fill="#2a2a2a"/>
<circle cx="194.0" cy="164.0" r="3.0" fill="#2a2a2a"/>
<circle cx="194.0" cy="178.0" r="3.0" fill="#2a2a2a"/>
<circle cx="194.0" cy="192.0" r="3.0" fill="#2a2a2a"/>
<circle cx="194.0" cy="206.0" r="3.0" fill="#2a2a2a"/>
<circle cx="194.0" cy="220.0" r="3.0" fill="#2a2a2a"/>
<circle cx="194.0" cy="234.0" r="3.0" fill="#2a2a2a"/>
<circle cx="194.0" cy="248.0" r="3.0" fill="#2a2a2a"/>
<circle cx="194.0" cy="262.0" r="3.0" fill="#2a2a2a"/>
<circle cx="194.0" cy="276.0" r="3.0" fill="#2a2a2a"/>
<circle cx="194.0" cy="290.0" r="3.0" fill="#2a2a2a"/>
<circle cx="194.0" cy="304.0" r="3.0" fill="#2a2a2a"/>
<circle cx="208.0" cy="52.0" r="3.0" fill="#2a2a2a"/>
<circle cx="208.0" cy="66.0" r="3.0" fill="#2a2a2a"/>
<circle cx="208.0" cy="80.0" r="3.0" fill="#2a2a2a"/>
<circle cx="208.0" cy="94.0" r="3.0" fill="#2a2a2a"/>
<circle cx="208.0" cy="108.0" r="3.0" fill="#2a2a2a"/>
<circle cx="208.0" cy="122.0" r="3.0" fill="#2a2a2a"/>
<circle cx="208.0" cy="136.0" r="3.0" fill="#2a2a2a"/>
<circle cx="208.0" cy="150.0" r="3.0" fill="#2a2a2a"/>
<circle cx="208.0" cy="164.0" r="3.0" fill="#2a2a2a"/>
<circle cx="208.0" cy="178.0" r="3.0" fill="#2a2a2a"/>
<circle cx="208.0" cy="192.0" r="3.0" fill="#2a2a2a"/>
<circle cx="208.0" cy="206.0" r="3.0" fill="#2a2a2a"/>
<circle cx="208.0" cy="220.0" r="3.0" fill="#2a2a2a"/>
<circle cx="208.0" cy="234.0" r="3.0" fill="#2a2a2a"/>
<circle cx="208.0" cy="248.0" r="3.0" fill="#2a2a2a"/>
<circle cx="208.0" cy="262.0" r="3.0" fill="#2a2a2a"/>
<circle cx="208.0" cy="276.0" r="3.0" fill="#2a2a2a"/>
<circle cx="208.0" cy="290.0" r="3.0" fill="#2a2a2a"/>
<circle cx="208.0" cy="304.0" r="3.0" fill="#2a2a2a"/>
<circle cx="222.0" cy="52.0" r="3.0" fill="#2a2a2a"/>
<circle cx="222.0" cy="66.0" r="3.0" fill="#2a2a2a"/>
<circle cx="222.0" cy="80.0" r="3.0" fill="#2a2a2a"/>
<circle cx="222.0" cy="94.0" r="3.0" fill="#2a2a2a"/>
<circle cx="222.0" cy="108.0" r="3.0" fill="#2a2a2a"/>
<circle cx="222.0" cy="122.0" r="3.0" fill="#2a2a2a"/>
<circle cx="222.0" cy="136.0" r="3.0" fill="#2a2a2a"/>
<circle cx="222.0" cy="150.0" r="3.0" fill="#2a2a2a"/>
<circle cx="222.0" cy="164.0" r="3.0" fill="#2a2a2a"/>
<circle cx="222.0" cy="178.0" r="3.0" fill="#2a2a2a"/>
<circle cx="222.0" cy="192.0" r="3.0" fill="#2a2a2a"/>
<circle cx="222.0" cy="206.0" r="3.0" fill="#2a2a2a"/>
<circle cx="222.0" cy="220.0" r="3.0" fill="#2a2a2a"/>
<circle cx="222.0" cy="234.0" r="3.0" fill="#2a2a2a"/>
<circle cx="222.0" cy="248.0" r="3.0" fill="#2a2a2a"/>
<circle cx="222.0" cy="262.0" r="3.0" fill="#2a2a2a"/>
<circle cx="222.0" cy="276.0" r="3.0" fill="#2a2a2a"/>
<circle cx="222.0" cy="290.0" r="3.0" fill="#2a2a2a"/>
<circle cx="222.0" cy="304.0" r="3.0" fill="#2a2a2a"/>
<circle cx="236.0" cy="52.0" r="3.0" fill="#2a2a2a"/>
<circle cx="236.0" cy="66.0" r="3.0" fill="#2a2a2a"/>
<circle cx="236.0" cy="80.0" r="3.0" fill="#2a2a2a"/>
<circle cx="236.0" cy="94.0" r="3.0" fill="#2a2a2a"/>
<circle cx="236.0" cy="108.0" r="3.0" fill="#2a2a2a"/>
<circle cx="236.0" cy="122.0" r="3.0" fill="#2a2a2a"/>
<circle cx="236.0" cy="136.0" r="3.0" fill="#2a2a2a"/>
<circle cx="236.0" cy="150.0" r="3.0" fill="#2a2a2a"/>
<circle cx="236.0" cy="164.0" r="3.0" fill="#2a2a2a"/>
<circle cx="236.0" cy="178.0" r="3.0" fill="#2a2a2a"/>
<circle cx="236.0" cy="192.0" r="3.0" fill="#2a2a2a"/>
<circle cx="236.0" cy="206.0" r="3.0" fill="#2a2a2a"/>
<circle cx="236.0" cy="220.0" r="3.0" fill="#2a2a2a"/>
<circle cx="236.0" cy="234.0" r="3.0" fill="#2a2a2a"/>
<circle cx="236.0" cy="248.0" r="3.0" fill="#2a2a2a"/>
<circle cx="236.0" cy="262.0" r="3.0" fill="#2a2a2a"/>
<circle cx="236.0" cy="276.0" r="3.0" fill="#2a2a2a"/>
<circle cx="236.0" cy="290.0" r="3.0" fill="#2a2a2a"/>
<circle cx="236.0" cy="304.0" r="3.0" fill="#2a2a2a"/>
<circle cx="250.0" cy="52.0" r="3.0" fill="#2a2a2a"/>
<circle cx="250.0" cy="66.0" r="3.0" fill="#2a2a2a"/>
<circle cx="250.0" cy="80.0" r="3.0" fill="#2a2a2a"/>
<circle cx="250.0" cy="94.0" r="3.0" fill="#2a2a2a"/>
<circle cx="250.0" cy="108.0" r="3.0" fill="#2a2a2a"/>
<circle cx="250.0" cy="122.0" r="3.0" fill="#2a2a2a"/>
<circle cx="250.0" cy="136.0" r="3.0" fill="#2a2a2a"/>
<circle cx="250.0" cy="150.0" r="3.0" fill="#2a2a2a"/>
<circle cx="250.0" cy="164.0" r="3.0" fill="#2a2a2a"/>
<circle cx="250.0" cy="178.0" r="3.0" fill="#2a2a2a"/>
<circle cx="250.0" cy="192.0" r="3.0" fill="#2a2a2a"/>
<circle cx="250.0" cy="206.0" r="3.0" fill="#2a2a2a"/>
<circle cx="250.0" cy="220.0" r="3.0" fill="#2a2a2a"/>
<circle cx="250.0" cy="234.0" r="3.0" fill="#2a2a2a"/>
<circle cx="250.0" cy="248.0" r="3.0" fill="#2a2a2a"/>
<circle cx="250.0" cy="262.0" r="3.0" fill="#2a2a2a"/>
<circle cx="250.0" cy="276.0" r="3.0" fill="#2a2a2a"/>
<circle cx="250.0" cy="290.0" r="3.0" fill="#2a2a2a"/>
<circle cx="250.0" cy="304.0" r="3.0" fill="#2a2a2a"/>
<circle cx="80.0" cy="66.0" r="2.5" fill="#2a2a2a"/>
<circle cx="80.0" cy="80.0" r="2.5" fill="#2a2a2a"/>
<circle cx="80.0" cy="94.0" r="2.5" fill="#2a2a2a"/>
<circle cx="80.0" cy="108.0" r="2.5" fill="#2a2a2a"/>
<circle cx="80.0" cy="122.0" r="2.5" fill="#2a2a2a"/>
<circle cx="80.0" cy="150.0" r="2.5" fill="#2a2a2a"/>
<circle cx="80.0" cy="164.0" r="2.5" fill="#2a2a2a"/>
<circle cx="80.0" cy="178.0" r="2.5" fill="#2a2a2a"/>
<circle cx="80.0" cy="192.0" r="2.5" fill="#2a2a2a"/>
<circle cx="80.0" cy="206.0" r="2.5" fill="#2a2a2a"/>
<circle cx="80.0" cy="234.0" r="2.5" fill="#2a2a2a"/>
<circle cx="80.0" cy="248.0" r="2.5" fill="#2a2a2a"/>
<circle cx="80.0" cy="262.0" r="2.5" fill="#2a2a2a"/>
<circle cx="80.0" cy="276.0" r="2.5" fill="#2a2a2a"/>
<circle cx="80.0" cy="290.0" r="2.5" fill="#2a2a2a"/>
<circle cx="90.0" cy="66.0" r="2.5" fill="#2a2a2a"/>
<circle cx="90.0" cy="80.0" r="2.5" fill="#2a2a2a"/>
<circle cx="90.0" cy="94.0" r="2.5" fill="#2a2a2a"/>
<circle cx="90.0" cy="108.0" r="2.5" fill="#2a2a2a"/>
<circle cx="90.0" cy="122.0" r="2.5" fill="#2a2a2a"/>
<circle cx="90.0" cy="150.0" r="2.5" fill="#2a2a2a"/>
<circle cx="90.0" cy="164.0" r="2.5" fill="#2a2a2a"/>
<circle cx="90.0" cy="178.0" r="2.5" fill="#2a2a2a"/>
<circle cx="90.0" cy="192.0" r="2.5" fill="#2a2a2a"/>
<circle cx="90.0" cy="206.0" r="2.5" fill="#2a2a2a"/>
<circle cx="90.0" cy="234.0" r="2.5" fill="#2a2a2a"/>
<circle cx="90.0" cy="248.0" r="2.5" fill="#2a2a2a"/>
<circle cx="90.0" cy="262.0" r="2.5" fill="#2a2a2a"/>
<circle cx="90.0" cy="276.0" r="2.5" fill="#2a2a2a"/>
<circle cx="90.0" cy="290.0" r="2.5" fill="#2a2a2a"/>
<circle cx="270.0" cy="66.0" r="2.5" fill="#2a2a2a"/>
<circle cx="270.0" cy="80.0" r="2.5" fill="#2a2a2a"/>
<circle cx="270.0" cy="94.0" r="2.5" fill="#2a2a2a"/>
<circle cx="270.0" cy="108.0" r="2.5" fill="#2a2a2a"/>
<circle cx="270.0" cy="122.0" r="2.5" fill="#2a2a2a"/>
<circle cx="270.0" cy="150.0" r="2.5" fill="#2a2a2a"/>
<circle cx="270.0" cy="164.0" r="2.5" fill="#2a2a2a"/>
<circle cx="270.0" cy="178.0" r="2.5" fill="#2a2a2a"/>
<circle cx="270.0" cy="192.0" r="2.5" fill="#2a2a2a"/>
<circle cx="270.0" cy="206.0" r="2.5" fill="#2a2a2a"/>
<circle cx="270.0" cy="234.0" r="2.5" fill="#2a2a2a"/>
<circle cx="270.0" cy="248.0" r="2.5" fill="#2a2a2a"/>
<circle cx="270.0" cy="262.0" r="2.5" fill="#2a2a2a"/>
<circle cx="270.0" cy="276.0" r="2.5" fill="#2a2a2a"/>
<circle cx="270.0" cy="290.0" r="2.5" fill="#2a2a2a"/>
<circle cx="280.0" cy="66.0" r="2.5" fill="#2a2a2a"/>
<circle cx="280.0" cy="80.0" r="2.5" fill="#2a2a2a"/>
<circle cx="280.0" cy="94.0" r="2.5" fill="#2a2a2a"/>
<circle cx="280.0" cy="108.0" r="2.5" fill="#2a2a2a"/>
<circle cx="280.0" cy="122.0" r="2.5" fill="#2a2a2a"/>
<circle cx="280.0" cy="150.0" r="2.5" fill="#2a2a2a"/>
<circle cx="280.0" cy="164.0" r="2.5" fill="#2a2a2a"/>
<circle cx="280.0" cy="178.0" r="2.5" fill="#2a2a2a"/>
<circle cx="280.0" cy="192.0" r="2.5" fill="#2a2a2a"/>
<circle cx="280.0" cy="206.0" r="2.5" fill="#2a2a2a"/>
<circle cx="280.0" cy="234.0" r="2.5" fill="#2a2a2a"/>
<circle cx="280.0" cy="248.0" r="2.5" fill="#2a2a2a"/>
<circle cx="280.0" cy="262.0" r="2.5" fill="#2a2a2a"/>
<circle cx="280.0" cy="276.0" r="2.5" fill="#2a2a2a"/>
<circle cx="280.0" cy="290.0" r="2.5" fill="#2a2a2a"/>
<text x="110.0" y="36.0" font-size="9" fill="#666" text-anchor="middle" font-family="'SF Mono', 'Cascadia Code', 'Fira Code', monospace">a</text>
<text x="124.0" y="36.0" font-size="9" fill="#666" text-anchor="middle" font-family="'SF Mono', 'Cascadia Code', 'Fira Code', monospace">b</text>
<text x="138.0" y="36.0" font-size="9" fill="#666" text-anchor="middle" font-family="'SF Mono', 'Cascadia Code', 'Fira Code', monospace">c</text>
<text x="152.0" y="36.0" font-size="9" fill="#666" text-anchor="middle" font-family="'SF Mono', 'Cascadia Code', 'Fira Code', monospace">d</text>
<text x="166.0" y="36.0" font-size="9" fill="#666" text-anchor="middle" font-family="'SF Mono', 'Cascadia Code', 'Fira Code', monospace">e</text>
<text x="194.0" y="36.0" font-size="9" fill="#666" text-anchor="middle" font-family="'SF Mono', 'Cascadia Code', 'Fira Code', monospace">f</text>
<text x="208.0" y="36.0" font-size="9" fill="#666" text-anchor="middle" font-family="'SF Mono', 'Cascadia Code', 'Fira Code', monospace">g</text>
<text x="222.0" y="36.0" font-size="9" fill="#666" text-anchor="middle" font-family="'SF Mono', 'Cascadia Code', 'Fira Code', monospace">h</text>
<text x="236.0" y="36.0" font-size="9" fill="#666" text-anchor="middle" font-family="'SF Mono', 'Cascadia Code', 'Fira Code', monospace">i</text>
<text x="250.0" y="36.0" font-size="9" fill="#666" text-anchor="middle" font-family="'SF Mono', 'Cascadia Code', 'Fira Code', monospace">j</text>
<text x="80.0" y="36.0" font-size="10" fill="#d32f2f" font-weight="bold" text-anchor="middle" font-family="system-ui, -apple-system, 'Segoe UI', sans-serif">+</text>
<text x="90.0" y="36.0" font-size="10" fill="#1565c0" font-weight="bold" text-anchor="middle" font-family="system-ui, -apple-system, 'Segoe UI', sans-serif">–</text>
<text x="270.0" y="36.0" font-size="10" fill="#d32f2f" font-weight="bold" text-anchor="middle" font-family="system-ui, -apple-system, 'Segoe UI', sans-serif">+</text>
<text x="280.0" y="36.0" font-size="10" fill="#1565c0" font-weight="bold" text-anchor="middle" font-family="system-ui, -apple-system, 'Segoe UI', sans-serif">–</text>
<text x="100.0" y="55.5" font-size="8" fill="#666" text-anchor="middle" font-family="'SF Mono', 'Cascadia Code', 'Fira Code', monospace">2</text>
<text x="260.0" y="55.5" font-size="8" fill="#666" text-anchor="middle" font-family="'SF Mono', 'Cascadia Code', 'Fira Code', monospace">2</text>
<text x="100.0" y="69.5" font-size="8" fill="#666" text-anchor="middle" font-family="'SF Mono', 'Cascadia Code', 'Fira Code', monospace">3</text>
<text x="260.0" y="69.5" font-size="8" fill="#666" text-anchor="middle" font-family="'SF Mono', 'Cascadia Code', 'Fira Code', monospace">3</text>
<text x="100.0" y="83.5" font-size="8" fill="#666" text-anchor="middle" font-family="'SF Mono', 'Cascadia Code', 'Fira Code', monospace">4</text>
<text x="260.0" y="83.5" font-size="8" fill="#666" text-anchor="middle" font-family="'SF Mono', 'Cascadia Code', 'Fira Code', monospace">4</text>
<text x="100.0" y="97.5" font-size="8" fill="#666" text-anchor="middle" font-family="'SF Mono', 'Cascadia Code', 'Fira Code', monospace">5</text>
<text x="260.0" y="97.5" font-size="8" fill="#666" text-anchor="middle" font-family="'SF Mono', 'Cascadia Code', 'Fira Code', monospace">5</text>
<text x="100.0" y="111.5" font-size="8" fill="#666" text-anchor="middle" font-family="'SF Mono', 'Cascadia Code', 'Fira Code', monospace">6</text>
<text x="260.0" y="111.5" font-size="8" fill="#666" text-anchor="middle" font-family="'SF Mono', 'Cascadia Code', 'Fira Code', monospace">6</text>
<text x="100.0" y="125.5" font-size="8" fill="#666" text-anchor="middle" font-family="'SF Mono', 'Cascadia Code', 'Fira Code', monospace">7</text>
<text x="260.0" y="125.5" font-size="8" fill="#666" text-anchor="middle" font-family="'SF Mono', 'Cascadia Code', 'Fira Code', monospace">7</text>
<text x="100.0" y="139.5" font-size="8" fill="#666" text-anchor="middle" font-family="'SF Mono', 'Cascadia Code', 'Fira Code', monospace">8</text>
<text x="260.0" y="139.5" font-size="8" fill="#666" text-anchor="middle" font-family="'SF Mono', 'Cascadia Code', 'Fira Code', monospace">8</text>
<text x="100.0" y="153.5" font-size="8" fill="#666" text-anchor="middle" font-family="'SF Mono', 'Cascadia Code', 'Fira Code', monospace">9</text>
<text x="260.0" y="153.5" font-size="8" fill="#666" text-anchor="middle" font-family="'SF Mono', 'Cascadia Code', 'Fira Code', monospace">9</text>
<text x="100.0" y="167.5" font-size="8" fill="#666" text-anchor="middle" font-family="'SF Mono', 'Cascadia Code', 'Fira Code', monospace">10</text>
<text x="260.0" y="167.5" font-size="8" fill="#666" text-anchor="middle" font-family="'SF Mono', 'Cascadia Code', 'Fira Code', monospace">10</text>
<text x="100.0" y="181.5" font-size="8" fill="#666" text-anchor="middle" font-family="'SF Mono', 'Cascadia Code', 'Fira Code', monospace">11</text>
<text x="260.0" y="181.5" font-size="8" fill="#666" text-anchor="middle" font-family="'SF Mono', 'Cascadia Code', 'Fira Code', monospace">11</text>
<text x="100.0" y="195.5" font-size="8" fill="#666" text-anchor="middle" font-family="'SF Mono', 'Cascadia Code', 'Fira Code', monospace">12</text>
<text x="260.0" y="195.5" font-size="8" fill="#666" text-anchor="middle" font-family="'SF Mono', 'Cascadia Code', 'Fira Code', monospace">12</text>
<text x="100.0" y="209.5" font-size="8" fill="#666" text-anchor="middle" font-family="'SF Mono', 'Cascadia Code', 'Fira Code', monospace">13</text>
<text x="260.0" y="209.5" font-size="8" fill="#666" text-anchor="middle" font-family="'SF Mono', 'Cascadia Code', 'Fira Code', monospace">13</text>
<text x="100.0" y="223.5" font-size="8" fill="#666" text-anchor="middle" font-family="'SF Mono', 'Cascadia Code', 'Fira Code', monospace">14</text>
<text x="260.0" y="223.5" font-size="8" fill="#666" text-anchor="middle" font-family="'SF Mono', 'Cascadia Code', 'Fira Code', monospace">14</text>
<text x="100.0" y="237.5" font-size="8" fill="#666" text-anchor="middle" font-family="'SF Mono', 'Cascadia Code', 'Fira Code', monospace">15</text>
<text x="260.0" y="237.5" font-size="8" fill="#666" text-anchor="middle" font-family="'SF Mono', 'Cascadia Code', 'Fira Code', monospace">15</text>
<text x="100.0" y="251.5" font-size="8" fill="#666" text-anchor="middle" font-family="'SF Mono', 'Cascadia Code', 'Fira Code', monospace">16</text>
<text x="260.0" y="251.5" font-size="8" fill="#666" text-anchor="middle" font-family="'SF Mono', 'Cascadia Code', 'Fira Code', monospace">16</text>
<text x="100.0" y="265.5" font-size="8" fill="#666" text-anchor="middle" font-family="'SF Mono', 'Cascadia Code', 'Fira Code', monospace">17</text>
<text x="260.0" y="265.5" font-size="8" fill="#666" text-anchor="middle" font-family="'SF Mono', 'Cascadia Code', 'Fira Code', monospace">17</text>
<text x="100.0" y="279.5" font-size="8" fill="#666" text-anchor="middle" font-family="'SF Mono', 'Cascadia Code', 'Fira Code', monospace">18</text>
<text x="260.0" y="279.5" font-size="8" fill="#666" text-anchor="middle" font-family="'SF Mono', 'Cascadia Code', 'Fira Code', monospace">18</text>
<text x="100.0" y="293.5" font-size="8" fill="#666" text-anchor="middle" font-family="'SF Mono', 'Cascadia Code', 'Fira Code', monospace">19</text>
<text x="260.0" y="293.5" font-size="8" fill="#666" text-anchor="middle" font-family="'SF Mono', 'Cascadia Code', 'Fira Code', monospace">19</text>
<text x="100.0" y="307.5" font-size="8" fill="#666" text-anchor="middle" font-family="'SF Mono', 'Cascadia Code', 'Fira Code', monospace">20</text>
<text x="260.0" y="307.5" font-size="8" fill="#666" text-anchor="middle" font-family="'SF Mono', 'Cascadia Code', 'Fira Code', monospace">20</text>
<line x1="51.0" y1="94.0" x2="110.0" y2="94.0" stroke="#e53935" stroke-width="2.8" stroke-linecap="round" opacity="0.8"/>
<rect x="4.0" y="85.0" width="47.0" height="18.0" rx="5" fill="#e53935" opacity="0.92"/>
<text x="10.0" y="98.0" font-size="10" fill="white" font-weight="600" font-family="system-ui, -apple-system, 'Segoe UI', sans-serif">Pin 2</text>
<line x1="51.0" y1="108.0" x2="110.0" y2="108.0" stroke="#ff6f00" stroke-width="2.8" stroke-linecap="round" opacity="0.8"/>
<rect x="4.0" y="99.0" width="47.0" height="18.0" rx="5" fill="#ff6f00" opacity="0.92"/>
<text x="10.0" y="112.0" font-size="10" fill="white" font-weight="600" font-family="system-ui, -apple-system, 'Segoe UI', sans-serif">Pin 3</text>
<line x1="51.0" y1="122.0" x2="110.0" y2="122.0" stroke="#fdd835" stroke-width="2.8" stroke-linecap="round" opacity="0.8"/>
<rect x="4.0" y="113.0" width="47.0" height="18.0" rx="5" fill="#fdd835" opacity="0.92"/>
<text x="10.0" y="126.0" font-size="10" fill="white" font-weight="600" font-family="system-ui, -apple-system, 'Segoe UI', sans-serif">Pin 4</text>
<line x1="51.0" y1="136.0" x2="110.0" y2="136.0" stroke="#43a047" stroke-width="2.8" stroke-linecap="round" opacity="0.8"/>
<rect x="4.0" y="127.0" width="47.0" height="18.0" rx="5" fill="#43a047" opacity="0.92"/>
<text x="10.0" y="140.0" font-size="10" fill="white" font-weight="600" font-family="system-ui, -apple-system, 'Segoe UI', sans-serif">Pin 5</text>
<line x1="51.0" y1="164.0" x2="110.0" y2="164.0" stroke="#1565c0" stroke-width="2.8" stroke-linecap="round" opacity="0.8"/>
<rect x="4.0" y="155.0" width="47.0" height="18.0" rx="5" fill="#1565c0" opacity="0.92"/>
<text x="10.0" y="168.0" font-size="10" fill="white" font-weight="600" font-family="system-ui, -apple-system, 'Segoe UI', sans-serif">Pin 6</text>
<line x1="51.0" y1="178.0" x2="110.0" y2="178.0" stroke="#7b1fa2" stroke-width="2.8" stroke-linecap="round" opacity="0.8"/>
<rect x="4.0" y="169.0" width="47.0" height="18.0" rx="5" fill="#7b1fa2" opacity="0.92"/>
<text x="10.0" y="182.0" font-size="10" fill="white" font-weight="600" font-family="system-ui, -apple-system, 'Segoe UI', sans-serif">Pin 7</text>
<line x1="51.0" y1="192.0" x2="110.0" y2="192.0" stroke="#795548" stroke-width="2.8" stroke-linecap="round" opacity="0.8"/>
<rect x="4.0" y="183.0" width="47.0" height="18.0" rx="5" fill="#795548" opacity="0.92"/>
<text x="10.0" y="196.0" font-size="10" fill="white" font-weight="600" font-family="system-ui, -apple-system, 'Segoe UI', sans-serif">Pin 8</text>
<line x1="51.0" y1="206.0" x2="110.0" y2="206.0" stroke="#607d8b" stroke-width="2.8" stroke-linecap="round" opacity="0.8"/>
<rect x="4.0" y="197.0" width="47.0" height="18.0" rx="5" fill="#607d8b" opacity="0.92"/>
<text x="10.0" y="210.0" font-size="10" fill="white" font-weight="600" font-family="system-ui, -apple-system, 'Segoe UI', sans-serif">Pin 9</text>
<line x1="58.0" y1="220.0" x2="110.0" y2="220.0" stroke="#e53935" stroke-width="2.8" stroke-linecap="round" opacity="0.8"/>
<rect x="4.0" y="211.0" width="54.0" height="18.0" rx="5" fill="#e53935" opacity="0.92"/>
<text x="10.0" y="224.0" font-size="10" fill="white" font-weight="600" font-family="system-ui, -apple-system, 'Segoe UI', sans-serif">Pin 10</text>
<line x1="58.0" y1="234.0" x2="110.0" y2="234.0" stroke="#ff6f00" stroke-width="2.8" stroke-linecap="round" opacity="0.8"/>
<rect x="4.0" y="225.0" width="54.0" height="18.0" rx="5" fill="#ff6f00" opacity="0.92"/>
<text x="10.0" y="238.0" font-size="10" fill="white" font-weight="600" font-family="system-ui, -apple-system, 'Segoe UI', sans-serif">Pin 11</text>
<line x1="58.0" y1="248.0" x2="110.0" y2="248.0" stroke="#43a047" stroke-width="2.8" stroke-linecap="round" opacity="0.8"/>
<rect x="4.0" y="239.0" width="54.0" height="18.0" rx="5" fill="#43a047" opacity="0.92"/>
<text x="10.0" y="252.0" font-size="10" fill="white" font-weight="600" font-family="system-ui, -apple-system, 'Segoe UI', sans-serif">Pin 12</text>
<line x1="58.0" y1="262.0" x2="110.0" y2="262.0" stroke="#1565c0" stroke-width="2.8" stroke-linecap="round" opacity="0.8"/>
<rect x="4.0" y="253.0" width="54.0" height="18.0" rx="5" fill="#1565c0" opacity="0.92"/>
<text x="10.0" y="266.0" font-size="10" fill="white" font-weight="600" font-family="system-ui, -apple-system, 'Segoe UI', sans-serif">Pin 13</text>
<text x="68.0" y="336.0" font-size="8" fill="#999" font-weight="600" letter-spacing="0.5" font-family="system-ui, -apple-system, 'Segoe UI', sans-serif">COMPONENTS</text>
<text x="68.0" y="356.0" font-size="8" fill="#999" font-weight="600" letter-spacing="0.5" font-family="system-ui, -apple-system, 'Segoe UI', sans-serif">WIRES</text>
<line x1="69.0" y1="367.0" x2="78.0" y2="367.0" stroke="#e53935" stroke-width="3" stroke-linecap="round"/>
<text x="84.0" y="370.0" font-size="9" fill="#444" font-family="system-ui, -apple-system, 'Segoe UI', sans-serif">digit 1 — HERO XL Pin 2</text>
<line x1="69.0" y1="382.0" x2="78.0" y2="382.0" stroke="#ff6f00" stroke-width="3" stroke-linecap="round"/>
<text x="84.0" y="385.0" font-size="9" fill="#444" font-family="system-ui, -apple-system, 'Segoe UI', sans-serif">digit 2 — HERO XL Pin 3</text>
<line x1="69.0" y1="397.0" x2="78.0" y2="397.0" stroke="#fdd835" stroke-width="3" stroke-linecap="round"/>
<text x="84.0" y="400.0" font-size="9" fill="#444" font-family="system-ui, -apple-system, 'Segoe UI', sans-serif">digit 3 — HERO XL Pin 4</text>
<line x1="69.0" y1="412.0" x2="78.0" y2="412.0" stroke="#43a047" stroke-width="3" stroke-linecap="round"/>
<text x="84.0" y="415.0" font-size="9" fill="#444" font-family="system-ui, -apple-system, 'Segoe UI', sans-serif">digit 4 — HERO XL Pin 5</text>
<line x1="69.0" y1="427.0" x2="78.0" y2="427.0" stroke="#1565c0" stroke-width="3" stroke-linecap="round"/>
<text x="84.0" y="430.0" font-size="9" fill="#444" font-family="system-ui, -apple-system, 'Segoe UI', sans-serif">seg A — HERO XL Pin 6</text>
<line x1="69.0" y1="442.0" x2="78.0" y2="442.0" stroke="#7b1fa2" stroke-width="3" stroke-linecap="round"/>
<text x="84.0" y="445.0" font-size="9" fill="#444" font-family="system-ui, -apple-system, 'Segoe UI', sans-serif">seg B — HERO XL Pin 7</text>
<line x1="69.0" y1="457.0" x2="78.0" y2="457.0" stroke="#795548" stroke-width="3" stroke-linecap="round"/>
<text x="84.0" y="460.0" font-size="9" fill="#444" font-family="system-ui, -apple-system, 'Segoe UI', sans-serif">seg C — HERO XL Pin 8</text>
<line x1="69.0" y1="472.0" x2="78.0" y2="472.0" stroke="#607d8b" stroke-width="3" stroke-linecap="round"/>
<text x="84.0" y="475.0" font-size="9" fill="#444" font-family="system-ui, -apple-system, 'Segoe UI', sans-serif">seg D — HERO XL Pin 9</text>
<line x1="69.0" y1="487.0" x2="78.0" y2="487.0" stroke="#e53935" stroke-width="3" stroke-linecap="round"/>
<text x="84.0" y="490.0" font-size="9" fill="#444" font-family="system-ui, -apple-system, 'Segoe UI', sans-serif">seg E — HERO XL Pin 10</text>
<line x1="69.0" y1="502.0" x2="78.0" y2="502.0" stroke="#ff6f00" stroke-width="3" stroke-linecap="round"/>
<text x="84.0" y="505.0" font-size="9" fill="#444" font-family="system-ui, -apple-system, 'Segoe UI', sans-serif">seg F — HERO XL Pin 11</text>
<line x1="69.0" y1="517.0" x2="78.0" y2="517.0" stroke="#43a047" stroke-width="3" stroke-linecap="round"/>
<text x="84.0" y="520.0" font-size="9" fill="#444" font-family="system-ui, -apple-system, 'Segoe UI', sans-serif">seg G — HERO XL Pin 12</text>
<line x1="69.0" y1="532.0" x2="78.0" y2="532.0" stroke="#1565c0" stroke-width="3" stroke-linecap="round"/>
<text x="84.0" y="535.0" font-size="9" fill="#444" font-family="system-ui, -apple-system, 'Segoe UI', sans-serif">seg DP — HERO XL Pin 13</text>
<text x="180.0" y="18.0" font-size="13" fill="#222" font-weight="700" text-anchor="middle" font-family="system-ui, -apple-system, 'Segoe UI', sans-serif">7-Segment 4-Digit — Stopwatch</text>
<text x="180.0" y="30.0" font-size="9" fill="#999" text-anchor="middle" font-family="system-ui, -apple-system, 'Segoe UI', sans-serif">rows 2–20 of 63</text>
</svg>