<?xml version="1.0" encoding="UTF-8"?>
<svg xmlns="http://www.w3.org/2000/svg"
     viewBox="0 0 372 477"
     width="372" height="477"
     style="background:#fff">
<rect x="70.0" y="42.0" width="224.0" height="178.0" rx="8" fill="#00000015"/>
<rect x="68.0" y="40.0" width="224.0" height="178.0" rx="8" fill="#e8dcc8" stroke="#b8a88a" stroke-width="1.2"/>
<rect x="173.0" y="44.0" width="14.0" height="170.0" rx="2" fill="#d4c8b0" stroke="#c4b898" stroke-width="0.4"/>
<line x1="80.0" y1="44.0" x2="80.0" y2="214.0" stroke="#d32f2f" stroke-width="1.2" opacity="0.2" stroke-dasharray="3,5"/>
<line x1="90.0" y1="44.0" x2="90.0" y2="214.0" stroke="#1565c0" stroke-width="1.2" opacity="0.2" stroke-dasharray="3,5"/>
<line x1="270.0" y1="44.0" x2="270.0" y2="214.0" stroke="#d32f2f" stroke-width="1.2" opacity="0.2" stroke-dasharray="3,5"/>
<line x1="280.0" y1="44.0" x2="280.0" y2="214.0" stroke="#1565c0" stroke-width="1.2" opacity="0.2" stroke-dasharray="3,5"/>
<rect x="105.0" y="89.0" width="66.0" height="10.0" rx="3" fill="#ffeaa7" opacity="0.25"/>
<rect x="189.0" y="89.0" width="66.0" height="10.0" rx="3" fill="#ffeaa7" opacity="0.25"/>
<rect x="105.0" y="103.0" width="66.0" height="10.0" rx="3" fill="#ffeaa7" opacity="0.25"/>
<rect x="189.0" y="103.0" width="66.0" height="10.0" rx="3" fill="#ffeaa7" opacity="0.25"/>
<rect x="105.0" y="117.0" width="66.0" height="10.0" rx="3" fill="#ffeaa7" opacity="0.25"/>
<rect x="189.0" y="117.0" width="66.0" height="10.0" rx="3" fill="#ffeaa7" opacity="0.25"/>
<rect x="105.0" y="131.0" width="66.0" height="10.0" rx="3" fill="#ffeaa7" opacity="0.25"/>
<rect x="189.0" y="131.0" width="66.0" height="10.0" rx="3" fill="#ffeaa7" opacity="0.25"/>
<rect x="105.0" y="145.0" width="66.0" height="10.0" rx="3" fill="#ffeaa7" opacity="0.25"/>
<rect x="189.0" y="145.0" width="66.0" height="10.0" rx="3" fill="#ffeaa7" opacity="0.25"/>
<rect x="105.0" y="159.0" width="66.0" height="10.0" rx="3" fill="#ffeaa7" opacity="0.25"/>
<rect x="189.0" y="159.0" width="66.0" height="10.0" rx="3" fill="#ffeaa7" opacity="0.25"/>
<circle cx="110.0" cy="52.0" r="3.0" fill="#2a2a2a"/>
<circle cx="110.0" cy="66.0" r="3.0" fill="#2a2a2a"/>
<circle cx="110.0" cy="80.0" r="3.0" fill="#2a2a2a"/>
<circle cx="110.0" cy="94.0" r="3.0" fill="#666"/>
<circle cx="110.0" cy="108.0" r="3.0" fill="#666"/>
<circle cx="110.0" cy="122.0" r="3.0" fill="#666"/>
<circle cx="110.0" cy="136.0" r="3.0" fill="#666"/>
<circle cx="110.0" cy="150.0" r="3.0" fill="#666"/>
<circle cx="110.0" cy="164.0" r="3.0" fill="#666"/>
<circle cx="110.0" cy="178.0" r="3.0" fill="#2a2a2a"/>
<circle cx="110.0" cy="192.0" r="3.0" fill="#2a2a2a"/>
<circle cx="110.0" cy="206.0" r="3.0" fill="#2a2a2a"/>
<circle cx="124.0" cy="52.0" r="3.0" fill="#2a2a2a"/>
<circle cx="124.0" cy="66.0" r="3.0" fill="#2a2a2a"/>
<circle cx="124.0" cy="80.0" r="3.0" fill="#2a2a2a"/>
<circle cx="124.0" cy="94.0" r="3.0" fill="#2a2a2a"/>
<circle cx="124.0" cy="108.0" r="3.0" fill="#2a2a2a"/>
<circle cx="124.0" cy="122.0" r="3.0" fill="#2a2a2a"/>
<circle cx="124.0" cy="136.0" r="3.0" fill="#2a2a2a"/>
<circle cx="124.0" cy="150.0" r="3.0" fill="#2a2a2a"/>
<circle cx="124.0" cy="164.0" r="3.0" fill="#2a2a2a"/>
<circle cx="124.0" cy="178.0" r="3.0" fill="#2a2a2a"/>
<circle cx="124.0" cy="192.0" r="3.0" fill="#2a2a2a"/>
<circle cx="124.0" cy="206.0" r="3.0" fill="#2a2a2a"/>
<circle cx="138.0" cy="52.0" r="3.0" fill="#2a2a2a"/>
<circle cx="138.0" cy="66.0" r="3.0" fill="#2a2a2a"/>
<circle cx="138.0" cy="80.0" r="3.0" fill="#2a2a2a"/>
<circle cx="138.0" cy="94.0" r="3.0" fill="#2a2a2a"/>
<circle cx="138.0" cy="108.0" r="3.0" fill="#2a2a2a"/>
<circle cx="138.0" cy="122.0" r="3.0" fill="#2a2a2a"/>
<circle cx="138.0" cy="136.0" r="3.0" fill="#2a2a2a"/>
<circle cx="138.0" cy="150.0" r="3.0" fill="#2a2a2a"/>
<circle cx="138.0" cy="164.0" r="3.0" fill="#2a2a2a"/>
<circle cx="138.0" cy="178.0" r="3.0" fill="#2a2a2a"/>
<circle cx="138.0" cy="192.0" r="3.0" fill="#2a2a2a"/>
<circle cx="138.0" cy="206.0" r="3.0" fill="#2a2a2a"/>
<circle cx="152.0" cy="52.0" r="3.0" fill="#2a2a2a"/>
<circle cx="152.0" cy="66.0" r="3.0" fill="#2a2a2a"/>
<circle cx="152.0" cy="80.0" r="3.0" fill="#2a2a2a"/>
<circle cx="152.0" cy="94.0" r="3.0" fill="#2a2a2a"/>
<circle cx="152.0" cy="108.0" r="3.0" fill="#2a2a2a"/>
<circle cx="152.0" cy="122.0" r="3.0" fill="#2a2a2a"/>
<circle cx="152.0" cy="136.0" r="3.0" fill="#2a2a2a"/>
<circle cx="152.0" cy="150.0" r="3.0" fill="#2a2a2a"/>
<circle cx="152.0" cy="164.0" r="3.0" fill="#2a2a2a"/>
<circle cx="152.0" cy="178.0" r="3.0" fill="#2a2a2a"/>
<circle cx="152.0" cy="192.0" r="3.0" fill="#2a2a2a"/>
<circle cx="152.0" cy="206.0" r="3.0" fill="#2a2a2a"/>
<circle cx="166.0" cy="52.0" r="3.0" fill="#2a2a2a"/>
<circle cx="166.0" cy="66.0" r="3.0" fill="#2a2a2a"/>
<circle cx="166.0" cy="80.0" r="3.0" fill="#2a2a2a"/>
<circle cx="166.0" cy="94.0" r="3.0" fill="#2a2a2a"/>
<circle cx="166.0" cy="108.0" r="3.0" fill="#2a2a2a"/>
<circle cx="166.0" cy="122.0" r="3.0" fill="#2a2a2a"/>
<circle cx="166.0" cy="136.0" r="3.0" fill="#2a2a2a"/>
<circle cx="166.0" cy="150.0" r="3.0" fill="#2a2a2a"/>
<circle cx="166.0" cy="164.0" r="3.0" fill="#2a2a2a"/>
<circle cx="166.0" cy="178.0" r="3.0" fill="#2a2a2a"/>
<circle cx="166.0" cy="192.0" r="3.0" fill="#2a2a2a"/>
<circle cx="166.0" cy="206.0" r="3.0" fill="#2a2a2a"/>
<circle cx="194.0" cy="52.0" r="3.0" fill="#2a2a2a"/>
<circle cx="194.0" cy="66.0" r="3.0" fill="#2a2a2a"/>
<circle cx="194.0" cy="80.0" r="3.0" fill="#2a2a2a"/>
<circle cx="194.0" cy="94.0" r="3.0" fill="#2a2a2a"/>
<circle cx="194.0" cy="108.0" r="3.0" fill="#2a2a2a"/>
<circle cx="194.0" cy="122.0" r="3.0" fill="#2a2a2a"/>
<circle cx="194.0" cy="136.0" r="3.0" fill="#2a2a2a"/>
<circle cx="194.0" cy="150.0" r="3.0" fill="#2a2a2a"/>
<circle cx="194.0" cy="164.0" r="3.0" fill="#2a2a2a"/>
<circle cx="194.0" cy="178.0" r="3.0" fill="#2a2a2a"/>
<circle cx="194.0" cy="192.0" r="3.0" fill="#2a2a2a"/>
<circle cx="194.0" cy="206.0" r="3.0" fill="#2a2a2a"/>
<circle cx="208.0" cy="52.0" r="3.0" fill="#2a2a2a"/>
<circle cx="208.0" cy="66.0" r="3.0" fill="#2a2a2a"/>
<circle cx="208.0" cy="80.0" r="3.0" fill="#2a2a2a"/>
<circle cx="208.0" cy="94.0" r="3.0" fill="#2a2a2a"/>
<circle cx="208.0" cy="108.0" r="3.0" fill="#2a2a2a"/>
<circle cx="208.0" cy="122.0" r="3.0" fill="#2a2a2a"/>
<circle cx="208.0" cy="136.0" r="3.0" fill="#2a2a2a"/>
<circle cx="208.0" cy="150.0" r="3.0" fill="#2a2a2a"/>
<circle cx="208.0" cy="164.0" r="3.0" fill="#2a2a2a"/>
<circle cx="208.0" cy="178.0" r="3.0" fill="#2a2a2a"/>
<circle cx="208.0" cy="192.0" r="3.0" fill="#2a2a2a"/>
<circle cx="208.0" cy="206.0" r="3.0" fill="#2a2a2a"/>
<circle cx="222.0" cy="52.0" r="3.0" fill="#2a2a2a"/>
<circle cx="222.0" cy="66.0" r="3.0" fill="#2a2a2a"/>
<circle cx="222.0" cy="80.0" r="3.0" fill="#2a2a2a"/>
<circle cx="222.0" cy="94.0" r="3.0" fill="#2a2a2a"/>
<circle cx="222.0" cy="108.0" r="3.0" fill="#2a2a2a"/>
<circle cx="222.0" cy="122.0" r="3.0" fill="#2a2a2a"/>
<circle cx="222.0" cy="136.0" r="3.0" fill="#2a2a2a"/>
<circle cx="222.0" cy="150.0" r="3.0" fill="#2a2a2a"/>
<circle cx="222.0" cy="164.0" r="3.0" fill="#2a2a2a"/>
<circle cx="222.0" cy="178.0" r="3.0" fill="#2a2a2a"/>
<circle cx="222.0" cy="192.0" r="3.0" fill="#2a2a2a"/>
<circle cx="222.0" cy="206.0" r="3.0" fill="#2a2a2a"/>
<circle cx="236.0" cy="52.0" r="3.0" fill="#2a2a2a"/>
<circle cx="236.0" cy="66.0" r="3.0" fill="#2a2a2a"/>
<circle cx="236.0" cy="80.0" r="3.0" fill="#2a2a2a"/>
<circle cx="236.0" cy="94.0" r="3.0" fill="#2a2a2a"/>
<circle cx="236.0" cy="108.0" r="3.0" fill="#2a2a2a"/>
<circle cx="236.0" cy="122.0" r="3.0" fill="#2a2a2a"/>
<circle cx="236.0" cy="136.0" r="3.0" fill="#2a2a2a"/>
<circle cx="236.0" cy="150.0" r="3.0" fill="#2a2a2a"/>
<circle cx="236.0" cy="164.0" r="3.0" fill="#2a2a2a"/>
<circle cx="236.0" cy="178.0" r="3.0" fill="#2a2a2a"/>
<circle cx="236.0" cy="192.0" r="3.0" fill="#2a2a2a"/>
<circle cx="236.0" cy="206.0" r="3.0" fill="#2a2a2a"/>
<circle cx="250.0" cy="52.0" r="3.0" fill="#2a2a2a"/>
<circle cx="250.0" cy="66.0" r="3.0" fill="#2a2a2a"/>
<circle cx="250.0" cy="80.0" r="3.0" fill="#2a2a2a"/>
<circle cx="250.0" cy="94.0" r="3.0" fill="#666"/>
<circle cx="250.0" cy="108.0" r="3.0" fill="#666"/>
<circle cx="250.0" cy="122.0" r="3.0" fill="#666"/>
<circle cx="250.0" cy="136.0" r="3.0" fill="#666"/>
<circle cx="250.0" cy="150.0" r="3.0" fill="#666"/>
<circle cx="250.0" cy="164.0" r="3.0" fill="#666"/>
<circle cx="250.0" cy="178.0" r="3.0" fill="#2a2a2a"/>
<circle cx="250.0" cy="192.0" r="3.0" fill="#2a2a2a"/>
<circle cx="250.0" cy="206.0" r="3.0" fill="#2a2a2a"/>
<circle cx="80.0" cy="52.0" r="2.5" fill="#2a2a2a"/>
<circle cx="80.0" cy="80.0" r="2.5" fill="#2a2a2a"/>
<circle cx="80.0" cy="94.0" r="2.5" fill="#2a2a2a"/>
<circle cx="80.0" cy="108.0" r="2.5" fill="#2a2a2a"/>
<circle cx="80.0" cy="122.0" r="2.5" fill="#2a2a2a"/>
<circle cx="80.0" cy="136.0" r="2.5" fill="#2a2a2a"/>
<circle cx="80.0" cy="164.0" r="2.5" fill="#2a2a2a"/>
<circle cx="80.0" cy="178.0" r="2.5" fill="#2a2a2a"/>
<circle cx="80.0" cy="192.0" r="2.5" fill="#2a2a2a"/>
<circle cx="80.0" cy="206.0" r="2.5" fill="#2a2a2a"/>
<circle cx="90.0" cy="52.0" r="2.5" fill="#2a2a2a"/>
<circle cx="90.0" cy="80.0" r="2.5" fill="#2a2a2a"/>
<circle cx="90.0" cy="94.0" r="2.5" fill="#2a2a2a"/>
<circle cx="90.0" cy="108.0" r="2.5" fill="#2a2a2a"/>
<circle cx="90.0" cy="122.0" r="2.5" fill="#2a2a2a"/>
<circle cx="90.0" cy="136.0" r="2.5" fill="#2a2a2a"/>
<circle cx="90.0" cy="164.0" r="2.5" fill="#2a2a2a"/>
<circle cx="90.0" cy="178.0" r="2.5" fill="#2a2a2a"/>
<circle cx="90.0" cy="192.0" r="2.5" fill="#2a2a2a"/>
<circle cx="90.0" cy="206.0" r="2.5" fill="#2a2a2a"/>
<circle cx="270.0" cy="52.0" r="2.5" fill="#2a2a2a"/>
<circle cx="270.0" cy="80.0" r="2.5" fill="#2a2a2a"/>
<circle cx="270.0" cy="94.0" r="2.5" fill="#2a2a2a"/>
<circle cx="270.0" cy="108.0" r="2.5" fill="#2a2a2a"/>
<circle cx="270.0" cy="122.0" r="2.5" fill="#2a2a2a"/>
<circle cx="270.0" cy="136.0" r="2.5" fill="#2a2a2a"/>
<circle cx="270.0" cy="164.0" r="2.5" fill="#2a2a2a"/>
<circle cx="270.0" cy="178.0" r="2.5" fill="#2a2a2a"/>
<circle cx="270.0" cy="192.0" r="2.5" fill="#2a2a2a"/>
<circle cx="270.0" cy="206.0" r="2.5" fill="#2a2a2a"/>
<circle cx="280.0" cy="52.0" r="2.5" fill="#2a2a2a"/>
<circle cx="280.0" cy="80.0" r="2.5" fill="#2a2a2a"/>
<circle cx="280.0" cy="94.0" r="2.5" fill="#2a2a2a"/>
<circle cx="280.0" cy="108.0" r="2.5" fill="#2a2a2a"/>
<circle cx="280.0" cy="122.0" r="2.5" fill="#2a2a2a"/>
<circle cx="280.0" cy="136.0" r="2.5" fill="#2a2a2a"/>
<circle cx="280.0" cy="164.0" r="2.5" fill="#2a2a2a"/>
<circle cx="280.0" cy="178.0" r="2.5" fill="#2a2a2a"/>
<circle cx="280.0" cy="192.0" r="2.5" fill="#2a2a2a"/>
<circle cx="280.0" cy="206.0" r="2.5" fill="#2a2a2a"/>
<text x="110.0" y="36.0" font-size="9" fill="#666" text-anchor="middle" font-family="'SF Mono', 'Cascadia Code', 'Fira Code', monospace">a</text>
<text x="124.0" y="36.0" font-size="9" fill="#666" text-anchor="middle" font-family="'SF Mono', 'Cascadia Code', 'Fira Code', monospace">b</text>
<text x="138.0" y="36.0" font-size="9" fill="#666" text-anchor="middle" font-family="'SF Mono', 'Cascadia Code', 'Fira Code', monospace">c</text>
<text x="152.0" y="36.0" font-size="9" fill="#666" text-anchor="middle" font-family="'SF Mono', 'Cascadia Code', 'Fira Code', monospace">d</text>
<text x="166.0" y="36.0" font-size="9" fill="#666" text-anchor="middle" font-family="'SF Mono', 'Cascadia Code', 'Fira Code', monospace">e</text>
<text x="194.0" y="36.0" font-size="9" fill="#666" text-anchor="middle" font-family="'SF Mono', 'Cascadia Code', 'Fira Code', monospace">f</text>
<text x="208.0" y="36.0" font-size="9" fill="#666" text-anchor="middle" font-family="'SF Mono', 'Cascadia Code', 'Fira Code', monospace">g</text>
<text x="222.0" y="36.0" font-size="9" fill="#666" text-anchor="middle" font-family="'SF Mono', 'Cascadia Code', 'Fira Code', monospace">h</text>
<text x="236.0" y="36.0" font-size="9" fill="#666" text-anchor="middle" font-family="'SF Mono', 'Cascadia Code', 'Fira Code', monospace">i</text>
<text x="250.0" y="36.0" font-size="9" fill="#666" text-anchor="middle" font-family="'SF Mono', 'Cascadia Code', 'Fira Code', monospace">j</text>
<text x="80.0" y="36.0" font-size="10" fill="#d32f2f" font-weight="bold" text-anchor="middle" font-family="system-ui, -apple-system, 'Segoe UI', sans-serif">+</text>
<text x="90.0" y="36.0" font-size="10" fill="#1565c0" font-weight="bold" text-anchor="middle" font-family="system-ui, -apple-system, 'Segoe UI', sans-serif">–</text>
<text x="270.0" y="36.0" font-size="10" fill="#d32f2f" font-weight="bold" text-anchor="middle" font-family="system-ui, -apple-system, 'Segoe UI', sans-serif">+</text>
<text x="280.0" y="36.0" font-size="10" fill="#1565c0" font-weight="bold" text-anchor="middle" font-family="system-ui, -apple-system, 'Segoe UI', sans-serif">–</text>
<text x="100.0" y="55.5" font-size="8" fill="#666" text-anchor="middle" font-family="'SF Mono', 'Cascadia Code', 'Fira Code', monospace">7</text>
<text x="260.0" y="55.5" font-size="8" fill="#666" text-anchor="middle" font-family="'SF Mono', 'Cascadia Code', 'Fira Code', monospace">7</text>
<text x="100.0" y="69.5" font-size="8" fill="#666" text-anchor="middle" font-family="'SF Mono', 'Cascadia Code', 'Fira Code', monospace">8</text>
<text x="260.0" y="69.5" font-size="8" fill="#666" text-anchor="middle" font-family="'SF Mono', 'Cascadia Code', 'Fira Code', monospace">8</text>
<text x="100.0" y="83.5" font-size="8" fill="#666" text-anchor="middle" font-family="'SF Mono', 'Cascadia Code', 'Fira Code', monospace">9</text>
<text x="260.0" y="83.5" font-size="8" fill="#666" text-anchor="middle" font-family="'SF Mono', 'Cascadia Code', 'Fira Code', monospace">9</text>
<text x="100.0" y="97.5" font-size="8" fill="#666" text-anchor="middle" font-family="'SF Mono', 'Cascadia Code', 'Fira Code', monospace">10</text>
<text x="260.0" y="97.5" font-size="8" fill="#666" text-anchor="middle" font-family="'SF Mono', 'Cascadia Code', 'Fira Code', monospace">10</text>
<text x="100.0" y="111.5" font-size="8" fill="#666" text-anchor="middle" font-family="'SF Mono', 'Cascadia Code', 'Fira Code', monospace">11</text>
<text x="260.0" y="111.5" font-size="8" fill="#666" text-anchor="middle" font-family="'SF Mono', 'Cascadia Code', 'Fira Code', monospace">11</text>
<text x="100.0" y="125.5" font-size="8" fill="#666" text-anchor="middle" font-family="'SF Mono', 'Cascadia Code', 'Fira Code', monospace">12</text>
<text x="260.0" y="125.5" font-size="8" fill="#666" text-anchor="middle" font-family="'SF Mono', 'Cascadia Code', 'Fira Code', monospace">12</text>
<text x="100.0" y="139.5" font-size="8" fill="#666" text-anchor="middle" font-family="'SF Mono', 'Cascadia Code', 'Fira Code', monospace">13</text>
<text x="260.0" y="139.5" font-size="8" fill="#666" text-anchor="middle" font-family="'SF Mono', 'Cascadia Code', 'Fira Code', monospace">13</text>
<text x="100.0" y="153.5" font-size="8" fill="#666" text-anchor="middle" font-family="'SF Mono', 'Cascadia Code', 'Fira Code', monospace">14</text>
<text x="260.0" y="153.5" font-size="8" fill="#666" text-anchor="middle" font-family="'SF Mono', 'Cascadia Code', 'Fira Code', monospace">14</text>
<text x="100.0" y="167.5" font-size="8" fill="#666" text-anchor="middle" font-family="'SF Mono', 'Cascadia Code', 'Fira Code', monospace">15</text>
<text x="260.0" y="167.5" font-size="8" fill="#666" text-anchor="middle" font-family="'SF Mono', 'Cascadia Code', 'Fira Code', monospace">15</text>
<text x="100.0" y="181.5" font-size="8" fill="#666" text-anchor="middle" font-family="'SF Mono', 'Cascadia Code', 'Fira Code', monospace">16</text>
<text x="260.0" y="181.5" font-size="8" fill="#666" text-anchor="middle" font-family="'SF Mono', 'Cascadia Code', 'Fira Code', monospace">16</text>
<text x="100.0" y="195.5" font-size="8" fill="#666" text-anchor="middle" font-family="'SF Mono', 'Cascadia Code', 'Fira Code', monospace">17</text>
<text x="260.0" y="195.5" font-size="8" fill="#666" text-anchor="middle" font-family="'SF Mono', 'Cascadia Code', 'Fira Code', monospace">17</text>
<text x="100.0" y="209.5" font-size="8" fill="#666" text-anchor="middle" font-family="'SF Mono', 'Cascadia Code', 'Fira Code', monospace">18</text>
<text x="260.0" y="209.5" font-size="8" fill="#666" text-anchor="middle" font-family="'SF Mono', 'Cascadia Code', 'Fira Code', monospace">18</text>
<rect x="160.0" y="90.0" width="40.0" height="78.0" rx="2" fill="#1a1a1a" stroke="#444" stroke-width="0.8"/>
<path d="M 176.0 90.0 a 4 4 0 0 1 8 0" fill="#333" stroke="none"/>
<g transform="translate(180.0,112.5) rotate(-90)">
<line x1="-6.0" y1="-4.0" x2="6.0" y2="-4.0" stroke="#600" stroke-width="1.5" stroke-linecap="round"/>
<line x1="-6.0" y1="0.0" x2="6.0" y2="0.0" stroke="#600" stroke-width="1.5" stroke-linecap="round"/>
<line x1="-6.0" y1="4.0" x2="6.0" y2="4.0" stroke="#600" stroke-width="1.5" stroke-linecap="round"/>
<line x1="-7.0" y1="-3.0" x2="-7.0" y2="-1.0" stroke="#600" stroke-width="1.5" stroke-linecap="round"/>
<line x1="7.0" y1="-3.0" x2="7.0" y2="-1.0" stroke="#600" stroke-width="1.5" stroke-linecap="round"/>
<line x1="-7.0" y1="1.0" x2="-7.0" y2="3.0" stroke="#600" stroke-width="1.5" stroke-linecap="round"/>
<line x1="7.0" y1="1.0" x2="7.0" y2="3.0" stroke="#600" stroke-width="1.5" stroke-linecap="round"/>
</g>
<g transform="translate(180.0,123.5) rotate(-90)">
<line x1="-6.0" y1="-4.0" x2="6.0" y2="-4.0" stroke="#600" stroke-width="1.5" stroke-linecap="round"/>
<line x1="-6.0" y1="0.0" x2="6.0" y2="0.0" stroke="#600" stroke-width="1.5" stroke-linecap="round"/>
<line x1="-6.0" y1="4.0" x2="6.0" y2="4.0" stroke="#600" stroke-width="1.5" stroke-linecap="round"/>
<line x1="-7.0" y1="-3.0" x2="-7.0" y2="-1.0" stroke="#600" stroke-width="1.5" stroke-linecap="round"/>
<line x1="7.0" y1="-3.0" x2="7.0" y2="-1.0" stroke="#600" stroke-width="1.5" stroke-linecap="round"/>
<line x1="-7.0" y1="1.0" x2="-7.0" y2="3.0" stroke="#600" stroke-width="1.5" stroke-linecap="round"/>
<line x1="7.0" y1="1.0" x2="7.0" y2="3.0" stroke="#600" stroke-width="1.5" stroke-linecap="round"/>
</g>
<g transform="translate(180.0,134.5) rotate(-90)">
<line x1="-6.0" y1="-4.0" x2="6.0" y2="-4.0" stroke="#600" stroke-width="1.5" stroke-linecap="round"/>
<line x1="-6.0" y1="0.0" x2="6.0" y2="0.0" stroke="#600" stroke-width="1.5" stroke-linecap="round"/>
<line x1="-6.0" y1="4.0" x2="6.0" y2="4.0" stroke="#600" stroke-width="1.5" stroke-linecap="round"/>
<line x1="-7.0" y1="-3.0" x2="-7.0" y2="-1.0" stroke="#600" stroke-width="1.5" stroke-linecap="round"/>
<line x1="7.0" y1="-3.0" x2="7.0" y2="-1.0" stroke="#600" stroke-width="1.5" stroke-linecap="round"/>
<line x1="-7.0" y1="1.0" x2="-7.0" y2="3.0" stroke="#600" stroke-width="1.5" stroke-linecap="round"/>
<line x1="7.0" y1="1.0" x2="7.0" y2="3.0" stroke="#600" stroke-width="1.5" stroke-linecap="round"/>
</g>
<g transform="translate(180.0,145.5) rotate(-90)">
<line x1="-6.0" y1="-4.0" x2="6.0" y2="-4.0" stroke="#600" stroke-width="1.5" stroke-linecap="round"/>
<line x1="-6.0" y1="0.0" x2="6.0" y2="0.0" stroke="#600" stroke-width="1.5" stroke-linecap="round"/>
<line x1="-6.0" y1="4.0" x2="6.0" y2="4.0" stroke="#600" stroke-width="1.5" stroke-linecap="round"/>
<line x1="-7.0" y1="-3.0" x2="-7.0" y2="-1.0" stroke="#600" stroke-width="1.5" stroke-linecap="round"/>
<line x1="7.0" y1="-3.0" x2="7.0" y2="-1.0" stroke="#600" stroke-width="1.5" stroke-linecap="round"/>
<line x1="-7.0" y1="1.0" x2="-7.0" y2="3.0" stroke="#600" stroke-width="1.5" stroke-linecap="round"/>
<line x1="7.0" y1="1.0" x2="7.0" y2="3.0" stroke="#600" stroke-width="1.5" stroke-linecap="round"/>
</g>
<circle cx="166.0" cy="94.0" r="1.5" fill="#999" stroke="#777" stroke-width="0.3"/>
<circle cx="166.0" cy="108.0" r="1.5" fill="#999" stroke="#777" stroke-width="0.3"/>
<circle cx="166.0" cy="122.0" r="1.5" fill="#999" stroke="#777" stroke-width="0.3"/>
<circle cx="166.0" cy="136.0" r="1.5" fill="#999" stroke="#777" stroke-width="0.3"/>
<circle cx="166.0" cy="150.0" r="1.5" fill="#999" stroke="#777" stroke-width="0.3"/>
<circle cx="166.0" cy="164.0" r="1.5" fill="#999" stroke="#777" stroke-width="0.3"/>
<circle cx="194.0" cy="94.0" r="1.5" fill="#999" stroke="#777" stroke-width="0.3"/>
<circle cx="194.0" cy="108.0" r="1.5" fill="#999" stroke="#777" stroke-width="0.3"/>
<circle cx="194.0" cy="122.0" r="1.5" fill="#999" stroke="#777" stroke-width="0.3"/>
<circle cx="194.0" cy="136.0" r="1.5" fill="#999" stroke="#777" stroke-width="0.3"/>
<circle cx="194.0" cy="150.0" r="1.5" fill="#999" stroke="#777" stroke-width="0.3"/>
<circle cx="194.0" cy="164.0" r="1.5" fill="#999" stroke="#777" stroke-width="0.3"/>
<line x1="45.0" y1="94.0" x2="110.0" y2="94.0" stroke="#1565c0" stroke-width="2" stroke-linecap="round" opacity="0.8"/>
<rect x="4.0" y="88.0" width="41.0" height="12.0" rx="4" fill="#1565c0" opacity="0.92"/>
<text x="8.0" y="97.0" font-size="8" fill="white" font-weight="600" font-family="system-ui, -apple-system, 'Segoe UI', sans-serif">Pin 10</text>
<line x1="39.5" y1="108.0" x2="110.0" y2="108.0" stroke="#607d8b" stroke-width="2" stroke-linecap="round" opacity="0.8"/>
<rect x="4.0" y="102.0" width="35.5" height="12.0" rx="4" fill="#607d8b" opacity="0.92"/>
<text x="8.0" y="111.0" font-size="8" fill="white" font-weight="600" font-family="system-ui, -apple-system, 'Segoe UI', sans-serif">Pin 9</text>
<line x1="45.0" y1="122.0" x2="110.0" y2="122.0" stroke="#795548" stroke-width="2" stroke-linecap="round" opacity="0.8"/>
<rect x="4.0" y="116.0" width="41.0" height="12.0" rx="4" fill="#795548" opacity="0.92"/>
<text x="8.0" y="125.0" font-size="8" fill="white" font-weight="600" font-family="system-ui, -apple-system, 'Segoe UI', sans-serif">Pin 13</text>
<line x1="39.5" y1="136.0" x2="110.0" y2="136.0" stroke="#fdd835" stroke-width="2" stroke-linecap="round" opacity="0.8"/>
<rect x="4.0" y="130.0" width="35.5" height="12.0" rx="4" fill="#fdd835" opacity="0.92"/>
<text x="8.0" y="139.0" font-size="8" fill="white" font-weight="600" font-family="system-ui, -apple-system, 'Segoe UI', sans-serif">Pin 8</text>
<line x1="45.0" y1="150.0" x2="110.0" y2="150.0" stroke="#43a047" stroke-width="2" stroke-linecap="round" opacity="0.8"/>
<rect x="4.0" y="144.0" width="41.0" height="12.0" rx="4" fill="#43a047" opacity="0.92"/>
<text x="8.0" y="153.0" font-size="8" fill="white" font-weight="600" font-family="system-ui, -apple-system, 'Segoe UI', sans-serif">Pin 12</text>
<line x1="39.5" y1="164.0" x2="110.0" y2="164.0" stroke="#e53935" stroke-width="2" stroke-linecap="round" opacity="0.8"/>
<rect x="4.0" y="158.0" width="35.5" height="12.0" rx="4" fill="#e53935" opacity="0.92"/>
<text x="8.0" y="167.0" font-size="8" fill="white" font-weight="600" font-family="system-ui, -apple-system, 'Segoe UI', sans-serif">Pin 5</text>
<line x1="250.0" y1="94.0" x2="332.5" y2="94.0" stroke="#e53935" stroke-width="2" stroke-linecap="round" opacity="0.8"/>
<rect x="332.5" y="88.0" width="35.5" height="12.0" rx="4" fill="#e53935" opacity="0.92"/>
<text x="336.5" y="97.0" font-size="8" fill="white" font-weight="600" font-family="system-ui, -apple-system, 'Segoe UI', sans-serif">Pin 2</text>
<line x1="250.0" y1="108.0" x2="332.5" y2="108.0" stroke="#ff6f00" stroke-width="2" stroke-linecap="round" opacity="0.8"/>
<rect x="332.5" y="102.0" width="35.5" height="12.0" rx="4" fill="#ff6f00" opacity="0.92"/>
<text x="336.5" y="111.0" font-size="8" fill="white" font-weight="600" font-family="system-ui, -apple-system, 'Segoe UI', sans-serif">Pin 6</text>
<line x1="250.0" y1="122.0" x2="327.0" y2="122.0" stroke="#7b1fa2" stroke-width="2" stroke-linecap="round" opacity="0.8"/>
<rect x="327.0" y="116.0" width="41.0" height="12.0" rx="4" fill="#7b1fa2" opacity="0.92"/>
<text x="331.0" y="125.0" font-size="8" fill="white" font-weight="600" font-family="system-ui, -apple-system, 'Segoe UI', sans-serif">Pin 11</text>
<line x1="250.0" y1="136.0" x2="332.5" y2="136.0" stroke="#ff6f00" stroke-width="2" stroke-linecap="round" opacity="0.8"/>
<rect x="332.5" y="130.0" width="35.5" height="12.0" rx="4" fill="#ff6f00" opacity="0.92"/>
<text x="336.5" y="139.0" font-size="8" fill="white" font-weight="600" font-family="system-ui, -apple-system, 'Segoe UI', sans-serif">Pin 4</text>
<line x1="250.0" y1="150.0" x2="332.5" y2="150.0" stroke="#43a047" stroke-width="2" stroke-linecap="round" opacity="0.8"/>
<rect x="332.5" y="144.0" width="35.5" height="12.0" rx="4" fill="#43a047" opacity="0.92"/>
<text x="336.5" y="153.0" font-size="8" fill="white" font-weight="600" font-family="system-ui, -apple-system, 'Segoe UI', sans-serif">Pin 7</text>
<line x1="250.0" y1="164.0" x2="332.5" y2="164.0" stroke="#fdd835" stroke-width="2" stroke-linecap="round" opacity="0.8"/>
<rect x="332.5" y="158.0" width="35.5" height="12.0" rx="4" fill="#fdd835" opacity="0.92"/>
<text x="336.5" y="167.0" font-size="8" fill="white" font-weight="600" font-family="system-ui, -apple-system, 'Segoe UI', sans-serif">Pin 3</text>
<text x="68.0" y="238.0" font-size="8" fill="#999" font-weight="600" letter-spacing="0.5" font-family="system-ui, -apple-system, 'Segoe UI', sans-serif">COMPONENTS</text>
<circle cx="73.0" cy="249.0" r="4.0" fill="#1a1a1a" stroke="#0002" stroke-width="0.5"/>
<text x="82.0" y="252.0" font-size="9" fill="#444" font-family="system-ui, -apple-system, 'Segoe UI', sans-serif">4-digit 7-segment display (row 10)</text>
<text x="68.0" y="273.0" font-size="8" fill="#999" font-weight="600" letter-spacing="0.5" font-family="system-ui, -apple-system, 'Segoe UI', sans-serif">WIRES</text>
<line x1="69.0" y1="284.0" x2="78.0" y2="284.0" stroke="#1565c0" stroke-width="3" stroke-linecap="round"/>
<text x="84.0" y="287.0" font-size="9" fill="#444" font-family="system-ui, -apple-system, 'Segoe UI', sans-serif">seg E (pin 1) — HERO XL Pin 10</text>
<line x1="69.0" y1="299.0" x2="78.0" y2="299.0" stroke="#607d8b" stroke-width="3" stroke-linecap="round"/>
<text x="84.0" y="302.0" font-size="9" fill="#444" font-family="system-ui, -apple-system, 'Segoe UI', sans-serif">seg D (pin 2) — HERO XL Pin 9</text>
<line x1="69.0" y1="314.0" x2="78.0" y2="314.0" stroke="#795548" stroke-width="3" stroke-linecap="round"/>
<text x="84.0" y="317.0" font-size="9" fill="#444" font-family="system-ui, -apple-system, 'Segoe UI', sans-serif">seg DP (pin 3) — HERO XL Pin 13</text>
<line x1="69.0" y1="329.0" x2="78.0" y2="329.0" stroke="#fdd835" stroke-width="3" stroke-linecap="round"/>
<text x="84.0" y="332.0" font-size="9" fill="#444" font-family="system-ui, -apple-system, 'Segoe UI', sans-serif">seg C (pin 4) — HERO XL Pin 8</text>
<line x1="69.0" y1="344.0" x2="78.0" y2="344.0" stroke="#43a047" stroke-width="3" stroke-linecap="round"/>
<text x="84.0" y="347.0" font-size="9" fill="#444" font-family="system-ui, -apple-system, 'Segoe UI', sans-serif">seg G (pin 5) — HERO XL Pin 12</text>
<line x1="69.0" y1="359.0" x2="78.0" y2="359.0" stroke="#e53935" stroke-width="3" stroke-linecap="round"/>
<text x="84.0" y="362.0" font-size="9" fill="#444" font-family="system-ui, -apple-system, 'Segoe UI', sans-serif">digit 4 (pin 6) — HERO XL Pin 5</text>
<line x1="69.0" y1="374.0" x2="78.0" y2="374.0" stroke="#e53935" stroke-width="3" stroke-linecap="round"/>
<text x="84.0" y="377.0" font-size="9" fill="#444" font-family="system-ui, -apple-system, 'Segoe UI', sans-serif">digit 1 (pin 12) — HERO XL Pin 2</text>
<line x1="69.0" y1="389.0" x2="78.0" y2="389.0" stroke="#ff6f00" stroke-width="3" stroke-linecap="round"/>
<text x="84.0" y="392.0" font-size="9" fill="#444" font-family="system-ui, -apple-system, 'Segoe UI', sans-serif">seg A (pin 11) — HERO XL Pin 6</text>
<line x1="69.0" y1="404.0" x2="78.0" y2="404.0" stroke="#7b1fa2" stroke-width="3" stroke-linecap="round"/>
<text x="84.0" y="407.0" font-size="9" fill="#444" font-family="system-ui, -apple-system, 'Segoe UI', sans-serif">seg F (pin 10) — HERO XL Pin 11</text>
<line x1="69.0" y1="419.0" x2="78.0" y2="419.0" stroke="#ff6f00" stroke-width="3" stroke-linecap="round"/>
<text x="84.0" y="422.0" font-size="9" fill="#444" font-family="system-ui, -apple-system, 'Segoe UI', sans-serif">digit 2 (pin 9) — HERO XL Pin 4</text>
<line x1="69.0" y1="434.0" x2="78.0" y2="434.0" stroke="#43a047" stroke-width="3" stroke-linecap="round"/>
<text x="84.0" y="437.0" font-size="9" fill="#444" font-family="system-ui, -apple-system, 'Segoe UI', sans-serif">seg B (pin 8) — HERO XL Pin 7</text>
<line x1="69.0" y1="449.0" x2="78.0" y2="449.0" stroke="#fdd835" stroke-width="3" stroke-linecap="round"/>
<text x="84.0" y="452.0" font-size="9" fill="#444" font-family="system-ui, -apple-system, 'Segoe UI', sans-serif">digit 3 (pin 7) — HERO XL Pin 3</text>
<text x="180.0" y="18.0" font-size="13" fill="#222" font-weight="700" text-anchor="middle" font-family="system-ui, -apple-system, 'Segoe UI', sans-serif">7-Segment 4-Digit — Stopwatch</text>
<text x="180.0" y="30.0" font-size="9" fill="#999" text-anchor="middle" font-family="system-ui, -apple-system, 'Segoe UI', sans-serif">rows 7–18 of 63</text>
</svg>