<?xml version="1.0" encoding="UTF-8"?>
<svg xmlns="http://www.w3.org/2000/svg"
     viewBox="0 0 400 373"
     width="400" height="373"
     style="background:#fff">
<rect x="98.0" y="42.0" width="224.0" height="164.0" rx="8" fill="#00000015"/>
<rect x="96.0" y="40.0" width="224.0" height="164.0" rx="8" fill="#e8dcc8" stroke="#b8a88a" stroke-width="1.2"/>
<rect x="201.0" y="44.0" width="14.0" height="156.0" rx="2" fill="#d4c8b0" stroke="#c4b898" stroke-width="0.4"/>
<line x1="108.0" y1="44.0" x2="108.0" y2="200.0" stroke="#d32f2f" stroke-width="1.2" opacity="0.2" stroke-dasharray="3,5"/>
<line x1="118.0" y1="44.0" x2="118.0" y2="200.0" stroke="#1565c0" stroke-width="1.2" opacity="0.2" stroke-dasharray="3,5"/>
<line x1="298.0" y1="44.0" x2="298.0" y2="200.0" stroke="#d32f2f" stroke-width="1.2" opacity="0.2" stroke-dasharray="3,5"/>
<line x1="308.0" y1="44.0" x2="308.0" y2="200.0" stroke="#1565c0" stroke-width="1.2" opacity="0.2" stroke-dasharray="3,5"/>
<rect x="133.0" y="89.0" width="66.0" height="10.0" rx="3" fill="#ffeaa7" opacity="0.25"/>
<rect x="217.0" y="89.0" width="66.0" height="10.0" rx="3" fill="#ffeaa7" opacity="0.25"/>
<rect x="133.0" y="103.0" width="66.0" height="10.0" rx="3" fill="#ffeaa7" opacity="0.25"/>
<rect x="217.0" y="103.0" width="66.0" height="10.0" rx="3" fill="#ffeaa7" opacity="0.25"/>
<rect x="133.0" y="117.0" width="66.0" height="10.0" rx="3" fill="#ffeaa7" opacity="0.25"/>
<rect x="217.0" y="117.0" width="66.0" height="10.0" rx="3" fill="#ffeaa7" opacity="0.25"/>
<rect x="133.0" y="131.0" width="66.0" height="10.0" rx="3" fill="#ffeaa7" opacity="0.25"/>
<rect x="217.0" y="131.0" width="66.0" height="10.0" rx="3" fill="#ffeaa7" opacity="0.25"/>
<rect x="133.0" y="145.0" width="66.0" height="10.0" rx="3" fill="#ffeaa7" opacity="0.25"/>
<rect x="217.0" y="145.0" width="66.0" height="10.0" rx="3" fill="#ffeaa7" opacity="0.25"/>
<circle cx="138.0" cy="52.0" r="3.0" fill="#2a2a2a"/>
<circle cx="138.0" cy="66.0" r="3.0" fill="#2a2a2a"/>
<circle cx="138.0" cy="80.0" r="3.0" fill="#2a2a2a"/>
<circle cx="138.0" cy="94.0" r="3.0" fill="#666"/>
<circle cx="138.0" cy="108.0" r="3.0" fill="#666"/>
<circle cx="138.0" cy="122.0" r="3.0" fill="#666"/>
<circle cx="138.0" cy="136.0" r="3.0" fill="#666"/>
<circle cx="138.0" cy="150.0" r="3.0" fill="#666"/>
<circle cx="138.0" cy="164.0" r="3.0" fill="#2a2a2a"/>
<circle cx="138.0" cy="178.0" r="3.0" fill="#2a2a2a"/>
<circle cx="138.0" cy="192.0" r="3.0" fill="#2a2a2a"/>
<circle cx="152.0" cy="52.0" r="3.0" fill="#2a2a2a"/>
<circle cx="152.0" cy="66.0" r="3.0" fill="#2a2a2a"/>
<circle cx="152.0" cy="80.0" r="3.0" fill="#2a2a2a"/>
<circle cx="152.0" cy="94.0" r="3.0" fill="#2a2a2a"/>
<circle cx="152.0" cy="108.0" r="3.0" fill="#2a2a2a"/>
<circle cx="152.0" cy="122.0" r="3.0" fill="#2a2a2a"/>
<circle cx="152.0" cy="136.0" r="3.0" fill="#2a2a2a"/>
<circle cx="152.0" cy="150.0" r="3.0" fill="#2a2a2a"/>
<circle cx="152.0" cy="164.0" r="3.0" fill="#2a2a2a"/>
<circle cx="152.0" cy="178.0" r="3.0" fill="#2a2a2a"/>
<circle cx="152.0" cy="192.0" r="3.0" fill="#2a2a2a"/>
<circle cx="166.0" cy="52.0" r="3.0" fill="#2a2a2a"/>
<circle cx="166.0" cy="66.0" r="3.0" fill="#2a2a2a"/>
<circle cx="166.0" cy="80.0" r="3.0" fill="#2a2a2a"/>
<circle cx="166.0" cy="94.0" r="3.0" fill="#2a2a2a"/>
<circle cx="166.0" cy="108.0" r="3.0" fill="#2a2a2a"/>
<circle cx="166.0" cy="122.0" r="3.0" fill="#2a2a2a"/>
<circle cx="166.0" cy="136.0" r="3.0" fill="#2a2a2a"/>
<circle cx="166.0" cy="150.0" r="3.0" fill="#2a2a2a"/>
<circle cx="166.0" cy="164.0" r="3.0" fill="#2a2a2a"/>
<circle cx="166.0" cy="178.0" r="3.0" fill="#2a2a2a"/>
<circle cx="166.0" cy="192.0" r="3.0" fill="#2a2a2a"/>
<circle cx="180.0" cy="52.0" r="3.0" fill="#2a2a2a"/>
<circle cx="180.0" cy="66.0" r="3.0" fill="#2a2a2a"/>
<circle cx="180.0" cy="80.0" r="3.0" fill="#2a2a2a"/>
<circle cx="180.0" cy="94.0" r="3.0" fill="#2a2a2a"/>
<circle cx="180.0" cy="108.0" r="3.0" fill="#2a2a2a"/>
<circle cx="180.0" cy="122.0" r="3.0" fill="#2a2a2a"/>
<circle cx="180.0" cy="136.0" r="3.0" fill="#2a2a2a"/>
<circle cx="180.0" cy="150.0" r="3.0" fill="#2a2a2a"/>
<circle cx="180.0" cy="164.0" r="3.0" fill="#2a2a2a"/>
<circle cx="180.0" cy="178.0" r="3.0" fill="#2a2a2a"/>
<circle cx="180.0" cy="192.0" r="3.0" fill="#2a2a2a"/>
<circle cx="194.0" cy="52.0" r="3.0" fill="#2a2a2a"/>
<circle cx="194.0" cy="66.0" r="3.0" fill="#2a2a2a"/>
<circle cx="194.0" cy="80.0" r="3.0" fill="#2a2a2a"/>
<circle cx="194.0" cy="94.0" r="3.0" fill="#666"/>
<circle cx="194.0" cy="108.0" r="3.0" fill="#666"/>
<circle cx="194.0" cy="122.0" r="3.0" fill="#666"/>
<circle cx="194.0" cy="136.0" r="3.0" fill="#666"/>
<circle cx="194.0" cy="150.0" r="3.0" fill="#666"/>
<circle cx="194.0" cy="164.0" r="3.0" fill="#2a2a2a"/>
<circle cx="194.0" cy="178.0" r="3.0" fill="#2a2a2a"/>
<circle cx="194.0" cy="192.0" r="3.0" fill="#2a2a2a"/>
<circle cx="222.0" cy="52.0" r="3.0" fill="#2a2a2a"/>
<circle cx="222.0" cy="66.0" r="3.0" fill="#2a2a2a"/>
<circle cx="222.0" cy="80.0" r="3.0" fill="#2a2a2a"/>
<circle cx="222.0" cy="94.0" r="3.0" fill="#2a2a2a"/>
<circle cx="222.0" cy="108.0" r="3.0" fill="#2a2a2a"/>
<circle cx="222.0" cy="122.0" r="3.0" fill="#2a2a2a"/>
<circle cx="222.0" cy="136.0" r="3.0" fill="#2a2a2a"/>
<circle cx="222.0" cy="150.0" r="3.0" fill="#2a2a2a"/>
<circle cx="222.0" cy="164.0" r="3.0" fill="#2a2a2a"/>
<circle cx="222.0" cy="178.0" r="3.0" fill="#2a2a2a"/>
<circle cx="222.0" cy="192.0" r="3.0" fill="#2a2a2a"/>
<circle cx="236.0" cy="52.0" r="3.0" fill="#2a2a2a"/>
<circle cx="236.0" cy="66.0" r="3.0" fill="#2a2a2a"/>
<circle cx="236.0" cy="80.0" r="3.0" fill="#2a2a2a"/>
<circle cx="236.0" cy="94.0" r="3.0" fill="#2a2a2a"/>
<circle cx="236.0" cy="108.0" r="3.0" fill="#2a2a2a"/>
<circle cx="236.0" cy="122.0" r="3.0" fill="#2a2a2a"/>
<circle cx="236.0" cy="136.0" r="3.0" fill="#2a2a2a"/>
<circle cx="236.0" cy="150.0" r="3.0" fill="#2a2a2a"/>
<circle cx="236.0" cy="164.0" r="3.0" fill="#2a2a2a"/>
<circle cx="236.0" cy="178.0" r="3.0" fill="#2a2a2a"/>
<circle cx="236.0" cy="192.0" r="3.0" fill="#2a2a2a"/>
<circle cx="250.0" cy="52.0" r="3.0" fill="#2a2a2a"/>
<circle cx="250.0" cy="66.0" r="3.0" fill="#2a2a2a"/>
<circle cx="250.0" cy="80.0" r="3.0" fill="#2a2a2a"/>
<circle cx="250.0" cy="94.0" r="3.0" fill="#2a2a2a"/>
<circle cx="250.0" cy="108.0" r="3.0" fill="#2a2a2a"/>
<circle cx="250.0" cy="122.0" r="3.0" fill="#2a2a2a"/>
<circle cx="250.0" cy="136.0" r="3.0" fill="#2a2a2a"/>
<circle cx="250.0" cy="150.0" r="3.0" fill="#2a2a2a"/>
<circle cx="250.0" cy="164.0" r="3.0" fill="#2a2a2a"/>
<circle cx="250.0" cy="178.0" r="3.0" fill="#2a2a2a"/>
<circle cx="250.0" cy="192.0" r="3.0" fill="#2a2a2a"/>
<circle cx="264.0" cy="52.0" r="3.0" fill="#2a2a2a"/>
<circle cx="264.0" cy="66.0" r="3.0" fill="#2a2a2a"/>
<circle cx="264.0" cy="80.0" r="3.0" fill="#2a2a2a"/>
<circle cx="264.0" cy="94.0" r="3.0" fill="#2a2a2a"/>
<circle cx="264.0" cy="108.0" r="3.0" fill="#2a2a2a"/>
<circle cx="264.0" cy="122.0" r="3.0" fill="#2a2a2a"/>
<circle cx="264.0" cy="136.0" r="3.0" fill="#2a2a2a"/>
<circle cx="264.0" cy="150.0" r="3.0" fill="#2a2a2a"/>
<circle cx="264.0" cy="164.0" r="3.0" fill="#2a2a2a"/>
<circle cx="264.0" cy="178.0" r="3.0" fill="#2a2a2a"/>
<circle cx="264.0" cy="192.0" r="3.0" fill="#2a2a2a"/>
<circle cx="278.0" cy="52.0" r="3.0" fill="#2a2a2a"/>
<circle cx="278.0" cy="66.0" r="3.0" fill="#2a2a2a"/>
<circle cx="278.0" cy="80.0" r="3.0" fill="#2a2a2a"/>
<circle cx="278.0" cy="94.0" r="3.0" fill="#2a2a2a"/>
<circle cx="278.0" cy="108.0" r="3.0" fill="#2a2a2a"/>
<circle cx="278.0" cy="122.0" r="3.0" fill="#2a2a2a"/>
<circle cx="278.0" cy="136.0" r="3.0" fill="#2a2a2a"/>
<circle cx="278.0" cy="150.0" r="3.0" fill="#2a2a2a"/>
<circle cx="278.0" cy="164.0" r="3.0" fill="#2a2a2a"/>
<circle cx="278.0" cy="178.0" r="3.0" fill="#2a2a2a"/>
<circle cx="278.0" cy="192.0" r="3.0" fill="#2a2a2a"/>
<circle cx="108.0" cy="52.0" r="2.5" fill="#2a2a2a"/>
<circle cx="108.0" cy="80.0" r="2.5" fill="#2a2a2a"/>
<circle cx="108.0" cy="94.0" r="2.5" fill="#2a2a2a"/>
<circle cx="108.0" cy="108.0" r="2.5" fill="#2a2a2a"/>
<circle cx="108.0" cy="122.0" r="2.5" fill="#2a2a2a"/>
<circle cx="108.0" cy="136.0" r="2.5" fill="#2a2a2a"/>
<circle cx="108.0" cy="164.0" r="2.5" fill="#2a2a2a"/>
<circle cx="108.0" cy="178.0" r="2.5" fill="#2a2a2a"/>
<circle cx="108.0" cy="192.0" r="2.5" fill="#2a2a2a"/>
<circle cx="118.0" cy="52.0" r="2.5" fill="#2a2a2a"/>
<circle cx="118.0" cy="80.0" r="2.5" fill="#2a2a2a"/>
<circle cx="118.0" cy="94.0" r="2.5" fill="#2a2a2a"/>
<circle cx="118.0" cy="108.0" r="2.5" fill="#2a2a2a"/>
<circle cx="118.0" cy="122.0" r="2.5" fill="#2a2a2a"/>
<circle cx="118.0" cy="136.0" r="2.5" fill="#2a2a2a"/>
<circle cx="118.0" cy="164.0" r="2.5" fill="#2a2a2a"/>
<circle cx="118.0" cy="178.0" r="2.5" fill="#2a2a2a"/>
<circle cx="118.0" cy="192.0" r="2.5" fill="#2a2a2a"/>
<circle cx="298.0" cy="52.0" r="2.5" fill="#2a2a2a"/>
<circle cx="298.0" cy="80.0" r="2.5" fill="#2a2a2a"/>
<circle cx="298.0" cy="94.0" r="2.5" fill="#2a2a2a"/>
<circle cx="298.0" cy="108.0" r="2.5" fill="#2a2a2a"/>
<circle cx="298.0" cy="122.0" r="2.5" fill="#2a2a2a"/>
<circle cx="298.0" cy="136.0" r="2.5" fill="#2a2a2a"/>
<circle cx="298.0" cy="164.0" r="2.5" fill="#2a2a2a"/>
<circle cx="298.0" cy="178.0" r="2.5" fill="#2a2a2a"/>
<circle cx="298.0" cy="192.0" r="2.5" fill="#2a2a2a"/>
<circle cx="308.0" cy="52.0" r="2.5" fill="#2a2a2a"/>
<circle cx="308.0" cy="80.0" r="2.5" fill="#2a2a2a"/>
<circle cx="308.0" cy="94.0" r="2.5" fill="#2a2a2a"/>
<circle cx="308.0" cy="108.0" r="2.5" fill="#2a2a2a"/>
<circle cx="308.0" cy="122.0" r="2.5" fill="#2a2a2a"/>
<circle cx="308.0" cy="136.0" r="2.5" fill="#2a2a2a"/>
<circle cx="308.0" cy="164.0" r="2.5" fill="#2a2a2a"/>
<circle cx="308.0" cy="178.0" r="2.5" fill="#2a2a2a"/>
<circle cx="308.0" cy="192.0" r="2.5" fill="#2a2a2a"/>
<text x="138.0" y="36.0" font-size="9" fill="#666" text-anchor="middle" font-family="'SF Mono', 'Cascadia Code', 'Fira Code', monospace">a</text>
<text x="152.0" y="36.0" font-size="9" fill="#666" text-anchor="middle" font-family="'SF Mono', 'Cascadia Code', 'Fira Code', monospace">b</text>
<text x="166.0" y="36.0" font-size="9" fill="#666" text-anchor="middle" font-family="'SF Mono', 'Cascadia Code', 'Fira Code', monospace">c</text>
<text x="180.0" y="36.0" font-size="9" fill="#666" text-anchor="middle" font-family="'SF Mono', 'Cascadia Code', 'Fira Code', monospace">d</text>
<text x="194.0" y="36.0" font-size="9" fill="#666" text-anchor="middle" font-family="'SF Mono', 'Cascadia Code', 'Fira Code', monospace">e</text>
<text x="222.0" y="36.0" font-size="9" fill="#666" text-anchor="middle" font-family="'SF Mono', 'Cascadia Code', 'Fira Code', monospace">f</text>
<text x="236.0" y="36.0" font-size="9" fill="#666" text-anchor="middle" font-family="'SF Mono', 'Cascadia Code', 'Fira Code', monospace">g</text>
<text x="250.0" y="36.0" font-size="9" fill="#666" text-anchor="middle" font-family="'SF Mono', 'Cascadia Code', 'Fira Code', monospace">h</text>
<text x="264.0" y="36.0" font-size="9" fill="#666" text-anchor="middle" font-family="'SF Mono', 'Cascadia Code', 'Fira Code', monospace">i</text>
<text x="278.0" y="36.0" font-size="9" fill="#666" text-anchor="middle" font-family="'SF Mono', 'Cascadia Code', 'Fira Code', monospace">j</text>
<text x="108.0" y="36.0" font-size="10" fill="#d32f2f" font-weight="bold" text-anchor="middle" font-family="system-ui, -apple-system, 'Segoe UI', sans-serif">+</text>
<text x="118.0" y="36.0" font-size="10" fill="#1565c0" font-weight="bold" text-anchor="middle" font-family="system-ui, -apple-system, 'Segoe UI', sans-serif">–</text>
<text x="298.0" y="36.0" font-size="10" fill="#d32f2f" font-weight="bold" text-anchor="middle" font-family="system-ui, -apple-system, 'Segoe UI', sans-serif">+</text>
<text x="308.0" y="36.0" font-size="10" fill="#1565c0" font-weight="bold" text-anchor="middle" font-family="system-ui, -apple-system, 'Segoe UI', sans-serif">–</text>
<text x="128.0" y="55.5" font-size="8" fill="#666" text-anchor="middle" font-family="'SF Mono', 'Cascadia Code', 'Fira Code', monospace">7</text>
<text x="288.0" y="55.5" font-size="8" fill="#666" text-anchor="middle" font-family="'SF Mono', 'Cascadia Code', 'Fira Code', monospace">7</text>
<text x="128.0" y="69.5" font-size="8" fill="#666" text-anchor="middle" font-family="'SF Mono', 'Cascadia Code', 'Fira Code', monospace">8</text>
<text x="288.0" y="69.5" font-size="8" fill="#666" text-anchor="middle" font-family="'SF Mono', 'Cascadia Code', 'Fira Code', monospace">8</text>
<text x="128.0" y="83.5" font-size="8" fill="#666" text-anchor="middle" font-family="'SF Mono', 'Cascadia Code', 'Fira Code', monospace">9</text>
<text x="288.0" y="83.5" font-size="8" fill="#666" text-anchor="middle" font-family="'SF Mono', 'Cascadia Code', 'Fira Code', monospace">9</text>
<text x="128.0" y="97.5" font-size="8" fill="#666" text-anchor="middle" font-family="'SF Mono', 'Cascadia Code', 'Fira Code', monospace">10</text>
<text x="288.0" y="97.5" font-size="8" fill="#666" text-anchor="middle" font-family="'SF Mono', 'Cascadia Code', 'Fira Code', monospace">10</text>
<text x="128.0" y="111.5" font-size="8" fill="#666" text-anchor="middle" font-family="'SF Mono', 'Cascadia Code', 'Fira Code', monospace">11</text>
<text x="288.0" y="111.5" font-size="8" fill="#666" text-anchor="middle" font-family="'SF Mono', 'Cascadia Code', 'Fira Code', monospace">11</text>
<text x="128.0" y="125.5" font-size="8" fill="#666" text-anchor="middle" font-family="'SF Mono', 'Cascadia Code', 'Fira Code', monospace">12</text>
<text x="288.0" y="125.5" font-size="8" fill="#666" text-anchor="middle" font-family="'SF Mono', 'Cascadia Code', 'Fira Code', monospace">12</text>
<text x="128.0" y="139.5" font-size="8" fill="#666" text-anchor="middle" font-family="'SF Mono', 'Cascadia Code', 'Fira Code', monospace">13</text>
<text x="288.0" y="139.5" font-size="8" fill="#666" text-anchor="middle" font-family="'SF Mono', 'Cascadia Code', 'Fira Code', monospace">13</text>
<text x="128.0" y="153.5" font-size="8" fill="#666" text-anchor="middle" font-family="'SF Mono', 'Cascadia Code', 'Fira Code', monospace">14</text>
<text x="288.0" y="153.5" font-size="8" fill="#666" text-anchor="middle" font-family="'SF Mono', 'Cascadia Code', 'Fira Code', monospace">14</text>
<text x="128.0" y="167.5" font-size="8" fill="#666" text-anchor="middle" font-family="'SF Mono', 'Cascadia Code', 'Fira Code', monospace">15</text>
<text x="288.0" y="167.5" font-size="8" fill="#666" text-anchor="middle" font-family="'SF Mono', 'Cascadia Code', 'Fira Code', monospace">15</text>
<text x="128.0" y="181.5" font-size="8" fill="#666" text-anchor="middle" font-family="'SF Mono', 'Cascadia Code', 'Fira Code', monospace">16</text>
<text x="288.0" y="181.5" font-size="8" fill="#666" text-anchor="middle" font-family="'SF Mono', 'Cascadia Code', 'Fira Code', monospace">16</text>
<text x="128.0" y="195.5" font-size="8" fill="#666" text-anchor="middle" font-family="'SF Mono', 'Cascadia Code', 'Fira Code', monospace">17</text>
<text x="288.0" y="195.5" font-size="8" fill="#666" text-anchor="middle" font-family="'SF Mono', 'Cascadia Code', 'Fira Code', monospace">17</text>
<rect x="20.0" y="86.0" width="60.0" height="72.0" rx="5" fill="#1565c0" stroke="#263238" stroke-width="1" opacity="0.95"/>
<text x="50.0" y="99.0" font-size="8" fill="white" font-weight="700" text-anchor="middle" font-family="system-ui, -apple-system, 'Segoe UI', sans-serif">HC-SR04</text>
<circle cx="80.0" cy="106.0" r="2.5" fill="white" stroke="#1565c0" stroke-width="0.8"/>
<text x="72.0" y="109.0" font-size="6" fill="#ddd" font-weight="600" text-anchor="end" font-family="'SF Mono', 'Cascadia Code', 'Fira Code', monospace">TRIG</text>
<line x1="80.0" y1="106.0" x2="194.0" y2="106.0" stroke="#1565c0" stroke-width="2" stroke-linecap="round" opacity="0.8"/>
<line x1="194.0" y1="106.0" x2="194.0" y2="94.0" stroke="#1565c0" stroke-width="2" stroke-linecap="round" opacity="0.8"/>
<circle cx="80.0" cy="120.0" r="2.5" fill="white" stroke="#1565c0" stroke-width="0.8"/>
<text x="72.0" y="123.0" font-size="6" fill="#ddd" font-weight="600" text-anchor="end" font-family="'SF Mono', 'Cascadia Code', 'Fira Code', monospace">ECHO</text>
<line x1="80.0" y1="120.0" x2="194.0" y2="120.0" stroke="#1565c0" stroke-width="2" stroke-linecap="round" opacity="0.8"/>
<line x1="194.0" y1="120.0" x2="194.0" y2="108.0" stroke="#1565c0" stroke-width="2" stroke-linecap="round" opacity="0.8"/>
<circle cx="80.0" cy="134.0" r="2.5" fill="white" stroke="#1565c0" stroke-width="0.8"/>
<text x="72.0" y="137.0" font-size="6" fill="#ddd" font-weight="600" text-anchor="end" font-family="'SF Mono', 'Cascadia Code', 'Fira Code', monospace">VCC</text>
<line x1="80.0" y1="134.0" x2="194.0" y2="134.0" stroke="#e53935" stroke-width="2" stroke-linecap="round" opacity="0.8"/>
<line x1="194.0" y1="134.0" x2="194.0" y2="136.0" stroke="#e53935" stroke-width="2" stroke-linecap="round" opacity="0.8"/>
<circle cx="80.0" cy="148.0" r="2.5" fill="white" stroke="#1565c0" stroke-width="0.8"/>
<text x="72.0" y="151.0" font-size="6" fill="#ddd" font-weight="600" text-anchor="end" font-family="'SF Mono', 'Cascadia Code', 'Fira Code', monospace">GND</text>
<line x1="80.0" y1="148.0" x2="194.0" y2="148.0" stroke="#333333" stroke-width="2" stroke-linecap="round" opacity="0.8"/>
<line x1="194.0" y1="148.0" x2="194.0" y2="150.0" stroke="#333333" stroke-width="2" stroke-linecap="round" opacity="0.8"/>
<rect x="4.0" y="107.0" width="76.0" height="58.0" rx="5" fill="#2e7d32" stroke="#263238" stroke-width="1" opacity="0.95"/>
<text x="42.0" y="120.0" font-size="8" fill="white" font-weight="700" text-anchor="middle" font-family="system-ui, -apple-system, 'Segoe UI', sans-serif">SG90 Servo</text>
<circle cx="80.0" cy="127.0" r="2.5" fill="white" stroke="#2e7d32" stroke-width="0.8"/>
<text x="72.0" y="130.0" font-size="6" fill="#ddd" font-weight="600" text-anchor="end" font-family="'SF Mono', 'Cascadia Code', 'Fira Code', monospace">SIG</text>
<line x1="80.0" y1="127.0" x2="194.0" y2="127.0" stroke="#2e7d32" stroke-width="2" stroke-linecap="round" opacity="0.8"/>
<line x1="194.0" y1="127.0" x2="194.0" y2="122.0" stroke="#2e7d32" stroke-width="2" stroke-linecap="round" opacity="0.8"/>
<circle cx="80.0" cy="141.0" r="2.5" fill="white" stroke="#2e7d32" stroke-width="0.8"/>
<text x="72.0" y="144.0" font-size="6" fill="#ddd" font-weight="600" text-anchor="end" font-family="'SF Mono', 'Cascadia Code', 'Fira Code', monospace">VCC</text>
<line x1="80.0" y1="141.0" x2="194.0" y2="141.0" stroke="#e53935" stroke-width="2" stroke-linecap="round" opacity="0.8"/>
<line x1="194.0" y1="141.0" x2="194.0" y2="136.0" stroke="#e53935" stroke-width="2" stroke-linecap="round" opacity="0.8"/>
<circle cx="80.0" cy="155.0" r="2.5" fill="white" stroke="#2e7d32" stroke-width="0.8"/>
<text x="72.0" y="158.0" font-size="6" fill="#ddd" font-weight="600" text-anchor="end" font-family="'SF Mono', 'Cascadia Code', 'Fira Code', monospace">GND</text>
<line x1="80.0" y1="155.0" x2="194.0" y2="155.0" stroke="#333333" stroke-width="2" stroke-linecap="round" opacity="0.8"/>
<line x1="194.0" y1="155.0" x2="194.0" y2="150.0" stroke="#333333" stroke-width="2" stroke-linecap="round" opacity="0.8"/>
<line x1="45.0" y1="94.0" x2="138.0" y2="94.0" stroke="#ff6f00" stroke-width="2" stroke-linecap="round" opacity="0.8"/>
<rect x="4.0" y="88.0" width="41.0" height="12.0" rx="4" fill="#ff6f00" opacity="0.92"/>
<text x="8.0" y="97.0" font-size="8" fill="white" font-weight="600" font-family="system-ui, -apple-system, 'Segoe UI', sans-serif">Pin 22</text>
<line x1="45.0" y1="108.0" x2="138.0" y2="108.0" stroke="#1565c0" stroke-width="2" stroke-linecap="round" opacity="0.8"/>
<rect x="4.0" y="102.0" width="41.0" height="12.0" rx="4" fill="#1565c0" opacity="0.92"/>
<text x="8.0" y="111.0" font-size="8" fill="white" font-weight="600" font-family="system-ui, -apple-system, 'Segoe UI', sans-serif">Pin 23</text>
<line x1="45.0" y1="122.0" x2="138.0" y2="122.0" stroke="#7b1fa2" stroke-width="2" stroke-linecap="round" opacity="0.8"/>
<rect x="4.0" y="116.0" width="41.0" height="12.0" rx="4" fill="#7b1fa2" opacity="0.92"/>
<text x="8.0" y="125.0" font-size="8" fill="white" font-weight="600" font-family="system-ui, -apple-system, 'Segoe UI', sans-serif">Pin 24</text>
<line x1="36.0" y1="136.0" x2="138.0" y2="136.0" stroke="#e53935" stroke-width="2" stroke-linecap="round" opacity="0.8"/>
<rect x="4.0" y="130.0" width="32.0" height="12.0" rx="4" fill="#e53935" opacity="0.92"/>
<text x="8.0" y="139.0" font-size="8" fill="white" font-weight="600" font-family="system-ui, -apple-system, 'Segoe UI', sans-serif">5V</text>
<line x1="36.0" y1="150.0" x2="138.0" y2="150.0" stroke="#333333" stroke-width="2" stroke-linecap="round" opacity="0.8"/>
<rect x="4.0" y="144.0" width="32.0" height="12.0" rx="4" fill="#333333" opacity="0.92"/>
<text x="8.0" y="153.0" font-size="8" fill="white" font-weight="600" font-family="system-ui, -apple-system, 'Segoe UI', sans-serif">GND</text>
<text x="96.0" y="224.0" font-size="8" fill="#999" font-weight="600" letter-spacing="0.5" font-family="system-ui, -apple-system, 'Segoe UI', sans-serif">COMPONENTS</text>
<circle cx="101.0" cy="235.0" r="4.0" fill="#1565c0" stroke="#0002" stroke-width="0.5"/>
<text x="110.0" y="238.0" font-size="9" fill="#444" font-family="system-ui, -apple-system, 'Segoe UI', sans-serif">HC-SR04</text>
<circle cx="101.0" cy="250.0" r="4.0" fill="#2e7d32" stroke="#0002" stroke-width="0.5"/>
<text x="110.0" y="253.0" font-size="9" fill="#444" font-family="system-ui, -apple-system, 'Segoe UI', sans-serif">SG90 Servo</text>
<text x="96.0" y="274.0" font-size="8" fill="#999" font-weight="600" letter-spacing="0.5" font-family="system-ui, -apple-system, 'Segoe UI', sans-serif">WIRES</text>
<line x1="97.0" y1="285.0" x2="106.0" y2="285.0" stroke="#ff6f00" stroke-width="3" stroke-linecap="round"/>
<text x="112.0" y="288.0" font-size="9" fill="#444" font-family="system-ui, -apple-system, 'Segoe UI', sans-serif">ultrasonic TRIG — HERO XL Pin 22</text>
<line x1="97.0" y1="300.0" x2="106.0" y2="300.0" stroke="#1565c0" stroke-width="3" stroke-linecap="round"/>
<text x="112.0" y="303.0" font-size="9" fill="#444" font-family="system-ui, -apple-system, 'Segoe UI', sans-serif">ultrasonic ECHO — HERO XL Pin 23</text>
<line x1="97.0" y1="315.0" x2="106.0" y2="315.0" stroke="#7b1fa2" stroke-width="3" stroke-linecap="round"/>
<text x="112.0" y="318.0" font-size="9" fill="#444" font-family="system-ui, -apple-system, 'Segoe UI', sans-serif">servo signal — HERO XL Pin 24</text>
<line x1="97.0" y1="330.0" x2="106.0" y2="330.0" stroke="#e53935" stroke-width="3" stroke-linecap="round"/>
<text x="112.0" y="333.0" font-size="9" fill="#444" font-family="system-ui, -apple-system, 'Segoe UI', sans-serif">ultrasonic + servo power — HERO XL 5V</text>
<line x1="97.0" y1="345.0" x2="106.0" y2="345.0" stroke="#333333" stroke-width="3" stroke-linecap="round"/>
<text x="112.0" y="348.0" font-size="9" fill="#444" font-family="system-ui, -apple-system, 'Segoe UI', sans-serif">ultrasonic + servo ground — HERO XL GND</text>
<text x="208.0" y="18.0" font-size="13" fill="#222" font-weight="700" text-anchor="middle" font-family="system-ui, -apple-system, 'Segoe UI', sans-serif">Radar Sweep — Servo + Ultrasonic + TFT</text>
<text x="208.0" y="30.0" font-size="9" fill="#999" text-anchor="middle" font-family="system-ui, -apple-system, 'Segoe UI', sans-serif">rows 7–17 of 63</text>
</svg>